%TF.GenerationSoftware,KiCad,Pcbnew,9.0.0*%
%TF.CreationDate,2026-01-13T21:54:56-06:00*%
%TF.ProjectId,PTN-PumpControlBoard,50544e2d-5075-46d7-9043-6f6e74726f6c,rev?*%
%TF.SameCoordinates,Original*%
%TF.FileFunction,Soldermask,Bot*%
%TF.FilePolarity,Negative*%
%FSLAX46Y46*%
G04 Gerber Fmt 4.6, Leading zero omitted, Abs format (unit mm)*
G04 Created by KiCad (PCBNEW 9.0.0) date 2026-01-13 21:54:56*
%MOMM*%
%LPD*%
G01*
G04 APERTURE LIST*
G04 Aperture macros list*
%AMRoundRect*
0 Rectangle with rounded corners*
0 $1 Rounding radius*
0 $2 $3 $4 $5 $6 $7 $8 $9 X,Y pos of 4 corners*
0 Add a 4 corners polygon primitive as box body*
4,1,4,$2,$3,$4,$5,$6,$7,$8,$9,$2,$3,0*
0 Add four circle primitives for the rounded corners*
1,1,$1+$1,$2,$3*
1,1,$1+$1,$4,$5*
1,1,$1+$1,$6,$7*
1,1,$1+$1,$8,$9*
0 Add four rect primitives between the rounded corners*
20,1,$1+$1,$2,$3,$4,$5,0*
20,1,$1+$1,$4,$5,$6,$7,0*
20,1,$1+$1,$6,$7,$8,$9,0*
20,1,$1+$1,$8,$9,$2,$3,0*%
%AMFreePoly0*
4,1,22,0.695671,0.830970,0.776777,0.776777,0.830970,0.695671,0.850000,0.600000,0.850000,-0.600000,0.830970,-0.695671,0.776777,-0.776777,0.695671,-0.830970,0.600000,-0.850000,-0.200000,-0.850000,-0.295671,-0.830970,-0.376777,-0.776777,-0.776777,-0.376777,-0.830970,-0.295671,-0.850000,-0.200000,-0.850000,0.600000,-0.830970,0.695671,-0.776777,0.776777,-0.695671,0.830970,-0.600000,0.850000,
0.600000,0.850000,0.695671,0.830970,0.695671,0.830970,$1*%
G04 Aperture macros list end*
%ADD10C,3.600000*%
%ADD11C,6.400000*%
%ADD12C,1.524000*%
%ADD13C,1.300000*%
%ADD14RoundRect,0.250000X-0.600000X-0.600000X0.600000X-0.600000X0.600000X0.600000X-0.600000X0.600000X0*%
%ADD15C,1.700000*%
%ADD16FreePoly0,0.000000*%
%ADD17R,1.143000X0.990600*%
%ADD18R,1.970000X1.670000*%
%ADD19R,1.670000X1.970000*%
G04 APERTURE END LIST*
D10*
%TO.C,H2*%
X116608500Y-131450000D03*
D11*
X116608500Y-131450000D03*
%TD*%
D10*
%TO.C,H4*%
X116600000Y-56500000D03*
D11*
X116600000Y-56500000D03*
%TD*%
D12*
%TO.C,J5*%
X119368500Y-119714000D03*
X119368500Y-122254000D03*
X121908500Y-119714000D03*
X121908500Y-122254000D03*
X124448500Y-119714000D03*
X124448500Y-122254000D03*
X126988500Y-119714000D03*
X126988500Y-122254000D03*
X129528500Y-119714000D03*
X129528500Y-122254000D03*
%TD*%
D10*
%TO.C,J4*%
X147418500Y-112014000D03*
D11*
X147418500Y-112014000D03*
D10*
X116668500Y-112014000D03*
D11*
X116668500Y-112014000D03*
D10*
X116668500Y-65544000D03*
D11*
X116668500Y-65544000D03*
D10*
X147408500Y-65544000D03*
D11*
X147408500Y-65544000D03*
%TD*%
D13*
%TO.C,J3*%
X156268500Y-108414000D03*
D14*
X157608500Y-102164000D03*
D15*
X157608500Y-104664000D03*
X157608500Y-107164000D03*
X157608500Y-109664000D03*
X157608500Y-112164000D03*
X157608500Y-114664000D03*
X160108500Y-102164000D03*
X160108500Y-104664000D03*
X160108500Y-107164000D03*
X160108500Y-109664000D03*
X160108500Y-112164000D03*
X160108500Y-114664000D03*
%TD*%
D13*
%TO.C,J2*%
X156268500Y-86564000D03*
D14*
X157608500Y-82814000D03*
D15*
X157608500Y-85314000D03*
X157608500Y-87814000D03*
X157608500Y-90314000D03*
X160108500Y-82814000D03*
X160108500Y-85314000D03*
X160108500Y-87814000D03*
X160108500Y-90314000D03*
%TD*%
D10*
%TO.C,H3*%
X162750000Y-56500000D03*
D11*
X162750000Y-56500000D03*
%TD*%
D13*
%TO.C,J1*%
X156268500Y-65250000D03*
D15*
X157608500Y-69000000D03*
X157608500Y-66500000D03*
D16*
X157608500Y-64000000D03*
D15*
X160108500Y-69000000D03*
X160108500Y-66500000D03*
X160108500Y-64000000D03*
%TD*%
D10*
%TO.C,H1*%
X162750000Y-131414000D03*
D11*
X162750000Y-131414000D03*
%TD*%
D17*
%TO.C,D1*%
X134610900Y-100900000D03*
X137989100Y-100900000D03*
%TD*%
%TO.C,D4*%
X125210900Y-115800000D03*
X128589100Y-115800000D03*
%TD*%
%TO.C,D2*%
X142039100Y-113300000D03*
X138660900Y-113300000D03*
%TD*%
D18*
%TO.C,D14*%
X157025000Y-98100000D03*
X152975000Y-98100000D03*
%TD*%
D19*
%TO.C,D13*%
X152800000Y-113575000D03*
X152800000Y-117625000D03*
%TD*%
M02*
