M48
; DRILL file {KiCad 9.0.0} date 2025-08-25T22:52:43-0500
; FORMAT={-:-/ absolute / inch / decimal}
; #@! TF.CreationDate,2025-08-25T22:52:43-05:00
; #@! TF.GenerationSoftware,Kicad,Pcbnew,9.0.0
; #@! TF.FileFunction,Plated,1,2,PTH
FMAT,2
INCH
; #@! TA.AperFunction,Plated,PTH,ViaDrill
T1C0.0118
; #@! TA.AperFunction,Plated,PTH,ViaDrill
T2C0.0157
; #@! TA.AperFunction,Plated,PTH,ViaDrill
T3C0.0315
; #@! TA.AperFunction,Plated,PTH,ComponentDrill
T4C0.0400
; #@! TA.AperFunction,Plated,PTH,ComponentDrill
T5C0.0472
; #@! TA.AperFunction,Plated,PTH,ComponentDrill
T6C0.1260
%
G90
G05
T1
X4.5276Y-3.252
X4.5381Y-3.6749
X4.5591Y-3.2205
X4.5869Y-3.4767
X4.5906Y-3.189
X4.6181Y-3.9803
X4.8927Y-2.8337
X4.9134Y-2.8897
X4.9606Y-3.1387
X5.0236Y-4.6614
X5.0623Y-2.8353
X5.0709Y-2.8947
X5.126Y-3.0118
X5.1535Y-3.0354
X5.1654Y-3.0709
X5.1654Y-3.1142
X5.3307Y-4.1929
X5.4134Y-4.4685
X5.4528Y-4.4685
X5.4583Y-4.1181
X5.5354Y-4.0866
X5.5945Y-4.1535
X5.6417Y-4.1063
X5.6811Y-4.0669
X5.7205Y-4.0276
X5.7598Y-3.9882
X5.7953Y-3.9567
X5.8307Y-3.9213
X5.8661Y-3.8858
X5.9016Y-3.8504
X5.9331Y-3.8189
X5.9685Y-3.7913
X6.1142Y-3.8031
X6.1181Y-3.7559
X6.1654Y-3.752
X6.2165Y-2.8937
X6.2205Y-3.6969
X6.248Y-3.7205
X6.2559Y-3.6929
X6.2598Y-3.3622
X6.2717Y-3.748
X6.2992Y-3.7835
X6.3031Y-2.9213
X6.3031Y-2.9961
X6.311Y-3.0551
X6.3858Y-3.0591
T2
X4.2015Y-3.7763
X4.2402Y-4.2598
X4.2717Y-2.9764
X4.2795Y-3.1181
X4.3031Y-4.5669
X4.3189Y-2.9764
X4.3189Y-3.1181
X4.3341Y-2.851
X4.355Y-3.6228
X4.3622Y-2.751
X4.4961Y-2.5591
X4.5787Y-2.9094
X4.6181Y-3.1614
X4.6496Y-4.7244
X4.7332Y-2.9931
X4.7638Y-3.6811
X4.7638Y-4.0
X4.9449Y-3.3622
X4.9488Y-4.0
X4.9567Y-3.9252
X4.9646Y-3.8268
X5.1102Y-4.4488
X5.1734Y-4.2518
X5.2049Y-4.2795
X5.2381Y-4.292
X5.2677Y-4.1929
X5.3008Y-4.1654
X5.3583Y-4.4528
X5.5077Y-4.4801
X5.5217Y-4.2618
X5.6654Y-4.9606
X5.7328Y-4.5591
X5.8403Y-4.7143
X5.8427Y-3.0071
X5.9803Y-3.3465
X5.9878Y-3.1535
X6.0617Y-2.8506
X6.065Y-3.7579
X6.0787Y-4.9213
X6.1122Y-4.5807
X6.1496Y-3.4724
X6.1693Y-3.6535
X6.185Y-2.8464
T3
X4.8533Y-3.0059
T4
X4.9669Y-4.9157
X4.9669Y-5.0157
X5.0669Y-4.9157
X5.0669Y-5.0157
X5.1669Y-4.9157
X5.1669Y-5.0157
X5.2669Y-4.9157
X5.2669Y-5.0157
X5.3669Y-4.9157
X5.3669Y-5.0157
T5
X4.1024Y-3.9429
X4.1024Y-4.0413
X4.1091Y-4.3209
X4.1091Y-4.4193
X4.1169Y-4.6909
X4.1169Y-4.7894
X4.1327Y-2.6496
X4.1327Y-2.748
X4.1327Y-2.8465
X4.1327Y-3.1535
X4.1327Y-3.252
X4.1327Y-3.3504
X4.4311Y-5.072
X4.5295Y-5.072
X6.5878Y-3.6988
X6.5878Y-3.7972
X6.5878Y-3.8957
X6.5878Y-3.9941
X6.5878Y-4.2913
X6.5878Y-4.3898
X6.5878Y-4.4882
X6.5878Y-4.7539
X6.5878Y-4.8524
X6.5906Y-3.3071
X6.5906Y-3.4055
X6.5917Y-2.6476
X6.5917Y-2.7461
X6.5917Y-2.9862
X6.5917Y-3.0846
T6
X4.7569Y-2.6285
X4.7569Y-4.4581
X5.9671Y-2.6285
X5.9675Y-4.4581
M30
