%TF.GenerationSoftware,KiCad,Pcbnew,9.0.0*%
%TF.CreationDate,2026-01-13T23:26:04-06:00*%
%TF.ProjectId,PTN-PumpControlBoard,50544e2d-5075-46d7-9043-6f6e74726f6c,rev?*%
%TF.SameCoordinates,Original*%
%TF.FileFunction,Copper,L2,Bot*%
%TF.FilePolarity,Positive*%
%FSLAX46Y46*%
G04 Gerber Fmt 4.6, Leading zero omitted, Abs format (unit mm)*
G04 Created by KiCad (PCBNEW 9.0.0) date 2026-01-13 23:26:04*
%MOMM*%
%LPD*%
G01*
G04 APERTURE LIST*
G04 Aperture macros list*
%AMRoundRect*
0 Rectangle with rounded corners*
0 $1 Rounding radius*
0 $2 $3 $4 $5 $6 $7 $8 $9 X,Y pos of 4 corners*
0 Add a 4 corners polygon primitive as box body*
4,1,4,$2,$3,$4,$5,$6,$7,$8,$9,$2,$3,0*
0 Add four circle primitives for the rounded corners*
1,1,$1+$1,$2,$3*
1,1,$1+$1,$4,$5*
1,1,$1+$1,$6,$7*
1,1,$1+$1,$8,$9*
0 Add four rect primitives between the rounded corners*
20,1,$1+$1,$2,$3,$4,$5,0*
20,1,$1+$1,$4,$5,$6,$7,0*
20,1,$1+$1,$6,$7,$8,$9,0*
20,1,$1+$1,$8,$9,$2,$3,0*%
%AMFreePoly0*
4,1,22,0.695671,0.830970,0.776777,0.776777,0.830970,0.695671,0.850000,0.600000,0.850000,-0.600000,0.830970,-0.695671,0.776777,-0.776777,0.695671,-0.830970,0.600000,-0.850000,-0.200000,-0.850000,-0.295671,-0.830970,-0.376777,-0.776777,-0.776777,-0.376777,-0.830970,-0.295671,-0.850000,-0.200000,-0.850000,0.600000,-0.830970,0.695671,-0.776777,0.776777,-0.695671,0.830970,-0.600000,0.850000,
0.600000,0.850000,0.695671,0.830970,0.695671,0.830970,$1*%
G04 Aperture macros list end*
%TA.AperFunction,SMDPad,CuDef*%
%ADD10R,1.143000X0.990600*%
%TD*%
%TA.AperFunction,ComponentPad*%
%ADD11C,3.600000*%
%TD*%
%TA.AperFunction,ConnectorPad*%
%ADD12C,6.400000*%
%TD*%
%TA.AperFunction,ComponentPad*%
%ADD13C,1.524000*%
%TD*%
%TA.AperFunction,ComponentPad*%
%ADD14RoundRect,0.250000X-0.600000X-0.600000X0.600000X-0.600000X0.600000X0.600000X-0.600000X0.600000X0*%
%TD*%
%TA.AperFunction,ComponentPad*%
%ADD15C,1.700000*%
%TD*%
%TA.AperFunction,ComponentPad*%
%ADD16FreePoly0,0.000000*%
%TD*%
%TA.AperFunction,ComponentPad*%
%ADD17C,0.600000*%
%TD*%
%TA.AperFunction,SMDPad,CuDef*%
%ADD18R,2.950000X4.900000*%
%TD*%
%TA.AperFunction,SMDPad,CuDef*%
%ADD19R,1.970000X1.670000*%
%TD*%
%TA.AperFunction,SMDPad,CuDef*%
%ADD20R,1.670000X1.970000*%
%TD*%
%TA.AperFunction,ViaPad*%
%ADD21C,0.600000*%
%TD*%
%TA.AperFunction,ViaPad*%
%ADD22C,0.500000*%
%TD*%
%TA.AperFunction,Conductor*%
%ADD23C,0.200000*%
%TD*%
%TA.AperFunction,Conductor*%
%ADD24C,0.400000*%
%TD*%
%TA.AperFunction,Conductor*%
%ADD25C,0.500000*%
%TD*%
%TA.AperFunction,Conductor*%
%ADD26C,0.300000*%
%TD*%
G04 APERTURE END LIST*
D10*
%TO.P,D2,2,A2*%
%TO.N,/TACH_PSOM*%
X138660900Y-113300000D03*
%TO.P,D2,1,A1*%
%TO.N,GND*%
X142039100Y-113300000D03*
%TD*%
D11*
%TO.P,H2,1,1*%
%TO.N,unconnected-(H2-Pad1)_2*%
X116608500Y-131450000D03*
D12*
%TO.N,unconnected-(H2-Pad1)_1*%
X116608500Y-131450000D03*
%TD*%
D11*
%TO.P,H4,1,1*%
%TO.N,unconnected-(H4-Pad1)_2*%
X116600000Y-56500000D03*
D12*
%TO.N,unconnected-(H4-Pad1)*%
X116600000Y-56500000D03*
%TD*%
D13*
%TO.P,J5,1,GND*%
%TO.N,GND*%
X119368500Y-119714000D03*
%TO.P,J5,2,GND*%
X119368500Y-122254000D03*
%TO.P,J5,3,CH7*%
%TO.N,/PUMP_TACH*%
X121908500Y-119714000D03*
%TO.P,J5,4,CH6*%
%TO.N,/PUMP_PWM*%
X121908500Y-122254000D03*
%TO.P,J5,5,CH5*%
%TO.N,/FLOW1*%
X124448500Y-119714000D03*
%TO.P,J5,6,CH4*%
%TO.N,/FAN_SCL*%
X124448500Y-122254000D03*
%TO.P,J5,7,CH3*%
%TO.N,/FAN1_PWM*%
X126988500Y-119714000D03*
%TO.P,J5,8,CH2*%
%TO.N,/FAN_SDA*%
X126988500Y-122254000D03*
%TO.P,J5,9,CH1*%
%TO.N,/FAN1_TACH*%
X129528500Y-119714000D03*
%TO.P,J5,10,CH0*%
%TO.N,unconnected-(J5-CH0-Pad10)*%
X129528500Y-122254000D03*
%TD*%
D11*
%TO.P,J4,25,MNT*%
%TO.N,unconnected-(J4-MNT-Pad25)_2*%
X147418500Y-112014000D03*
D12*
%TO.N,unconnected-(J4-MNT-Pad25)*%
X147418500Y-112014000D03*
D11*
%TO.P,J4,26,MNT*%
%TO.N,unconnected-(J4-MNT-Pad26)_2*%
X116668500Y-112014000D03*
D12*
%TO.N,unconnected-(J4-MNT-Pad26)*%
X116668500Y-112014000D03*
D11*
%TO.P,J4,27,MNT*%
%TO.N,unconnected-(J4-MNT-Pad27)*%
X116668500Y-65544000D03*
D12*
%TO.N,unconnected-(J4-MNT-Pad27)_1*%
X116668500Y-65544000D03*
D11*
%TO.P,J4,28,MNT*%
%TO.N,unconnected-(J4-MNT-Pad28)*%
X147408500Y-65544000D03*
D12*
%TO.N,unconnected-(J4-MNT-Pad28)_2*%
X147408500Y-65544000D03*
%TD*%
D14*
%TO.P,J3,1,Pin_1*%
%TO.N,+12V*%
X157608500Y-102164000D03*
D15*
%TO.P,J3,2,Pin_2*%
%TO.N,/FLOW1_SIG*%
X157608500Y-104664000D03*
%TO.P,J3,3,Pin_3*%
%TO.N,+12V*%
X157608500Y-107164000D03*
%TO.P,J3,4,Pin_4*%
%TO.N,+24V*%
X157608500Y-109664000D03*
%TO.P,J3,5,Pin_5*%
%TO.N,/FAN1_TACH*%
X157608500Y-112164000D03*
%TO.P,J3,6,Pin_6*%
%TO.N,/FAN2_TACH*%
X157608500Y-114664000D03*
%TO.P,J3,7,Pin_7*%
%TO.N,GND*%
X160108500Y-102164000D03*
%TO.P,J3,8,Pin_8*%
%TO.N,/FLOW2_SIG*%
X160108500Y-104664000D03*
%TO.P,J3,9,Pin_9*%
%TO.N,GND*%
X160108500Y-107164000D03*
%TO.P,J3,10,Pin_10*%
X160108500Y-109664000D03*
%TO.P,J3,11,Pin_11*%
%TO.N,/FAN1_PWM*%
X160108500Y-112164000D03*
%TO.P,J3,12,Pin_12*%
%TO.N,/FAN2_PWM*%
X160108500Y-114664000D03*
%TD*%
D14*
%TO.P,J2,1,Pin_1*%
%TO.N,+12V*%
X157608500Y-82814000D03*
D15*
%TO.P,J2,2,Pin_2*%
%TO.N,/PUMP_TACH*%
X157608500Y-85314000D03*
%TO.P,J2,3,Pin_3*%
%TO.N,/TEMP_IN1*%
X157608500Y-87814000D03*
%TO.P,J2,4,Pin_4*%
%TO.N,/TEMP_IN2*%
X157608500Y-90314000D03*
%TO.P,J2,5,Pin_5*%
%TO.N,GND*%
X160108500Y-82814000D03*
%TO.P,J2,6,Pin_6*%
%TO.N,/PUMP_PWM*%
X160108500Y-85314000D03*
%TO.P,J2,7,Pin_7*%
%TO.N,AGND*%
X160108500Y-87814000D03*
%TO.P,J2,8,Pin_8*%
X160108500Y-90314000D03*
%TD*%
D11*
%TO.P,H3,1,1*%
%TO.N,unconnected-(H3-Pad1)_2*%
X162750000Y-56500000D03*
D12*
%TO.N,unconnected-(H3-Pad1)_1*%
X162750000Y-56500000D03*
%TD*%
D15*
%TO.P,J1,1,Pin_1*%
%TO.N,/24V_IN*%
X157608500Y-69000000D03*
%TO.P,J1,2,Pin_2*%
%TO.N,/CAN_H*%
X157608500Y-66500000D03*
D16*
%TO.P,J1,3,Pin_3*%
%TO.N,/CAN_L*%
X157608500Y-64000000D03*
D15*
%TO.P,J1,4,Pin_4*%
%TO.N,GND*%
X160108500Y-69000000D03*
%TO.P,J1,5,Pin_5*%
%TO.N,/CAN_H*%
X160108500Y-66500000D03*
%TO.P,J1,6,Pin_6*%
%TO.N,/CAN_L*%
X160108500Y-64000000D03*
%TD*%
D11*
%TO.P,H1,1,1*%
%TO.N,unconnected-(H1-Pad1)*%
X162750000Y-131414000D03*
D12*
%TO.N,unconnected-(H1-Pad1)_2*%
X162750000Y-131414000D03*
%TD*%
D17*
%TO.P,U3,9,GND*%
%TO.N,GND*%
X126006750Y-63300000D03*
X126006750Y-64600000D03*
X126006750Y-65900000D03*
X126006750Y-67200000D03*
D18*
X126656750Y-65250000D03*
D17*
X127306750Y-63300000D03*
X127306750Y-64600000D03*
X127306750Y-65900000D03*
X127306750Y-67200000D03*
%TD*%
D10*
%TO.P,D1,1,A1*%
%TO.N,GND*%
X134610900Y-100900000D03*
%TO.P,D1,2,A2*%
%TO.N,/PWM_PSOM*%
X137989100Y-100900000D03*
%TD*%
%TO.P,D4,1,A1*%
%TO.N,GND*%
X125210900Y-115800000D03*
%TO.P,D4,2,A2*%
%TO.N,/FLOW2*%
X128589100Y-115800000D03*
%TD*%
D19*
%TO.P,D14,1,K*%
%TO.N,+12V*%
X157025000Y-98100000D03*
%TO.P,D14,2,A*%
%TO.N,GND*%
X152975000Y-98100000D03*
%TD*%
D20*
%TO.P,D13,1,K*%
%TO.N,+24V*%
X152800000Y-113575000D03*
%TO.P,D13,2,A*%
%TO.N,GND*%
X152800000Y-117625000D03*
%TD*%
D21*
%TO.N,/TEMP1*%
X138875500Y-81075500D03*
%TO.N,+3.3V*%
X135100000Y-105250000D03*
X129607500Y-111300000D03*
X147574265Y-94074265D03*
X152300000Y-81100000D03*
%TO.N,GND*%
X151900000Y-95000000D03*
D22*
X130100000Y-78600000D03*
D21*
X131200000Y-95200000D03*
X118300000Y-96200000D03*
X120500000Y-93000000D03*
X152800000Y-94000000D03*
X124000000Y-93100000D03*
X154000000Y-104700000D03*
X118200000Y-77100000D03*
X154700000Y-92300000D03*
D22*
X133400000Y-65000000D03*
X117528500Y-89100000D03*
D21*
X154700000Y-107700000D03*
X157600000Y-130300000D03*
D22*
X134300000Y-71200000D03*
D21*
X150600000Y-104600000D03*
X117000000Y-102600000D03*
X120800000Y-102400000D03*
X115500000Y-75600000D03*
X119100000Y-74700000D03*
X114800000Y-71600000D03*
X115100000Y-96100000D03*
X165200000Y-109100000D03*
D22*
X135800000Y-65800000D03*
D21*
X131200000Y-103500000D03*
X153300000Y-111900000D03*
X148800000Y-117800000D03*
X140100000Y-116500000D03*
X163800000Y-120500000D03*
X142100000Y-58100000D03*
X149700000Y-108100000D03*
X125900000Y-90137000D03*
X131150000Y-129750000D03*
X165100000Y-91100000D03*
X127600000Y-104000000D03*
X154200000Y-112800000D03*
X144600000Y-68821000D03*
X114800000Y-91400000D03*
X155500000Y-106400000D03*
X150500000Y-109000000D03*
X165100000Y-114500000D03*
X147100000Y-56600000D03*
X142300000Y-54600000D03*
X137200000Y-63100000D03*
X131200000Y-98600000D03*
D22*
X120400000Y-73000000D03*
D21*
X116900000Y-70400000D03*
D22*
X133300000Y-63700000D03*
D21*
X115500000Y-88100000D03*
X115200000Y-100600000D03*
X163700000Y-126000000D03*
X154700000Y-102900000D03*
D22*
X120700000Y-68700000D03*
D21*
X131700000Y-120600000D03*
X152100000Y-59900000D03*
X126000000Y-77400000D03*
X116600000Y-92900000D03*
X144500000Y-124500000D03*
X115200000Y-105200000D03*
D22*
X151000000Y-97500000D03*
D21*
X136200000Y-122400000D03*
D22*
X129100000Y-78500000D03*
D21*
X151600000Y-67800000D03*
D22*
X122000000Y-73100000D03*
D21*
X127600000Y-97100000D03*
D22*
X144207907Y-115492093D03*
D21*
X151800000Y-70600000D03*
X136200000Y-121300000D03*
X119000000Y-100500000D03*
D22*
X133500000Y-71000000D03*
D21*
X158400000Y-59500000D03*
X119100000Y-61200000D03*
X123600000Y-75500000D03*
D22*
X134500000Y-65800000D03*
D21*
X127600000Y-102200000D03*
X131200000Y-96900000D03*
X127600000Y-98700000D03*
D22*
X138157701Y-108200000D03*
X132800000Y-70400000D03*
D21*
X121900000Y-96100000D03*
D22*
X120200000Y-70000000D03*
D21*
X142000000Y-119400000D03*
D22*
X131100000Y-70000000D03*
D21*
X131700000Y-122500000D03*
X116400000Y-98300000D03*
X121000000Y-76300000D03*
X151500000Y-63600000D03*
X160000000Y-125400000D03*
X127600000Y-100500000D03*
X122400000Y-61500000D03*
X150200000Y-102800000D03*
X152300000Y-104700000D03*
X125300000Y-96100000D03*
X116800000Y-73300000D03*
X131700000Y-121500000D03*
X127600000Y-95700000D03*
X147800000Y-107300000D03*
X131200000Y-100300000D03*
X155100000Y-125900000D03*
X151300000Y-102800000D03*
X142200000Y-117000000D03*
X154100000Y-106500000D03*
X153500000Y-102800000D03*
X140300000Y-124500000D03*
X131700000Y-119800000D03*
X155500000Y-104700000D03*
X165100000Y-70500000D03*
X136200000Y-119300000D03*
X149500000Y-75700000D03*
X126700000Y-93100000D03*
X114900000Y-78300000D03*
X151300000Y-109900000D03*
X155700000Y-102800000D03*
X152300000Y-102800000D03*
X153700000Y-93200000D03*
X152200000Y-110800000D03*
X164400000Y-61400000D03*
X146600000Y-107300000D03*
X121500000Y-64000000D03*
X127162014Y-85049014D03*
D22*
X123956750Y-62000000D03*
D21*
X165100000Y-102600000D03*
X144000000Y-63000000D03*
X139400000Y-54600000D03*
X140700000Y-63000000D03*
X119500000Y-105200000D03*
D22*
X133100000Y-65900000D03*
X121800000Y-68500000D03*
D21*
X136200000Y-120300000D03*
D22*
X133700000Y-66400000D03*
D21*
X158300000Y-127800000D03*
X131200000Y-102000000D03*
X149600000Y-124500000D03*
X127600000Y-105700000D03*
X165100000Y-65500000D03*
X165100000Y-98600000D03*
X141700000Y-121900000D03*
X142408500Y-103514000D03*
X117400000Y-86000000D03*
X153600000Y-122000000D03*
X148900000Y-107400000D03*
X149400000Y-72400000D03*
X152800000Y-106400000D03*
X165100000Y-79200000D03*
D22*
X132000000Y-69900000D03*
X120200000Y-71400000D03*
D21*
X164900000Y-83300000D03*
X147300000Y-92200000D03*
X120500000Y-98300000D03*
X135300000Y-60900000D03*
D22*
X140000000Y-95600000D03*
D21*
%TO.N,AGND*%
X148500000Y-91300000D03*
X130408500Y-104914000D03*
X145900000Y-88300000D03*
X139795000Y-87405000D03*
X130408500Y-107314000D03*
X145900000Y-81600000D03*
%TO.N,+24V*%
X133100000Y-85300000D03*
D22*
X123700000Y-72800000D03*
D21*
X133100000Y-94000000D03*
X155250000Y-115850000D03*
D22*
X133056500Y-77500000D03*
D21*
%TO.N,/CAN_L*%
X134408500Y-108314000D03*
%TO.N,/~{SMBALERT}*%
X132000000Y-105900000D03*
X135800000Y-103414997D03*
%TO.N,/FAN1_TACH*%
X142083499Y-106500000D03*
%TO.N,/CAN_H*%
X135248500Y-108514000D03*
%TO.N,/FAN2_TACH*%
X144283499Y-106500000D03*
%TO.N,/FAN1_PWM*%
X140611250Y-106411250D03*
%TO.N,/FAN2_PWM*%
X143300000Y-106500000D03*
%TO.N,/FAN_SCL*%
X124000000Y-113200000D03*
X123900000Y-111700000D03*
X136917266Y-103131263D03*
X132381058Y-104689972D03*
%TO.N,/FAN_SDA*%
X137567266Y-102481263D03*
X132384235Y-103589735D03*
X124900000Y-113200000D03*
X124900000Y-111065000D03*
%TO.N,VDDA*%
X129608500Y-105514000D03*
X139597500Y-90356000D03*
X133875000Y-90667000D03*
X129659765Y-108011265D03*
%TO.N,/TEMP1*%
X131248497Y-112100000D03*
X129007500Y-99300000D03*
%TO.N,/TEMP2*%
X141200000Y-80156000D03*
X132100000Y-112700000D03*
X126500000Y-106300000D03*
D22*
%TO.N,+12V*%
X156200000Y-118400000D03*
D21*
X131700000Y-78600000D03*
X134900000Y-78500000D03*
D22*
X155100000Y-113800000D03*
D21*
%TO.N,/PUMP_TACH*%
X156500000Y-78800000D03*
%TO.N,/FLOW1*%
X138266735Y-99033265D03*
D22*
X136900000Y-110100000D03*
X136900000Y-108000000D03*
D21*
X139800000Y-98400000D03*
X135975735Y-116875735D03*
%TO.N,/FLOW2*%
X130474265Y-115725735D03*
X145500000Y-96348500D03*
X130448500Y-111600000D03*
%TO.N,/FAN_CHIP*%
X132048500Y-111348500D03*
X133448500Y-116100000D03*
%TO.N,/FLOW_LED*%
X133700000Y-111900000D03*
X134000000Y-117000000D03*
D22*
%TO.N,Net-(IC1-GATE)*%
X135300000Y-70597000D03*
X137121000Y-68300000D03*
%TO.N,Net-(IC2-GATE)*%
X124328500Y-88200000D03*
X124328500Y-86400000D03*
D21*
%TO.N,/FLOW1_SIG*%
X147022874Y-101463799D03*
%TO.N,/FLOW2_SIG*%
X147400000Y-100758266D03*
%TO.N,/TACH_PSOM*%
X135400000Y-112200000D03*
X154020257Y-78244363D03*
%TO.N,/PWM_PSOM*%
X151699000Y-74901000D03*
X132848500Y-106548500D03*
%TO.N,/Fans+Pump/PUMP_PWM_CHIP*%
X145500000Y-104497000D03*
X160100000Y-73300000D03*
%TO.N,/Fans+Pump/PUMP_TACH_CHIP*%
X154600000Y-73400000D03*
X145100000Y-103800000D03*
%TO.N,Net-(U2A--)*%
X135421235Y-85678765D03*
X136500000Y-84900000D03*
%TO.N,/TEMP_IN1*%
X155400000Y-93900000D03*
X141008500Y-87250000D03*
X146200000Y-90100000D03*
%TO.N,/TEMP_IN2*%
X158000000Y-95400000D03*
%TD*%
D23*
%TO.N,/TEMP1*%
X129007500Y-87215000D02*
X134761250Y-81461250D01*
X135147000Y-81075500D02*
X134761250Y-81461250D01*
X138875500Y-81075500D02*
X135147000Y-81075500D01*
%TO.N,/TEMP2*%
X141200000Y-80156000D02*
X135216558Y-80156000D01*
X135216558Y-80156000D02*
X128200000Y-87172557D01*
X128200000Y-87172557D02*
X128200000Y-111700000D01*
D24*
%TO.N,+12V*%
X131700000Y-78600000D02*
X131800000Y-78500000D01*
X131800000Y-78500000D02*
X134900000Y-78500000D01*
D23*
%TO.N,+3.3V*%
X129600000Y-111300000D02*
X129607500Y-111300000D01*
X147574265Y-93792835D02*
X152300000Y-89067100D01*
X135100000Y-105250000D02*
X135050000Y-105250000D01*
X147574265Y-94074265D02*
X147574265Y-93792835D01*
X129600000Y-110700000D02*
X129600000Y-111300000D01*
X152300000Y-89067100D02*
X152300000Y-81100000D01*
X135050000Y-105250000D02*
X129600000Y-110700000D01*
%TO.N,GND*%
X138250000Y-95600000D02*
X133050000Y-100800000D01*
X140000000Y-95600000D02*
X138250000Y-95600000D01*
X151000000Y-97500000D02*
X151600000Y-98100000D01*
X138157701Y-107764799D02*
X138157701Y-108200000D01*
X127162014Y-85049014D02*
X125900000Y-86311028D01*
X151600000Y-98100000D02*
X152975000Y-98100000D01*
X142408500Y-103514000D02*
X138157701Y-107764799D01*
X125900000Y-86311028D02*
X125900000Y-90137000D01*
%TO.N,AGND*%
X140551000Y-86649000D02*
X144249000Y-86649000D01*
X130408500Y-107314000D02*
X130408500Y-104914000D01*
X144249000Y-86649000D02*
X145900000Y-88300000D01*
X148500000Y-91300000D02*
X148500000Y-91100000D01*
X145900000Y-88500000D02*
X145900000Y-88300000D01*
X145900000Y-81600000D02*
X145900000Y-88300000D01*
X139795000Y-87405000D02*
X140551000Y-86649000D01*
X148500000Y-91100000D02*
X145900000Y-88500000D01*
D24*
%TO.N,+24V*%
X128476000Y-77576000D02*
X123700000Y-72800000D01*
X155250000Y-115850000D02*
X155075000Y-115850000D01*
D25*
X132980500Y-77576000D02*
X133056500Y-77500000D01*
D24*
X155075000Y-115850000D02*
X152800000Y-113575000D01*
D25*
X128476000Y-77576000D02*
X132980500Y-77576000D01*
X133100000Y-94000000D02*
X133100000Y-85300000D01*
D23*
%TO.N,/CAN_L*%
X134408500Y-108314000D02*
X152900000Y-89822500D01*
X152900000Y-89822500D02*
X152900000Y-67202872D01*
X156102872Y-64000000D02*
X157608500Y-64000000D01*
X152900000Y-67202872D02*
X156102872Y-64000000D01*
%TO.N,/~{SMBALERT}*%
X132200000Y-105800000D02*
X132100000Y-105800000D01*
X134585003Y-103414997D02*
X132200000Y-105800000D01*
X132100000Y-105800000D02*
X132000000Y-105900000D01*
X135800000Y-103414997D02*
X134585003Y-103414997D01*
%TO.N,/FAN1_TACH*%
X140600000Y-107983499D02*
X142083499Y-106500000D01*
X156464000Y-112164000D02*
X149798000Y-105498000D01*
X142083499Y-106500000D02*
X143085498Y-105498000D01*
X140600000Y-113800000D02*
X140600000Y-107983499D01*
X135300000Y-119100000D02*
X140600000Y-113800000D01*
X130142500Y-119100000D02*
X135300000Y-119100000D01*
X157608500Y-112164000D02*
X156464000Y-112164000D01*
X149798000Y-105498000D02*
X143085498Y-105498000D01*
X129528500Y-119714000D02*
X130142500Y-119100000D01*
%TO.N,/CAN_H*%
X153300000Y-87602000D02*
X153300000Y-90000000D01*
X157608500Y-66500000D02*
X156050000Y-66500000D01*
X135248500Y-108051500D02*
X135248500Y-108514000D01*
X153301000Y-87601000D02*
X153300000Y-87602000D01*
X153300000Y-90000000D02*
X135248500Y-108051500D01*
X153301000Y-69249000D02*
X153301000Y-87601000D01*
X156050000Y-66500000D02*
X153301000Y-69249000D01*
%TO.N,/FAN2_TACH*%
X144483499Y-106300000D02*
X144283499Y-106500000D01*
X149244500Y-106300000D02*
X144483499Y-106300000D01*
X149244500Y-106300000D02*
X157608500Y-114664000D01*
%TO.N,/PUMP_PWM*%
X162800000Y-88005500D02*
X160108500Y-85314000D01*
X155783000Y-123317000D02*
X162800000Y-116300000D01*
X122971500Y-123317000D02*
X155783000Y-123317000D01*
X162800000Y-116300000D02*
X162800000Y-88005500D01*
X121908500Y-122254000D02*
X122971500Y-123317000D01*
%TO.N,/FAN1_PWM*%
X128051500Y-118651000D02*
X135049000Y-118651000D01*
X155682100Y-110815000D02*
X149964100Y-105097000D01*
X140199000Y-113501000D02*
X140199000Y-106823500D01*
X140199000Y-106823500D02*
X140611250Y-106411250D01*
X140611250Y-106411250D02*
X141925500Y-105097000D01*
X126988500Y-119714000D02*
X128051500Y-118651000D01*
X149964100Y-105097000D02*
X141925500Y-105097000D01*
X158759500Y-110815000D02*
X155682100Y-110815000D01*
X135049000Y-118651000D02*
X140199000Y-113501000D01*
X160108500Y-112164000D02*
X158759500Y-110815000D01*
%TO.N,/FAN2_PWM*%
X160108500Y-114664000D02*
X158957500Y-113513000D01*
X149410600Y-105899000D02*
X143901000Y-105899000D01*
X157024600Y-113513000D02*
X149410600Y-105899000D01*
X143300000Y-106500000D02*
X143901000Y-105899000D01*
X158957500Y-113513000D02*
X157024600Y-113513000D01*
%TO.N,/FAN_SCL*%
X136917266Y-103131263D02*
X136601000Y-102814997D01*
X124000000Y-113200000D02*
X124000000Y-111800000D01*
X134256033Y-102814997D02*
X132381058Y-104689972D01*
X124000000Y-111800000D02*
X123900000Y-111700000D01*
X136601000Y-102814997D02*
X134256033Y-102814997D01*
%TO.N,/FAN_SDA*%
X137567266Y-102481263D02*
X137500000Y-102413997D01*
X137500000Y-102413997D02*
X133559973Y-102413997D01*
X133559973Y-102413997D02*
X132384235Y-103589735D01*
X124900000Y-113200000D02*
X124900000Y-111065000D01*
%TO.N,VDDA*%
X138441500Y-91656000D02*
X139597500Y-90500000D01*
X133875000Y-90667000D02*
X133886000Y-90656000D01*
X135453500Y-91656000D02*
X138441500Y-91656000D01*
X129648500Y-108000000D02*
X129648500Y-105554000D01*
X139597500Y-90500000D02*
X139597500Y-90356000D01*
X129648500Y-105554000D02*
X129608500Y-105514000D01*
X134453500Y-90656000D02*
X135453500Y-91656000D01*
X133886000Y-90656000D02*
X134453500Y-90656000D01*
X129659765Y-108011265D02*
X129648500Y-108000000D01*
%TO.N,/TEMP1*%
X131148497Y-112200000D02*
X131248497Y-112100000D01*
X129007500Y-99300000D02*
X129007500Y-111607500D01*
X129007500Y-99300000D02*
X129007500Y-87215000D01*
X129007500Y-111607500D02*
X129600000Y-112200000D01*
X129600000Y-112200000D02*
X131148497Y-112200000D01*
%TO.N,/TEMP2*%
X129100000Y-112700000D02*
X128200000Y-111800000D01*
X128200000Y-111800000D02*
X128200000Y-111700000D01*
X132100000Y-112700000D02*
X129100000Y-112700000D01*
X128200000Y-111700000D02*
X128200000Y-108000000D01*
X128200000Y-108000000D02*
X126500000Y-106300000D01*
%TO.N,+12V*%
X156200000Y-118400000D02*
X156200000Y-114900000D01*
D24*
X157608500Y-82814000D02*
X158858500Y-84064000D01*
D23*
X156200000Y-114900000D02*
X155100000Y-113800000D01*
D24*
X158858500Y-100914000D02*
X157608500Y-102164000D01*
X157658500Y-98100000D02*
X158858500Y-96900000D01*
X157025000Y-98100000D02*
X157658500Y-98100000D01*
X158858500Y-96900000D02*
X158858500Y-100914000D01*
D26*
X158809500Y-100963000D02*
X157608500Y-102164000D01*
D24*
X158858500Y-84064000D02*
X158858500Y-96900000D01*
D23*
%TO.N,/PUMP_TACH*%
X120845500Y-122694310D02*
X120845500Y-120777000D01*
X120845500Y-120777000D02*
X121908500Y-119714000D01*
X155700000Y-79600000D02*
X155700000Y-83405500D01*
X163300000Y-116600000D02*
X156182000Y-123718000D01*
X163300000Y-84377740D02*
X163300000Y-116600000D01*
X156500000Y-78800000D02*
X155700000Y-79600000D01*
X155700000Y-83405500D02*
X157608500Y-85314000D01*
X157722260Y-78800000D02*
X163300000Y-84377740D01*
X121869190Y-123718000D02*
X120845500Y-122694310D01*
X156182000Y-123718000D02*
X121869190Y-123718000D01*
X156500000Y-78800000D02*
X157722260Y-78800000D01*
%TO.N,/FLOW1*%
X136900000Y-110100000D02*
X136900000Y-108000000D01*
X125912500Y-118250000D02*
X134650000Y-118250000D01*
X139800000Y-98400000D02*
X138900000Y-98400000D01*
X136000000Y-116900000D02*
X135975735Y-116875735D01*
X134650000Y-118250000D02*
X136000000Y-116900000D01*
X138900000Y-98400000D02*
X138266735Y-99033265D01*
X124448500Y-119714000D02*
X125912500Y-118250000D01*
%TO.N,/FLOW2*%
X130448500Y-111600000D02*
X130448500Y-111400000D01*
X128663365Y-115725735D02*
X128589100Y-115800000D01*
X130474265Y-115725735D02*
X128663365Y-115725735D01*
X130448500Y-111400000D02*
X145500000Y-96348500D01*
%TO.N,/FAN_CHIP*%
X133448500Y-112748500D02*
X133448500Y-116100000D01*
X132048500Y-111348500D02*
X133448500Y-112748500D01*
%TO.N,/FLOW_LED*%
X134000000Y-117000000D02*
X134049500Y-116950500D01*
X134049500Y-112249500D02*
X133700000Y-111900000D01*
X134049500Y-116950500D02*
X134049500Y-112249500D01*
%TO.N,Net-(IC1-GATE)*%
X135121000Y-68300000D02*
X137121000Y-68300000D01*
X134700000Y-70221000D02*
X134700000Y-68721000D01*
X134700000Y-68721000D02*
X135121000Y-68300000D01*
X135300000Y-70821000D02*
X134700000Y-70221000D01*
%TO.N,Net-(IC2-GATE)*%
X124328500Y-86400000D02*
X124328500Y-88200000D01*
%TO.N,/FLOW1_SIG*%
X147022874Y-101522874D02*
X149500000Y-104000000D01*
X147022874Y-101463799D02*
X147022874Y-101522874D01*
X156944500Y-104000000D02*
X157608500Y-104664000D01*
X149500000Y-104000000D02*
X156944500Y-104000000D01*
%TO.N,/FLOW2_SIG*%
X147400000Y-100758266D02*
X147500000Y-100858266D01*
X147500000Y-100858266D02*
X147500000Y-101100000D01*
X147500000Y-101100000D02*
X149913000Y-103513000D01*
X158957500Y-103513000D02*
X160108500Y-104664000D01*
X149913000Y-103513000D02*
X158957500Y-103513000D01*
%TO.N,/TACH_PSOM*%
X154020257Y-79580743D02*
X153800000Y-79801000D01*
X153800000Y-79801000D02*
X153800000Y-90067100D01*
X154020257Y-78244363D02*
X154020257Y-79580743D01*
X135849500Y-108017600D02*
X135849500Y-111750500D01*
X135849500Y-111750500D02*
X135400000Y-112200000D01*
X153800000Y-90067100D02*
X135849500Y-108017600D01*
%TO.N,/PWM_PSOM*%
X151699000Y-89101000D02*
X151699000Y-74901000D01*
X139600000Y-101200000D02*
X151699000Y-89101000D01*
X139600000Y-101200000D02*
X139300000Y-100900000D01*
X139300000Y-100900000D02*
X137989100Y-100900000D01*
X139600000Y-101200000D02*
X139600000Y-101298472D01*
X139600000Y-101298472D02*
X136882475Y-104015997D01*
X136882475Y-104015997D02*
X135381003Y-104015997D01*
X135381003Y-104015997D02*
X132848500Y-106548500D01*
%TO.N,/Fans+Pump/PUMP_PWM_CHIP*%
X155267500Y-90112382D02*
X155267500Y-78032500D01*
X160100000Y-73200000D02*
X160100000Y-73300000D01*
X145701000Y-99678882D02*
X155267500Y-90112382D01*
X145701000Y-104296000D02*
X145701000Y-99678882D01*
X145500000Y-104497000D02*
X145701000Y-104296000D01*
X155267500Y-78032500D02*
X160100000Y-73200000D01*
%TO.N,/Fans+Pump/PUMP_TACH_CHIP*%
X154600000Y-90212782D02*
X145100000Y-99712782D01*
X154621257Y-78493306D02*
X154600000Y-78514563D01*
X154600000Y-77974163D02*
X154621257Y-77995420D01*
X154600000Y-78514563D02*
X154600000Y-90212782D01*
X154621257Y-77995420D02*
X154621257Y-78493306D01*
X154600000Y-73400000D02*
X154600000Y-77974163D01*
X145100000Y-99712782D02*
X145100000Y-103800000D01*
%TO.N,Net-(U2A--)*%
X136200000Y-84900000D02*
X136500000Y-84900000D01*
X135421235Y-85678765D02*
X136200000Y-84900000D01*
%TO.N,/TEMP_IN1*%
X155900000Y-91455400D02*
X155900000Y-89522500D01*
X155400000Y-93900000D02*
X155799000Y-93501000D01*
X146000000Y-90300000D02*
X144200000Y-90300000D01*
X141150000Y-87250000D02*
X141008500Y-87250000D01*
X155900000Y-89522500D02*
X157608500Y-87814000D01*
X155799000Y-93501000D02*
X155799000Y-91556400D01*
X144200000Y-90300000D02*
X141150000Y-87250000D01*
X146200000Y-90100000D02*
X146000000Y-90300000D01*
X155799000Y-91556400D02*
X155900000Y-91455400D01*
%TO.N,/TEMP_IN2*%
X156200000Y-93600000D02*
X156200000Y-91722500D01*
X156200000Y-91722500D02*
X157608500Y-90314000D01*
X158000000Y-95400000D02*
X156200000Y-93600000D01*
%TO.N,/TACH_PSOM*%
X138560900Y-113400000D02*
X138660900Y-113300000D01*
X135849500Y-111750500D02*
X137499000Y-113400000D01*
X137499000Y-113400000D02*
X138560900Y-113400000D01*
%TD*%
%TA.AperFunction,Conductor*%
%TO.N,GND*%
G36*
X161664203Y-87719384D02*
G01*
X161670681Y-87725416D01*
X162163181Y-88217916D01*
X162196666Y-88279239D01*
X162199500Y-88305597D01*
X162199500Y-115999902D01*
X162179815Y-116066941D01*
X162163181Y-116087583D01*
X155570584Y-122680181D01*
X155509261Y-122713666D01*
X155482903Y-122716500D01*
X130876367Y-122716500D01*
X130809328Y-122696815D01*
X130763573Y-122644011D01*
X130753629Y-122574853D01*
X130758437Y-122554179D01*
X130759913Y-122549636D01*
X130791000Y-122353360D01*
X130791000Y-122154639D01*
X130759931Y-121958479D01*
X130759913Y-121958364D01*
X130698505Y-121769368D01*
X130698505Y-121769367D01*
X130608286Y-121592305D01*
X130581388Y-121555283D01*
X130491481Y-121431536D01*
X130350964Y-121291019D01*
X130190194Y-121174213D01*
X130033718Y-121094484D01*
X129982923Y-121046510D01*
X129966128Y-120978689D01*
X129988665Y-120912554D01*
X130033718Y-120873515D01*
X130190194Y-120793787D01*
X130350964Y-120676981D01*
X130491481Y-120536464D01*
X130608287Y-120375694D01*
X130698505Y-120198632D01*
X130759913Y-120009636D01*
X130791000Y-119813361D01*
X130791000Y-119813359D01*
X130791762Y-119808549D01*
X130793176Y-119808773D01*
X130815766Y-119749491D01*
X130871994Y-119708015D01*
X130914506Y-119700500D01*
X135213331Y-119700500D01*
X135213347Y-119700501D01*
X135220943Y-119700501D01*
X135379054Y-119700501D01*
X135379057Y-119700501D01*
X135531785Y-119659577D01*
X135609564Y-119614671D01*
X135668716Y-119580520D01*
X135780520Y-119468716D01*
X135780520Y-119468714D01*
X135790724Y-119458511D01*
X135790728Y-119458506D01*
X136591390Y-118657844D01*
X151465000Y-118657844D01*
X151471401Y-118717372D01*
X151471403Y-118717379D01*
X151521645Y-118852086D01*
X151521649Y-118852093D01*
X151607809Y-118967187D01*
X151607812Y-118967190D01*
X151722906Y-119053350D01*
X151722913Y-119053354D01*
X151857620Y-119103596D01*
X151857627Y-119103598D01*
X151917155Y-119109999D01*
X151917172Y-119110000D01*
X152550000Y-119110000D01*
X153050000Y-119110000D01*
X153682828Y-119110000D01*
X153682844Y-119109999D01*
X153742372Y-119103598D01*
X153742379Y-119103596D01*
X153877086Y-119053354D01*
X153877093Y-119053350D01*
X153992187Y-118967190D01*
X153992190Y-118967187D01*
X154078350Y-118852093D01*
X154078354Y-118852086D01*
X154128596Y-118717379D01*
X154128598Y-118717372D01*
X154134999Y-118657844D01*
X154135000Y-118657827D01*
X154135000Y-117875000D01*
X153050000Y-117875000D01*
X153050000Y-119110000D01*
X152550000Y-119110000D01*
X152550000Y-117875000D01*
X151465000Y-117875000D01*
X151465000Y-118657844D01*
X136591390Y-118657844D01*
X138657079Y-116592155D01*
X151465000Y-116592155D01*
X151465000Y-117375000D01*
X152550000Y-117375000D01*
X153050000Y-117375000D01*
X154135000Y-117375000D01*
X154135000Y-116592172D01*
X154134999Y-116592155D01*
X154128598Y-116532627D01*
X154128596Y-116532620D01*
X154078354Y-116397913D01*
X154078350Y-116397906D01*
X153992190Y-116282812D01*
X153992187Y-116282809D01*
X153877093Y-116196649D01*
X153877086Y-116196645D01*
X153742379Y-116146403D01*
X153742372Y-116146401D01*
X153682844Y-116140000D01*
X153050000Y-116140000D01*
X153050000Y-117375000D01*
X152550000Y-117375000D01*
X152550000Y-116140000D01*
X151917155Y-116140000D01*
X151857627Y-116146401D01*
X151857620Y-116146403D01*
X151722913Y-116196645D01*
X151722906Y-116196649D01*
X151607812Y-116282809D01*
X151607809Y-116282812D01*
X151521649Y-116397906D01*
X151521645Y-116397913D01*
X151471403Y-116532620D01*
X151471401Y-116532627D01*
X151465000Y-116592155D01*
X138657079Y-116592155D01*
X140968713Y-114280521D01*
X140968716Y-114280520D01*
X141026622Y-114222614D01*
X141078816Y-114194115D01*
X141087943Y-114189131D01*
X141087944Y-114189131D01*
X141087946Y-114189130D01*
X141128806Y-114192053D01*
X141157635Y-114194115D01*
X141188613Y-114211031D01*
X141225510Y-114238652D01*
X141225513Y-114238654D01*
X141360220Y-114288896D01*
X141360227Y-114288898D01*
X141419755Y-114295299D01*
X141419772Y-114295300D01*
X141789100Y-114295300D01*
X142289100Y-114295300D01*
X142658428Y-114295300D01*
X142658444Y-114295299D01*
X142717972Y-114288898D01*
X142717979Y-114288896D01*
X142852686Y-114238654D01*
X142852693Y-114238650D01*
X142967787Y-114152490D01*
X142967790Y-114152487D01*
X143053950Y-114037393D01*
X143053954Y-114037386D01*
X143104196Y-113902679D01*
X143104198Y-113902672D01*
X143110599Y-113843144D01*
X143110600Y-113843127D01*
X143110600Y-113550000D01*
X142289100Y-113550000D01*
X142289100Y-114295300D01*
X141789100Y-114295300D01*
X141789100Y-113050000D01*
X142289100Y-113050000D01*
X143110600Y-113050000D01*
X143110600Y-112756872D01*
X143110599Y-112756855D01*
X143104198Y-112697327D01*
X143104196Y-112697320D01*
X143053954Y-112562613D01*
X143053950Y-112562606D01*
X142967790Y-112447512D01*
X142967787Y-112447509D01*
X142852693Y-112361349D01*
X142852686Y-112361345D01*
X142717979Y-112311103D01*
X142717972Y-112311101D01*
X142658444Y-112304700D01*
X142289100Y-112304700D01*
X142289100Y-113050000D01*
X141789100Y-113050000D01*
X141789100Y-112304700D01*
X141419755Y-112304700D01*
X141360227Y-112311101D01*
X141353008Y-112312807D01*
X141283238Y-112309062D01*
X141226569Y-112268191D01*
X141200993Y-112203171D01*
X141200500Y-112192128D01*
X141200500Y-111832206D01*
X143718000Y-111832206D01*
X143718000Y-112195794D01*
X143719428Y-112210289D01*
X143753637Y-112557630D01*
X143824564Y-112914212D01*
X143824567Y-112914223D01*
X143930114Y-113262165D01*
X144069254Y-113598078D01*
X144069256Y-113598083D01*
X144240640Y-113918720D01*
X144240651Y-113918738D01*
X144442640Y-114221035D01*
X144442650Y-114221049D01*
X144673307Y-114502106D01*
X144930393Y-114759192D01*
X144930398Y-114759196D01*
X144930399Y-114759197D01*
X145211456Y-114989854D01*
X145513768Y-115191853D01*
X145513777Y-115191858D01*
X145513779Y-115191859D01*
X145834416Y-115363243D01*
X145834418Y-115363243D01*
X145834424Y-115363247D01*
X146170336Y-115502386D01*
X146518267Y-115607930D01*
X146518273Y-115607931D01*
X146518276Y-115607932D01*
X146518287Y-115607935D01*
X146874869Y-115678862D01*
X147236706Y-115714500D01*
X147236709Y-115714500D01*
X147600291Y-115714500D01*
X147600294Y-115714500D01*
X147962131Y-115678862D01*
X148031545Y-115665054D01*
X148318712Y-115607935D01*
X148318723Y-115607932D01*
X148318723Y-115607931D01*
X148318733Y-115607930D01*
X148666664Y-115502386D01*
X149002576Y-115363247D01*
X149323232Y-115191853D01*
X149625544Y-114989854D01*
X149906601Y-114759197D01*
X150163697Y-114502101D01*
X150394354Y-114221044D01*
X150596353Y-113918732D01*
X150767747Y-113598076D01*
X150906886Y-113262164D01*
X151012430Y-112914233D01*
X151012432Y-112914223D01*
X151012435Y-112914212D01*
X151082372Y-112562606D01*
X151083362Y-112557631D01*
X151119000Y-112195794D01*
X151119000Y-111832206D01*
X151083362Y-111470369D01*
X151078151Y-111444172D01*
X151012435Y-111113787D01*
X151012432Y-111113776D01*
X151012431Y-111113773D01*
X151012430Y-111113767D01*
X150906886Y-110765836D01*
X150767747Y-110429924D01*
X150765498Y-110425717D01*
X150596359Y-110109279D01*
X150596358Y-110109277D01*
X150596353Y-110109268D01*
X150394354Y-109806956D01*
X150163697Y-109525899D01*
X150163696Y-109525898D01*
X150163692Y-109525893D01*
X149906606Y-109268807D01*
X149625549Y-109038150D01*
X149625548Y-109038149D01*
X149625544Y-109038146D01*
X149323232Y-108836147D01*
X149323227Y-108836144D01*
X149323220Y-108836140D01*
X149002583Y-108664756D01*
X149002578Y-108664754D01*
X148666665Y-108525614D01*
X148327495Y-108422728D01*
X148318733Y-108420070D01*
X148318732Y-108420069D01*
X148318723Y-108420067D01*
X148318712Y-108420064D01*
X147962130Y-108349137D01*
X147689611Y-108322296D01*
X147600294Y-108313500D01*
X147236706Y-108313500D01*
X147154179Y-108321628D01*
X146874869Y-108349137D01*
X146518287Y-108420064D01*
X146518276Y-108420067D01*
X146170334Y-108525614D01*
X145834421Y-108664754D01*
X145834416Y-108664756D01*
X145513779Y-108836140D01*
X145513761Y-108836151D01*
X145211464Y-109038140D01*
X145211450Y-109038150D01*
X144930393Y-109268807D01*
X144673307Y-109525893D01*
X144442650Y-109806950D01*
X144442640Y-109806964D01*
X144240651Y-110109261D01*
X144240640Y-110109279D01*
X144069256Y-110429916D01*
X144069254Y-110429921D01*
X143930114Y-110765834D01*
X143824567Y-111113776D01*
X143824564Y-111113787D01*
X143753637Y-111470369D01*
X143726438Y-111746532D01*
X143718000Y-111832206D01*
X141200500Y-111832206D01*
X141200500Y-108283596D01*
X141220185Y-108216557D01*
X141236819Y-108195915D01*
X141651652Y-107781082D01*
X142098161Y-107334572D01*
X142159482Y-107301089D01*
X142161649Y-107300638D01*
X142219584Y-107289113D01*
X142316996Y-107269737D01*
X142462678Y-107209394D01*
X142593788Y-107121789D01*
X142604066Y-107111509D01*
X142665387Y-107078024D01*
X142735079Y-107083006D01*
X142779433Y-107111511D01*
X142789708Y-107121787D01*
X142789711Y-107121789D01*
X142920814Y-107209390D01*
X142920827Y-107209397D01*
X143066498Y-107269735D01*
X143066503Y-107269737D01*
X143221153Y-107300499D01*
X143221156Y-107300500D01*
X143221158Y-107300500D01*
X143378844Y-107300500D01*
X143378845Y-107300499D01*
X143533497Y-107269737D01*
X143679179Y-107209394D01*
X143722857Y-107180208D01*
X143789533Y-107159330D01*
X143856913Y-107177814D01*
X143860639Y-107180208D01*
X143904313Y-107209390D01*
X143904326Y-107209397D01*
X144049997Y-107269735D01*
X144050002Y-107269737D01*
X144204652Y-107300499D01*
X144204655Y-107300500D01*
X144204657Y-107300500D01*
X144362343Y-107300500D01*
X144362344Y-107300499D01*
X144516996Y-107269737D01*
X144662678Y-107209394D01*
X144793788Y-107121789D01*
X144905288Y-107010289D01*
X144941824Y-106955610D01*
X144995436Y-106910804D01*
X145044926Y-106900500D01*
X148944403Y-106900500D01*
X149011442Y-106920185D01*
X149032084Y-106936819D01*
X154961034Y-112865769D01*
X154994519Y-112927092D01*
X154989535Y-112996784D01*
X154947663Y-113052717D01*
X154897549Y-113075066D01*
X154881096Y-113078339D01*
X154881082Y-113078343D01*
X154744511Y-113134912D01*
X154744498Y-113134919D01*
X154621584Y-113217048D01*
X154621580Y-113217051D01*
X154517051Y-113321580D01*
X154517048Y-113321584D01*
X154434919Y-113444498D01*
X154434912Y-113444511D01*
X154378343Y-113581082D01*
X154378159Y-113581691D01*
X154377975Y-113581970D01*
X154376011Y-113586714D01*
X154375111Y-113586341D01*
X154339860Y-113640129D01*
X154276047Y-113668584D01*
X154206980Y-113658022D01*
X154154588Y-113611796D01*
X154135499Y-113545693D01*
X154135499Y-112542129D01*
X154135498Y-112542123D01*
X154135497Y-112542116D01*
X154129091Y-112482517D01*
X154128241Y-112480239D01*
X154078797Y-112347671D01*
X154078795Y-112347668D01*
X154078792Y-112347664D01*
X153992546Y-112232454D01*
X153930688Y-112186147D01*
X153930685Y-112186144D01*
X153877335Y-112146206D01*
X153877328Y-112146202D01*
X153742482Y-112095908D01*
X153742483Y-112095908D01*
X153682883Y-112089501D01*
X153682881Y-112089500D01*
X153682873Y-112089500D01*
X153682864Y-112089500D01*
X151917129Y-112089500D01*
X151917123Y-112089501D01*
X151857516Y-112095908D01*
X151722671Y-112146202D01*
X151722664Y-112146206D01*
X151607455Y-112232452D01*
X151607452Y-112232455D01*
X151521206Y-112347664D01*
X151521202Y-112347671D01*
X151470908Y-112482517D01*
X151464902Y-112538384D01*
X151464501Y-112542123D01*
X151464500Y-112542135D01*
X151464500Y-114607870D01*
X151464501Y-114607876D01*
X151470908Y-114667483D01*
X151521202Y-114802328D01*
X151521206Y-114802335D01*
X151607452Y-114917544D01*
X151607455Y-114917547D01*
X151722664Y-115003793D01*
X151722671Y-115003797D01*
X151857517Y-115054091D01*
X151857516Y-115054091D01*
X151864444Y-115054835D01*
X151917127Y-115060500D01*
X153243480Y-115060499D01*
X153310519Y-115080184D01*
X153331161Y-115096818D01*
X154628451Y-116394109D01*
X154628452Y-116394110D01*
X154628455Y-116394112D01*
X154628457Y-116394114D01*
X154719500Y-116454946D01*
X154738289Y-116470367D01*
X154739711Y-116471789D01*
X154739714Y-116471791D01*
X154870814Y-116559390D01*
X154870827Y-116559397D01*
X155016498Y-116619735D01*
X155016503Y-116619737D01*
X155129658Y-116642245D01*
X155171153Y-116650499D01*
X155171156Y-116650500D01*
X155171158Y-116650500D01*
X155328844Y-116650500D01*
X155451308Y-116626140D01*
X155520900Y-116632367D01*
X155576077Y-116675230D01*
X155599322Y-116741120D01*
X155599500Y-116747757D01*
X155599500Y-117910232D01*
X155579815Y-117977271D01*
X155578603Y-117979122D01*
X155534914Y-118044508D01*
X155478343Y-118181082D01*
X155478340Y-118181092D01*
X155449500Y-118326079D01*
X155449500Y-118326082D01*
X155449500Y-118473918D01*
X155449500Y-118473920D01*
X155449499Y-118473920D01*
X155478340Y-118618907D01*
X155478343Y-118618917D01*
X155534912Y-118755488D01*
X155534919Y-118755501D01*
X155617048Y-118878415D01*
X155617051Y-118878419D01*
X155721580Y-118982948D01*
X155721584Y-118982951D01*
X155844498Y-119065080D01*
X155844511Y-119065087D01*
X155952942Y-119110000D01*
X155981087Y-119121658D01*
X155981091Y-119121658D01*
X155981092Y-119121659D01*
X156126079Y-119150500D01*
X156126082Y-119150500D01*
X156273920Y-119150500D01*
X156371462Y-119131096D01*
X156418913Y-119121658D01*
X156555495Y-119065084D01*
X156678416Y-118982951D01*
X156782951Y-118878416D01*
X156865084Y-118755495D01*
X156921658Y-118618913D01*
X156936469Y-118544457D01*
X156950500Y-118473920D01*
X156950500Y-118326079D01*
X156921659Y-118181092D01*
X156921658Y-118181091D01*
X156921658Y-118181087D01*
X156865084Y-118044505D01*
X156821396Y-117979121D01*
X156800520Y-117912444D01*
X156800500Y-117910232D01*
X156800500Y-115970354D01*
X156820185Y-115903315D01*
X156872989Y-115857560D01*
X156942147Y-115847616D01*
X156980792Y-115859868D01*
X157090088Y-115915557D01*
X157292257Y-115981246D01*
X157502213Y-116014500D01*
X157502214Y-116014500D01*
X157714786Y-116014500D01*
X157714787Y-116014500D01*
X157924743Y-115981246D01*
X158126912Y-115915557D01*
X158316316Y-115819051D01*
X158451511Y-115720827D01*
X158488286Y-115694109D01*
X158488288Y-115694106D01*
X158488292Y-115694104D01*
X158638604Y-115543792D01*
X158758183Y-115379204D01*
X158813511Y-115336540D01*
X158883124Y-115330561D01*
X158944920Y-115363166D01*
X158958813Y-115379199D01*
X159040940Y-115492238D01*
X159078396Y-115543792D01*
X159228713Y-115694109D01*
X159400679Y-115819048D01*
X159400681Y-115819049D01*
X159400684Y-115819051D01*
X159590088Y-115915557D01*
X159792257Y-115981246D01*
X160002213Y-116014500D01*
X160002214Y-116014500D01*
X160214786Y-116014500D01*
X160214787Y-116014500D01*
X160424743Y-115981246D01*
X160626912Y-115915557D01*
X160816316Y-115819051D01*
X160951511Y-115720827D01*
X160988286Y-115694109D01*
X160988288Y-115694106D01*
X160988292Y-115694104D01*
X161138604Y-115543792D01*
X161138606Y-115543788D01*
X161138609Y-115543786D01*
X161263548Y-115371820D01*
X161263547Y-115371820D01*
X161263551Y-115371816D01*
X161360057Y-115182412D01*
X161425746Y-114980243D01*
X161459000Y-114770287D01*
X161459000Y-114557713D01*
X161425746Y-114347757D01*
X161360057Y-114145588D01*
X161263551Y-113956184D01*
X161263549Y-113956181D01*
X161263548Y-113956179D01*
X161138609Y-113784213D01*
X160988292Y-113633896D01*
X160938992Y-113598078D01*
X160823704Y-113514316D01*
X160781040Y-113458989D01*
X160775061Y-113389376D01*
X160807666Y-113327580D01*
X160823699Y-113313686D01*
X160988292Y-113194104D01*
X161138604Y-113043792D01*
X161138606Y-113043788D01*
X161138609Y-113043786D01*
X161263548Y-112871820D01*
X161263547Y-112871820D01*
X161263551Y-112871816D01*
X161360057Y-112682412D01*
X161425746Y-112480243D01*
X161459000Y-112270287D01*
X161459000Y-112057713D01*
X161425746Y-111847757D01*
X161360057Y-111645588D01*
X161263551Y-111456184D01*
X161263549Y-111456181D01*
X161263548Y-111456179D01*
X161138609Y-111284213D01*
X160988290Y-111133894D01*
X160988285Y-111133890D01*
X160823281Y-111014008D01*
X160780615Y-110958678D01*
X160774636Y-110889065D01*
X160807241Y-110827270D01*
X160823281Y-110813372D01*
X160870216Y-110779271D01*
X160870217Y-110779270D01*
X160319558Y-110228612D01*
X160340091Y-110223111D01*
X160476908Y-110144119D01*
X160588619Y-110032408D01*
X160667611Y-109895591D01*
X160673112Y-109875058D01*
X161223770Y-110425717D01*
X161223770Y-110425716D01*
X161263122Y-110371554D01*
X161359595Y-110182217D01*
X161425257Y-109980130D01*
X161425257Y-109980127D01*
X161458500Y-109770246D01*
X161458500Y-109557753D01*
X161425257Y-109347872D01*
X161425257Y-109347869D01*
X161359595Y-109145782D01*
X161263124Y-108956449D01*
X161223770Y-108902282D01*
X161223769Y-108902282D01*
X160673112Y-109452940D01*
X160667611Y-109432409D01*
X160588619Y-109295592D01*
X160476908Y-109183881D01*
X160340091Y-109104889D01*
X160319558Y-109099387D01*
X160870216Y-108548728D01*
X160822855Y-108514319D01*
X160780189Y-108458989D01*
X160774210Y-108389376D01*
X160806815Y-108327580D01*
X160822854Y-108313682D01*
X160870216Y-108279270D01*
X160870217Y-108279270D01*
X160319558Y-107728612D01*
X160340091Y-107723111D01*
X160476908Y-107644119D01*
X160588619Y-107532408D01*
X160667611Y-107395591D01*
X160673112Y-107375058D01*
X161223770Y-107925717D01*
X161223770Y-107925716D01*
X161263122Y-107871554D01*
X161359595Y-107682217D01*
X161425257Y-107480130D01*
X161425257Y-107480127D01*
X161458500Y-107270246D01*
X161458500Y-107057753D01*
X161425257Y-106847872D01*
X161425257Y-106847869D01*
X161359595Y-106645782D01*
X161263124Y-106456449D01*
X161223770Y-106402282D01*
X161223769Y-106402282D01*
X160673112Y-106952940D01*
X160667611Y-106932409D01*
X160588619Y-106795592D01*
X160476908Y-106683881D01*
X160340091Y-106604889D01*
X160319558Y-106599387D01*
X160870216Y-106048728D01*
X160823280Y-106014628D01*
X160780614Y-105959298D01*
X160774635Y-105889685D01*
X160807240Y-105827889D01*
X160823276Y-105813994D01*
X160988292Y-105694104D01*
X161138604Y-105543792D01*
X161138606Y-105543788D01*
X161138609Y-105543786D01*
X161263548Y-105371820D01*
X161263547Y-105371820D01*
X161263551Y-105371816D01*
X161360057Y-105182412D01*
X161425746Y-104980243D01*
X161459000Y-104770287D01*
X161459000Y-104557713D01*
X161425746Y-104347757D01*
X161360057Y-104145588D01*
X161263551Y-103956184D01*
X161263549Y-103956181D01*
X161263548Y-103956179D01*
X161138609Y-103784213D01*
X160988290Y-103633894D01*
X160988285Y-103633890D01*
X160823281Y-103514008D01*
X160780615Y-103458678D01*
X160774636Y-103389065D01*
X160807241Y-103327270D01*
X160823281Y-103313372D01*
X160870216Y-103279271D01*
X160870217Y-103279270D01*
X160319559Y-102728612D01*
X160340091Y-102723111D01*
X160476908Y-102644119D01*
X160588619Y-102532408D01*
X160667611Y-102395591D01*
X160673112Y-102375058D01*
X161223770Y-102925717D01*
X161223770Y-102925716D01*
X161263122Y-102871554D01*
X161359595Y-102682217D01*
X161425257Y-102480130D01*
X161425257Y-102480127D01*
X161458500Y-102270246D01*
X161458500Y-102057753D01*
X161425257Y-101847872D01*
X161425257Y-101847869D01*
X161359595Y-101645782D01*
X161263124Y-101456449D01*
X161223770Y-101402282D01*
X161223769Y-101402282D01*
X160673112Y-101952940D01*
X160667611Y-101932409D01*
X160588619Y-101795592D01*
X160476908Y-101683881D01*
X160340091Y-101604889D01*
X160319557Y-101599386D01*
X160870216Y-101048728D01*
X160816050Y-101009375D01*
X160626717Y-100912904D01*
X160424629Y-100847242D01*
X160214746Y-100814000D01*
X160002254Y-100814000D01*
X159792372Y-100847242D01*
X159792365Y-100847243D01*
X159721317Y-100870328D01*
X159651476Y-100872323D01*
X159591643Y-100836242D01*
X159560816Y-100773541D01*
X159559000Y-100752397D01*
X159559000Y-91726127D01*
X159578685Y-91659088D01*
X159631489Y-91613333D01*
X159700647Y-91603389D01*
X159721313Y-91608194D01*
X159792257Y-91631246D01*
X160002213Y-91664500D01*
X160002214Y-91664500D01*
X160214786Y-91664500D01*
X160214787Y-91664500D01*
X160424743Y-91631246D01*
X160626912Y-91565557D01*
X160816316Y-91469051D01*
X160895855Y-91411263D01*
X160988286Y-91344109D01*
X160988288Y-91344106D01*
X160988292Y-91344104D01*
X161138604Y-91193792D01*
X161138606Y-91193788D01*
X161138609Y-91193786D01*
X161263548Y-91021820D01*
X161263547Y-91021820D01*
X161263551Y-91021816D01*
X161360057Y-90832412D01*
X161425746Y-90630243D01*
X161459000Y-90420287D01*
X161459000Y-90207713D01*
X161425746Y-89997757D01*
X161360057Y-89795588D01*
X161263551Y-89606184D01*
X161263549Y-89606181D01*
X161263548Y-89606179D01*
X161138609Y-89434213D01*
X160988292Y-89283896D01*
X160823704Y-89164316D01*
X160781040Y-89108989D01*
X160775061Y-89039376D01*
X160807666Y-88977580D01*
X160823699Y-88963686D01*
X160988292Y-88844104D01*
X161138604Y-88693792D01*
X161138606Y-88693788D01*
X161138609Y-88693786D01*
X161263548Y-88521820D01*
X161263547Y-88521820D01*
X161263551Y-88521816D01*
X161360057Y-88332412D01*
X161425746Y-88130243D01*
X161459000Y-87920287D01*
X161459000Y-87813097D01*
X161478685Y-87746058D01*
X161531489Y-87700303D01*
X161600647Y-87690359D01*
X161664203Y-87719384D01*
G37*
%TD.AperFunction*%
%TA.AperFunction,Conductor*%
G36*
X144418834Y-100400015D02*
G01*
X144474767Y-100441887D01*
X144499184Y-100507351D01*
X144499500Y-100516197D01*
X144499500Y-103220234D01*
X144479815Y-103287273D01*
X144478602Y-103289125D01*
X144390609Y-103420814D01*
X144390602Y-103420827D01*
X144330264Y-103566498D01*
X144330261Y-103566510D01*
X144299500Y-103721153D01*
X144299500Y-103878846D01*
X144330261Y-104033489D01*
X144330264Y-104033501D01*
X144390602Y-104179172D01*
X144390609Y-104179185D01*
X144473747Y-104303609D01*
X144494625Y-104370287D01*
X144476140Y-104437667D01*
X144424162Y-104484357D01*
X144370645Y-104496500D01*
X142004557Y-104496500D01*
X141846443Y-104496500D01*
X141693715Y-104537423D01*
X141693714Y-104537423D01*
X141693712Y-104537424D01*
X141693709Y-104537425D01*
X141643596Y-104566359D01*
X141643595Y-104566360D01*
X141600189Y-104591420D01*
X141556785Y-104616479D01*
X141556782Y-104616481D01*
X140596589Y-105576675D01*
X140535266Y-105610160D01*
X140533100Y-105610611D01*
X140377758Y-105641511D01*
X140377748Y-105641514D01*
X140232077Y-105701852D01*
X140232064Y-105701859D01*
X140100961Y-105789460D01*
X140100957Y-105789463D01*
X139989463Y-105900957D01*
X139989460Y-105900961D01*
X139901859Y-106032064D01*
X139901852Y-106032077D01*
X139841514Y-106177748D01*
X139841511Y-106177758D01*
X139810612Y-106333098D01*
X139788194Y-106383308D01*
X139782906Y-106390357D01*
X139718480Y-106454784D01*
X139668360Y-106541595D01*
X139664638Y-106548040D01*
X139664633Y-106548048D01*
X139639425Y-106591709D01*
X139639424Y-106591710D01*
X139639423Y-106591715D01*
X139598499Y-106744443D01*
X139598499Y-106744445D01*
X139598499Y-106912546D01*
X139598500Y-106912559D01*
X139598500Y-112228473D01*
X139578815Y-112295512D01*
X139526011Y-112341267D01*
X139456853Y-112351211D01*
X139431167Y-112344655D01*
X139339882Y-112310608D01*
X139339883Y-112310608D01*
X139280283Y-112304201D01*
X139280281Y-112304200D01*
X139280273Y-112304200D01*
X139280264Y-112304200D01*
X138041529Y-112304200D01*
X138041523Y-112304201D01*
X137981916Y-112310608D01*
X137847071Y-112360902D01*
X137847064Y-112360906D01*
X137731855Y-112447152D01*
X137673566Y-112525015D01*
X137617631Y-112566886D01*
X137547940Y-112571869D01*
X137486619Y-112538384D01*
X136486319Y-111538084D01*
X136452834Y-111476761D01*
X136450000Y-111450403D01*
X136450000Y-110911517D01*
X136469685Y-110844478D01*
X136522489Y-110798723D01*
X136591647Y-110788779D01*
X136621445Y-110796953D01*
X136681087Y-110821658D01*
X136681091Y-110821658D01*
X136681092Y-110821659D01*
X136826079Y-110850500D01*
X136826082Y-110850500D01*
X136973920Y-110850500D01*
X137071462Y-110831096D01*
X137118913Y-110821658D01*
X137253680Y-110765836D01*
X137255488Y-110765087D01*
X137255488Y-110765086D01*
X137255495Y-110765084D01*
X137378416Y-110682951D01*
X137482951Y-110578416D01*
X137565084Y-110455495D01*
X137568899Y-110446286D01*
X137621656Y-110318917D01*
X137621658Y-110318913D01*
X137643427Y-110209477D01*
X137650500Y-110173920D01*
X137650500Y-110026079D01*
X137621659Y-109881092D01*
X137621658Y-109881091D01*
X137621658Y-109881087D01*
X137565084Y-109744505D01*
X137521396Y-109679121D01*
X137500520Y-109612444D01*
X137500500Y-109610232D01*
X137500500Y-108489767D01*
X137520185Y-108422728D01*
X137521398Y-108420876D01*
X137565080Y-108355501D01*
X137565080Y-108355500D01*
X137565084Y-108355495D01*
X137566072Y-108353111D01*
X137582479Y-108313500D01*
X137621658Y-108218913D01*
X137644140Y-108105890D01*
X137650500Y-108073920D01*
X137650500Y-107926079D01*
X137621659Y-107781092D01*
X137621658Y-107781091D01*
X137621658Y-107781087D01*
X137594092Y-107714536D01*
X137565087Y-107644511D01*
X137565080Y-107644498D01*
X137482951Y-107521584D01*
X137482948Y-107521580D01*
X137426532Y-107465164D01*
X137393047Y-107403841D01*
X137398031Y-107334149D01*
X137426530Y-107289804D01*
X144287819Y-100428516D01*
X144349142Y-100395031D01*
X144418834Y-100400015D01*
G37*
%TD.AperFunction*%
%TA.AperFunction,Conductor*%
G36*
X156201039Y-104620185D02*
G01*
X156246794Y-104672989D01*
X156258000Y-104724500D01*
X156258000Y-104770286D01*
X156282260Y-104923461D01*
X156291254Y-104980243D01*
X156345691Y-105147783D01*
X156356944Y-105182414D01*
X156453451Y-105371820D01*
X156578390Y-105543786D01*
X156728709Y-105694105D01*
X156728714Y-105694109D01*
X156893293Y-105813682D01*
X156935959Y-105869011D01*
X156941938Y-105938625D01*
X156909333Y-106000420D01*
X156893293Y-106014318D01*
X156728714Y-106133890D01*
X156728709Y-106133894D01*
X156578390Y-106284213D01*
X156453451Y-106456179D01*
X156356944Y-106645585D01*
X156291253Y-106847760D01*
X156258000Y-107057713D01*
X156258000Y-107270287D01*
X156257999Y-107270287D01*
X156274305Y-107373238D01*
X156265350Y-107442531D01*
X156220353Y-107495983D01*
X156176024Y-107514252D01*
X156005840Y-107548104D01*
X156005832Y-107548106D01*
X155841959Y-107615983D01*
X155841946Y-107615990D01*
X155694465Y-107714535D01*
X155694461Y-107714538D01*
X155569038Y-107839961D01*
X155569035Y-107839965D01*
X155470490Y-107987446D01*
X155470483Y-107987459D01*
X155402606Y-108151332D01*
X155402603Y-108151341D01*
X155368000Y-108325304D01*
X155368000Y-108502695D01*
X155402603Y-108676658D01*
X155402606Y-108676667D01*
X155470483Y-108840540D01*
X155470490Y-108840553D01*
X155569035Y-108988034D01*
X155569038Y-108988038D01*
X155694461Y-109113461D01*
X155694465Y-109113464D01*
X155841946Y-109212009D01*
X155841959Y-109212016D01*
X155964863Y-109262923D01*
X156005834Y-109279894D01*
X156005836Y-109279894D01*
X156005841Y-109279896D01*
X156176023Y-109313747D01*
X156237934Y-109346132D01*
X156272508Y-109406847D01*
X156274306Y-109454761D01*
X156258000Y-109557713D01*
X156258000Y-109557718D01*
X156258000Y-109770286D01*
X156291235Y-109980127D01*
X156291254Y-109980243D01*
X156306147Y-110026079D01*
X156314629Y-110052182D01*
X156315432Y-110080301D01*
X156319436Y-110108147D01*
X156316416Y-110114758D01*
X156316624Y-110122023D01*
X156302097Y-110146112D01*
X156290411Y-110171703D01*
X156284297Y-110175632D01*
X156280544Y-110181856D01*
X156255297Y-110194268D01*
X156231633Y-110209477D01*
X156221362Y-110210953D01*
X156217843Y-110212684D01*
X156196698Y-110214500D01*
X155982197Y-110214500D01*
X155915158Y-110194815D01*
X155894516Y-110178181D01*
X150528516Y-104812181D01*
X150495031Y-104750858D01*
X150500015Y-104681166D01*
X150541887Y-104625233D01*
X150607351Y-104600816D01*
X150616197Y-104600500D01*
X156134000Y-104600500D01*
X156201039Y-104620185D01*
G37*
%TD.AperFunction*%
%TA.AperFunction,Conductor*%
G36*
X159549389Y-107395591D02*
G01*
X159628381Y-107532408D01*
X159740092Y-107644119D01*
X159876909Y-107723111D01*
X159897440Y-107728612D01*
X159372924Y-108253127D01*
X159429281Y-108353111D01*
X159431312Y-108361881D01*
X159436810Y-108369010D01*
X159439075Y-108395385D01*
X159445051Y-108421178D01*
X159442018Y-108429654D01*
X159442789Y-108438623D01*
X159430434Y-108462037D01*
X159421518Y-108486965D01*
X159414385Y-108492455D01*
X159410184Y-108500419D01*
X159394144Y-108514318D01*
X159346782Y-108548727D01*
X159346782Y-108548728D01*
X159897441Y-109099387D01*
X159876909Y-109104889D01*
X159740092Y-109183881D01*
X159628381Y-109295592D01*
X159549389Y-109432409D01*
X159543887Y-109452941D01*
X158993228Y-108902282D01*
X158993226Y-108902282D01*
X158959126Y-108949218D01*
X158903796Y-108991884D01*
X158834183Y-108997863D01*
X158772388Y-108965258D01*
X158758494Y-108949224D01*
X158638604Y-108784208D01*
X158488292Y-108633896D01*
X158323704Y-108514316D01*
X158281040Y-108458989D01*
X158275061Y-108389376D01*
X158307666Y-108327580D01*
X158323699Y-108313686D01*
X158488292Y-108194104D01*
X158638604Y-108043792D01*
X158758491Y-107878779D01*
X158813820Y-107836114D01*
X158883433Y-107830135D01*
X158945228Y-107862740D01*
X158959128Y-107878780D01*
X158993228Y-107925716D01*
X159543887Y-107375058D01*
X159549389Y-107395591D01*
G37*
%TD.AperFunction*%
%TA.AperFunction,Conductor*%
G36*
X158944920Y-105363166D02*
G01*
X158958813Y-105379199D01*
X159078396Y-105543792D01*
X159228708Y-105694104D01*
X159393719Y-105813991D01*
X159436384Y-105869319D01*
X159442363Y-105938932D01*
X159409758Y-106000728D01*
X159393718Y-106014626D01*
X159346782Y-106048726D01*
X159346782Y-106048728D01*
X159897441Y-106599387D01*
X159876909Y-106604889D01*
X159740092Y-106683881D01*
X159628381Y-106795592D01*
X159549389Y-106932409D01*
X159543887Y-106952941D01*
X158993228Y-106402282D01*
X158993226Y-106402282D01*
X158959126Y-106449218D01*
X158903796Y-106491884D01*
X158834183Y-106497863D01*
X158772388Y-106465258D01*
X158758494Y-106449224D01*
X158638604Y-106284208D01*
X158488292Y-106133896D01*
X158323704Y-106014316D01*
X158281040Y-105958989D01*
X158275061Y-105889376D01*
X158307666Y-105827580D01*
X158323699Y-105813686D01*
X158488292Y-105694104D01*
X158638604Y-105543792D01*
X158758183Y-105379204D01*
X158813511Y-105336540D01*
X158883124Y-105330561D01*
X158944920Y-105363166D01*
G37*
%TD.AperFunction*%
%TA.AperFunction,Conductor*%
G36*
X155166460Y-91165170D02*
G01*
X155222393Y-91207042D01*
X155246810Y-91272506D01*
X155239721Y-91316281D01*
X155241527Y-91316765D01*
X155239424Y-91324613D01*
X155239423Y-91324615D01*
X155198499Y-91477343D01*
X155198499Y-91477345D01*
X155198499Y-91645446D01*
X155198500Y-91645459D01*
X155198500Y-93034155D01*
X155178815Y-93101194D01*
X155126011Y-93146949D01*
X155121952Y-93148716D01*
X155020827Y-93190602D01*
X155020814Y-93190609D01*
X154889711Y-93278210D01*
X154889707Y-93278213D01*
X154778213Y-93389707D01*
X154778210Y-93389711D01*
X154690609Y-93520814D01*
X154690602Y-93520827D01*
X154630264Y-93666498D01*
X154630261Y-93666510D01*
X154599500Y-93821153D01*
X154599500Y-93978846D01*
X154630261Y-94133489D01*
X154630264Y-94133501D01*
X154690602Y-94279172D01*
X154690609Y-94279185D01*
X154778210Y-94410288D01*
X154778213Y-94410292D01*
X154889707Y-94521786D01*
X154889711Y-94521789D01*
X155020814Y-94609390D01*
X155020827Y-94609397D01*
X155166498Y-94669735D01*
X155166503Y-94669737D01*
X155298807Y-94696054D01*
X155321153Y-94700499D01*
X155321156Y-94700500D01*
X155321158Y-94700500D01*
X155478844Y-94700500D01*
X155478845Y-94700499D01*
X155633497Y-94669737D01*
X155779179Y-94609394D01*
X155910289Y-94521789D01*
X155955636Y-94476442D01*
X156003741Y-94428338D01*
X156065064Y-94394853D01*
X156134756Y-94399837D01*
X156179103Y-94428338D01*
X157165425Y-95414660D01*
X157198910Y-95475983D01*
X157199361Y-95478149D01*
X157230261Y-95633491D01*
X157230264Y-95633501D01*
X157290602Y-95779172D01*
X157290609Y-95779185D01*
X157378210Y-95910288D01*
X157378213Y-95910292D01*
X157489707Y-96021786D01*
X157489711Y-96021789D01*
X157620814Y-96109390D01*
X157620827Y-96109397D01*
X157766498Y-96169735D01*
X157766503Y-96169737D01*
X157921153Y-96200499D01*
X157921156Y-96200500D01*
X158034000Y-96200500D01*
X158042685Y-96203050D01*
X158051647Y-96201762D01*
X158075687Y-96212740D01*
X158101039Y-96220185D01*
X158106966Y-96227025D01*
X158115203Y-96230787D01*
X158129492Y-96253021D01*
X158146794Y-96272989D01*
X158149081Y-96283503D01*
X158152977Y-96289565D01*
X158158000Y-96324500D01*
X158158000Y-96558479D01*
X158138315Y-96625518D01*
X158121681Y-96646160D01*
X158039660Y-96728181D01*
X157978337Y-96761666D01*
X157951979Y-96764500D01*
X155992129Y-96764500D01*
X155992123Y-96764501D01*
X155932516Y-96770908D01*
X155797671Y-96821202D01*
X155797664Y-96821206D01*
X155682455Y-96907452D01*
X155682452Y-96907455D01*
X155596206Y-97022664D01*
X155596202Y-97022671D01*
X155545908Y-97157517D01*
X155539501Y-97217116D01*
X155539500Y-97217135D01*
X155539500Y-98982870D01*
X155539501Y-98982876D01*
X155545908Y-99042483D01*
X155596202Y-99177328D01*
X155596206Y-99177335D01*
X155682452Y-99292544D01*
X155682455Y-99292547D01*
X155797664Y-99378793D01*
X155797671Y-99378797D01*
X155932517Y-99429091D01*
X155932516Y-99429091D01*
X155939444Y-99429835D01*
X155992127Y-99435500D01*
X158034000Y-99435499D01*
X158101039Y-99455184D01*
X158146794Y-99507987D01*
X158158000Y-99559499D01*
X158158000Y-100572480D01*
X158149355Y-100601920D01*
X158142832Y-100631907D01*
X158139077Y-100636922D01*
X158138315Y-100639519D01*
X158121691Y-100660148D01*
X158121681Y-100660161D01*
X158004661Y-100777181D01*
X157943338Y-100810666D01*
X157916980Y-100813500D01*
X156958498Y-100813500D01*
X156958480Y-100813501D01*
X156855703Y-100824000D01*
X156855700Y-100824001D01*
X156689168Y-100879185D01*
X156689163Y-100879187D01*
X156539842Y-100971289D01*
X156415789Y-101095342D01*
X156323687Y-101244663D01*
X156323685Y-101244668D01*
X156295849Y-101328670D01*
X156268501Y-101411203D01*
X156268501Y-101411204D01*
X156268500Y-101411204D01*
X156258000Y-101513983D01*
X156258000Y-101513991D01*
X156258000Y-102163999D01*
X156258001Y-102788500D01*
X156238316Y-102855539D01*
X156185513Y-102901294D01*
X156134001Y-102912500D01*
X150213097Y-102912500D01*
X150146058Y-102892815D01*
X150125416Y-102876181D01*
X148228426Y-100979191D01*
X148194941Y-100917868D01*
X148194490Y-100867321D01*
X148200500Y-100837108D01*
X148200500Y-100679424D01*
X148200500Y-100679421D01*
X148200499Y-100679419D01*
X148169738Y-100524776D01*
X148169737Y-100524769D01*
X148162522Y-100507351D01*
X148109397Y-100379093D01*
X148109390Y-100379080D01*
X148021789Y-100247977D01*
X148021786Y-100247973D01*
X147910292Y-100136479D01*
X147910288Y-100136476D01*
X147779185Y-100048875D01*
X147779172Y-100048868D01*
X147633501Y-99988530D01*
X147633489Y-99988527D01*
X147478845Y-99957766D01*
X147478842Y-99957766D01*
X147321158Y-99957766D01*
X147321155Y-99957766D01*
X147166510Y-99988527D01*
X147166498Y-99988530D01*
X147020827Y-100048868D01*
X147020814Y-100048875D01*
X146889711Y-100136476D01*
X146889707Y-100136479D01*
X146778213Y-100247973D01*
X146778210Y-100247977D01*
X146690609Y-100379080D01*
X146690602Y-100379093D01*
X146630264Y-100524764D01*
X146630261Y-100524776D01*
X146599500Y-100679419D01*
X146599500Y-100717655D01*
X146597900Y-100723102D01*
X146599010Y-100728672D01*
X146588163Y-100756262D01*
X146579815Y-100784694D01*
X146574980Y-100789796D01*
X146573447Y-100793697D01*
X146555053Y-100810826D01*
X146548056Y-100818212D01*
X146546239Y-100819522D01*
X146512585Y-100842010D01*
X146506136Y-100848458D01*
X146498056Y-100854289D01*
X146474126Y-100862738D01*
X146451858Y-100874898D01*
X146441738Y-100874174D01*
X146432173Y-100877552D01*
X146407478Y-100871724D01*
X146382166Y-100869914D01*
X146374044Y-100863834D01*
X146364171Y-100861504D01*
X146346544Y-100843247D01*
X146326233Y-100828042D01*
X146322688Y-100818538D01*
X146315641Y-100811239D01*
X146310682Y-100786351D01*
X146301816Y-100762578D01*
X146301500Y-100753732D01*
X146301500Y-99978979D01*
X146321185Y-99911940D01*
X146337819Y-99891298D01*
X147246273Y-98982844D01*
X151490000Y-98982844D01*
X151496401Y-99042372D01*
X151496403Y-99042379D01*
X151546645Y-99177086D01*
X151546649Y-99177093D01*
X151632809Y-99292187D01*
X151632812Y-99292190D01*
X151747906Y-99378350D01*
X151747913Y-99378354D01*
X151882620Y-99428596D01*
X151882627Y-99428598D01*
X151942155Y-99434999D01*
X151942172Y-99435000D01*
X152725000Y-99435000D01*
X153225000Y-99435000D01*
X154007828Y-99435000D01*
X154007844Y-99434999D01*
X154067372Y-99428598D01*
X154067379Y-99428596D01*
X154202086Y-99378354D01*
X154202093Y-99378350D01*
X154317187Y-99292190D01*
X154317190Y-99292187D01*
X154403350Y-99177093D01*
X154403354Y-99177086D01*
X154453596Y-99042379D01*
X154453598Y-99042372D01*
X154459999Y-98982844D01*
X154460000Y-98982827D01*
X154460000Y-98350000D01*
X153225000Y-98350000D01*
X153225000Y-99435000D01*
X152725000Y-99435000D01*
X152725000Y-98350000D01*
X151490000Y-98350000D01*
X151490000Y-98982844D01*
X147246273Y-98982844D01*
X149011962Y-97217155D01*
X151490000Y-97217155D01*
X151490000Y-97850000D01*
X152725000Y-97850000D01*
X153225000Y-97850000D01*
X154460000Y-97850000D01*
X154460000Y-97217172D01*
X154459999Y-97217155D01*
X154453598Y-97157627D01*
X154453596Y-97157620D01*
X154403354Y-97022913D01*
X154403350Y-97022906D01*
X154317190Y-96907812D01*
X154317187Y-96907809D01*
X154202093Y-96821649D01*
X154202086Y-96821645D01*
X154067379Y-96771403D01*
X154067372Y-96771401D01*
X154007844Y-96765000D01*
X153225000Y-96765000D01*
X153225000Y-97850000D01*
X152725000Y-97850000D01*
X152725000Y-96765000D01*
X151942155Y-96765000D01*
X151882627Y-96771401D01*
X151882620Y-96771403D01*
X151747913Y-96821645D01*
X151747906Y-96821649D01*
X151632812Y-96907809D01*
X151632809Y-96907812D01*
X151546649Y-97022906D01*
X151546645Y-97022913D01*
X151496403Y-97157620D01*
X151496401Y-97157627D01*
X151490000Y-97217155D01*
X149011962Y-97217155D01*
X149102947Y-97126170D01*
X151995628Y-94233489D01*
X155035447Y-91193669D01*
X155096768Y-91160186D01*
X155166460Y-91165170D01*
G37*
%TD.AperFunction*%
%TA.AperFunction,Conductor*%
G36*
X161223770Y-83575717D02*
G01*
X161223770Y-83575716D01*
X161263124Y-83521552D01*
X161297519Y-83454047D01*
X161345492Y-83403251D01*
X161413313Y-83386455D01*
X161479448Y-83408992D01*
X161495685Y-83422660D01*
X162663181Y-84590156D01*
X162696666Y-84651479D01*
X162699500Y-84677837D01*
X162699500Y-86756402D01*
X162679815Y-86823441D01*
X162627011Y-86869196D01*
X162557853Y-86879140D01*
X162494297Y-86850115D01*
X162487819Y-86844083D01*
X161442257Y-85798522D01*
X161408772Y-85737199D01*
X161412007Y-85672523D01*
X161425746Y-85630243D01*
X161459000Y-85420287D01*
X161459000Y-85207713D01*
X161425746Y-84997757D01*
X161360057Y-84795588D01*
X161263551Y-84606184D01*
X161263549Y-84606181D01*
X161263548Y-84606179D01*
X161138609Y-84434213D01*
X160988290Y-84283894D01*
X160988285Y-84283890D01*
X160823281Y-84164008D01*
X160780615Y-84108678D01*
X160774636Y-84039065D01*
X160807241Y-83977270D01*
X160823281Y-83963372D01*
X160870216Y-83929271D01*
X160870217Y-83929270D01*
X160319558Y-83378612D01*
X160340091Y-83373111D01*
X160476908Y-83294119D01*
X160588619Y-83182408D01*
X160667611Y-83045591D01*
X160673112Y-83025058D01*
X161223770Y-83575717D01*
G37*
%TD.AperFunction*%
%TA.AperFunction,Conductor*%
G36*
X157489202Y-79420185D02*
G01*
X157509844Y-79436819D01*
X159499839Y-81426814D01*
X159533324Y-81488137D01*
X159528340Y-81557829D01*
X159486468Y-81613762D01*
X159468454Y-81624979D01*
X159400943Y-81659378D01*
X159400940Y-81659380D01*
X159346782Y-81698727D01*
X159346782Y-81698728D01*
X159897441Y-82249387D01*
X159876909Y-82254889D01*
X159740092Y-82333881D01*
X159628381Y-82445592D01*
X159549389Y-82582409D01*
X159543887Y-82602941D01*
X158952806Y-82011860D01*
X158952822Y-82011843D01*
X158925484Y-81984888D01*
X158916190Y-81963702D01*
X158893314Y-81894666D01*
X158801212Y-81745344D01*
X158677156Y-81621288D01*
X158527834Y-81529186D01*
X158361297Y-81474001D01*
X158361295Y-81474000D01*
X158258510Y-81463500D01*
X156958498Y-81463500D01*
X156958481Y-81463501D01*
X156855703Y-81474000D01*
X156855700Y-81474001D01*
X156689168Y-81529185D01*
X156689163Y-81529187D01*
X156539842Y-81621289D01*
X156512181Y-81648951D01*
X156450858Y-81682436D01*
X156381166Y-81677452D01*
X156325233Y-81635580D01*
X156300816Y-81570116D01*
X156300500Y-81561270D01*
X156300500Y-79900097D01*
X156320185Y-79833058D01*
X156336819Y-79812416D01*
X156372421Y-79776814D01*
X156514662Y-79634572D01*
X156575983Y-79601089D01*
X156578150Y-79600638D01*
X156636085Y-79589113D01*
X156733497Y-79569737D01*
X156879179Y-79509394D01*
X156879185Y-79509390D01*
X157010875Y-79421398D01*
X157077553Y-79400520D01*
X157079766Y-79400500D01*
X157422163Y-79400500D01*
X157489202Y-79420185D01*
G37*
%TD.AperFunction*%
%TA.AperFunction,Conductor*%
G36*
X158944920Y-67199166D02*
G01*
X158958813Y-67215199D01*
X159078396Y-67379792D01*
X159228708Y-67530104D01*
X159393719Y-67649991D01*
X159436384Y-67705319D01*
X159442363Y-67774932D01*
X159409758Y-67836728D01*
X159393718Y-67850626D01*
X159346782Y-67884726D01*
X159346782Y-67884728D01*
X159897441Y-68435387D01*
X159876909Y-68440889D01*
X159740092Y-68519881D01*
X159628381Y-68631592D01*
X159549389Y-68768409D01*
X159543887Y-68788941D01*
X158993228Y-68238282D01*
X158993226Y-68238282D01*
X158959126Y-68285218D01*
X158903796Y-68327884D01*
X158834183Y-68333863D01*
X158772388Y-68301258D01*
X158758494Y-68285224D01*
X158638604Y-68120208D01*
X158488292Y-67969896D01*
X158323704Y-67850316D01*
X158281040Y-67794989D01*
X158275061Y-67725376D01*
X158307666Y-67663580D01*
X158323699Y-67649686D01*
X158488292Y-67530104D01*
X158638604Y-67379792D01*
X158758183Y-67215204D01*
X158813511Y-67172540D01*
X158883124Y-67166561D01*
X158944920Y-67199166D01*
G37*
%TD.AperFunction*%
%TA.AperFunction,Conductor*%
G36*
X160275191Y-53534185D02*
G01*
X160320946Y-53586989D01*
X160330890Y-53656147D01*
X160301865Y-53719703D01*
X160286817Y-53734353D01*
X160261893Y-53754807D01*
X160004807Y-54011893D01*
X159774150Y-54292950D01*
X159774140Y-54292964D01*
X159572151Y-54595261D01*
X159572140Y-54595279D01*
X159400756Y-54915916D01*
X159400754Y-54915921D01*
X159261614Y-55251834D01*
X159156067Y-55599776D01*
X159156064Y-55599787D01*
X159085137Y-55956369D01*
X159049500Y-56318209D01*
X159049500Y-56681790D01*
X159085137Y-57043630D01*
X159156064Y-57400212D01*
X159156067Y-57400223D01*
X159261614Y-57748165D01*
X159400754Y-58084078D01*
X159400756Y-58084083D01*
X159572140Y-58404720D01*
X159572151Y-58404738D01*
X159774140Y-58707035D01*
X159774150Y-58707049D01*
X160004807Y-58988106D01*
X160261893Y-59245192D01*
X160261898Y-59245196D01*
X160261899Y-59245197D01*
X160542956Y-59475854D01*
X160845268Y-59677853D01*
X160845277Y-59677858D01*
X160845279Y-59677859D01*
X161165916Y-59849243D01*
X161165918Y-59849243D01*
X161165924Y-59849247D01*
X161501836Y-59988386D01*
X161849767Y-60093930D01*
X161849773Y-60093931D01*
X161849776Y-60093932D01*
X161849787Y-60093935D01*
X162206369Y-60164862D01*
X162568206Y-60200500D01*
X162568209Y-60200500D01*
X162931791Y-60200500D01*
X162931794Y-60200500D01*
X163293631Y-60164862D01*
X163363045Y-60151054D01*
X163650212Y-60093935D01*
X163650223Y-60093932D01*
X163650223Y-60093931D01*
X163650233Y-60093930D01*
X163998164Y-59988386D01*
X164334076Y-59849247D01*
X164654732Y-59677853D01*
X164957044Y-59475854D01*
X165238101Y-59245197D01*
X165238106Y-59245192D01*
X165496319Y-58986980D01*
X165557642Y-58953495D01*
X165627334Y-58958479D01*
X165683267Y-59000351D01*
X165707684Y-59065815D01*
X165708000Y-59074661D01*
X165708000Y-128839339D01*
X165688315Y-128906378D01*
X165635511Y-128952133D01*
X165566353Y-128962077D01*
X165502797Y-128933052D01*
X165496319Y-128927020D01*
X165238106Y-128668807D01*
X164957049Y-128438150D01*
X164957048Y-128438149D01*
X164957044Y-128438146D01*
X164654732Y-128236147D01*
X164654727Y-128236144D01*
X164654720Y-128236140D01*
X164334083Y-128064756D01*
X164334078Y-128064754D01*
X163998165Y-127925614D01*
X163650223Y-127820067D01*
X163650212Y-127820064D01*
X163293630Y-127749137D01*
X163021111Y-127722296D01*
X162931794Y-127713500D01*
X162568206Y-127713500D01*
X162485679Y-127721628D01*
X162206369Y-127749137D01*
X161849787Y-127820064D01*
X161849776Y-127820067D01*
X161501834Y-127925614D01*
X161165921Y-128064754D01*
X161165916Y-128064756D01*
X160845279Y-128236140D01*
X160845261Y-128236151D01*
X160542964Y-128438140D01*
X160542950Y-128438150D01*
X160261893Y-128668807D01*
X160004807Y-128925893D01*
X159774150Y-129206950D01*
X159774140Y-129206964D01*
X159572151Y-129509261D01*
X159572140Y-129509279D01*
X159400756Y-129829916D01*
X159400754Y-129829921D01*
X159261614Y-130165834D01*
X159156067Y-130513776D01*
X159156064Y-130513787D01*
X159085137Y-130870369D01*
X159057628Y-131149679D01*
X159049500Y-131232206D01*
X159049500Y-131595794D01*
X159053046Y-131631794D01*
X159085137Y-131957630D01*
X159156064Y-132314212D01*
X159156067Y-132314223D01*
X159261614Y-132662165D01*
X159400754Y-132998078D01*
X159400756Y-132998083D01*
X159572140Y-133318720D01*
X159572151Y-133318738D01*
X159774140Y-133621035D01*
X159774150Y-133621049D01*
X160004807Y-133902106D01*
X160261893Y-134159192D01*
X160303876Y-134193647D01*
X160343210Y-134251393D01*
X160345081Y-134321238D01*
X160308893Y-134381006D01*
X160246137Y-134411722D01*
X160225211Y-134413500D01*
X119177155Y-134413500D01*
X119110116Y-134393815D01*
X119064361Y-134341011D01*
X119054417Y-134271853D01*
X119083442Y-134208297D01*
X119094562Y-134197467D01*
X119094516Y-134197417D01*
X119094449Y-134197350D01*
X119094452Y-134197346D01*
X119094352Y-134197236D01*
X119096602Y-134195196D01*
X119353692Y-133938106D01*
X119353697Y-133938101D01*
X119584354Y-133657044D01*
X119786353Y-133354732D01*
X119957747Y-133034076D01*
X120096886Y-132698164D01*
X120202430Y-132350233D01*
X120202432Y-132350223D01*
X120202435Y-132350212D01*
X120273362Y-131993630D01*
X120309000Y-131631790D01*
X120309000Y-131268209D01*
X120305454Y-131232209D01*
X120273362Y-130906369D01*
X120266201Y-130870369D01*
X120202435Y-130549787D01*
X120202432Y-130549776D01*
X120202431Y-130549773D01*
X120202430Y-130549767D01*
X120096886Y-130201836D01*
X119957747Y-129865924D01*
X119938500Y-129829916D01*
X119786359Y-129545279D01*
X119786358Y-129545277D01*
X119786353Y-129545268D01*
X119584354Y-129242956D01*
X119353697Y-128961899D01*
X119353696Y-128961898D01*
X119353692Y-128961893D01*
X119096606Y-128704807D01*
X118815549Y-128474150D01*
X118815548Y-128474149D01*
X118815544Y-128474146D01*
X118513232Y-128272147D01*
X118513227Y-128272144D01*
X118513220Y-128272140D01*
X118192583Y-128100756D01*
X118192578Y-128100754D01*
X118105666Y-128064754D01*
X118094190Y-128060000D01*
X117856665Y-127961614D01*
X117508723Y-127856067D01*
X117508712Y-127856064D01*
X117152130Y-127785137D01*
X116879611Y-127758296D01*
X116790294Y-127749500D01*
X116426706Y-127749500D01*
X116344179Y-127757628D01*
X116064869Y-127785137D01*
X115708287Y-127856064D01*
X115708276Y-127856067D01*
X115360334Y-127961614D01*
X115024421Y-128100754D01*
X115024416Y-128100756D01*
X114703779Y-128272140D01*
X114703761Y-128272151D01*
X114401464Y-128474140D01*
X114401450Y-128474150D01*
X114120393Y-128704807D01*
X113863307Y-128961893D01*
X113828853Y-129003876D01*
X113771107Y-129043210D01*
X113701262Y-129045081D01*
X113641494Y-129008893D01*
X113610778Y-128946137D01*
X113609000Y-128925211D01*
X113609000Y-119614677D01*
X118106500Y-119614677D01*
X118106500Y-119813321D01*
X118137575Y-120009520D01*
X118137575Y-120009523D01*
X118198957Y-120198437D01*
X118289141Y-120375432D01*
X118316230Y-120412715D01*
X118316231Y-120412716D01*
X118879004Y-119849942D01*
X118895119Y-119910081D01*
X118961998Y-120025920D01*
X119056580Y-120120502D01*
X119172419Y-120187381D01*
X119232557Y-120203495D01*
X118669783Y-120766268D01*
X118669783Y-120766269D01*
X118707067Y-120793358D01*
X118864382Y-120873515D01*
X118915178Y-120921490D01*
X118931973Y-120989311D01*
X118909435Y-121055446D01*
X118864382Y-121094485D01*
X118707064Y-121174643D01*
X118669783Y-121201729D01*
X118669782Y-121201730D01*
X119232558Y-121764504D01*
X119172419Y-121780619D01*
X119056580Y-121847498D01*
X118961998Y-121942080D01*
X118895119Y-122057919D01*
X118879004Y-122118057D01*
X118316230Y-121555282D01*
X118316229Y-121555283D01*
X118289143Y-121592564D01*
X118198957Y-121769562D01*
X118137575Y-121958476D01*
X118137575Y-121958479D01*
X118106500Y-122154678D01*
X118106500Y-122353321D01*
X118137575Y-122549520D01*
X118137575Y-122549523D01*
X118198957Y-122738437D01*
X118289141Y-122915432D01*
X118316230Y-122952715D01*
X118316231Y-122952716D01*
X118879004Y-122389942D01*
X118895119Y-122450081D01*
X118961998Y-122565920D01*
X119056580Y-122660502D01*
X119172419Y-122727381D01*
X119232557Y-122743494D01*
X118669783Y-123306268D01*
X118669783Y-123306269D01*
X118707067Y-123333358D01*
X118884062Y-123423542D01*
X119072977Y-123484924D01*
X119269179Y-123516000D01*
X119467821Y-123516000D01*
X119664020Y-123484924D01*
X119664023Y-123484924D01*
X119852937Y-123423542D01*
X120029925Y-123333362D01*
X120067216Y-123306268D01*
X119504442Y-122743494D01*
X119564581Y-122727381D01*
X119680420Y-122660502D01*
X119775002Y-122565920D01*
X119841881Y-122450081D01*
X119857995Y-122389941D01*
X120222813Y-122754760D01*
X120229576Y-122765686D01*
X120236855Y-122771529D01*
X120247911Y-122795305D01*
X120252712Y-122803060D01*
X120253928Y-122806693D01*
X120285923Y-122926095D01*
X120298734Y-122948284D01*
X120304966Y-122959079D01*
X120304967Y-122959080D01*
X120364977Y-123063022D01*
X120364981Y-123063027D01*
X120483849Y-123181895D01*
X120483855Y-123181900D01*
X121384329Y-124082374D01*
X121384339Y-124082385D01*
X121388669Y-124086715D01*
X121388670Y-124086716D01*
X121500474Y-124198520D01*
X121587285Y-124248639D01*
X121587287Y-124248641D01*
X121637403Y-124277576D01*
X121637405Y-124277577D01*
X121790132Y-124318500D01*
X121790133Y-124318500D01*
X156095331Y-124318500D01*
X156095347Y-124318501D01*
X156102943Y-124318501D01*
X156261054Y-124318501D01*
X156261057Y-124318501D01*
X156413785Y-124277577D01*
X156463904Y-124248639D01*
X156550716Y-124198520D01*
X156662520Y-124086716D01*
X156662520Y-124086714D01*
X156672728Y-124076507D01*
X156672730Y-124076504D01*
X163658506Y-117090728D01*
X163658511Y-117090724D01*
X163668714Y-117080520D01*
X163668716Y-117080520D01*
X163780520Y-116968716D01*
X163843531Y-116859577D01*
X163859577Y-116831785D01*
X163900500Y-116679057D01*
X163900500Y-116520943D01*
X163900500Y-84466800D01*
X163900501Y-84466787D01*
X163900501Y-84298684D01*
X163900501Y-84298683D01*
X163859577Y-84145956D01*
X163832756Y-84099500D01*
X163780524Y-84009030D01*
X163780518Y-84009022D01*
X161080485Y-81308989D01*
X158209849Y-78438354D01*
X158209848Y-78438352D01*
X158090977Y-78319481D01*
X158090976Y-78319480D01*
X157990587Y-78261521D01*
X157990586Y-78261520D01*
X157954043Y-78240422D01*
X157898141Y-78225443D01*
X157801317Y-78199499D01*
X157643203Y-78199499D01*
X157635607Y-78199499D01*
X157635591Y-78199500D01*
X157079766Y-78199500D01*
X157012727Y-78179815D01*
X157010875Y-78178602D01*
X156879185Y-78090609D01*
X156879172Y-78090602D01*
X156733501Y-78030264D01*
X156733489Y-78030261D01*
X156578845Y-77999500D01*
X156578842Y-77999500D01*
X156449097Y-77999500D01*
X156382058Y-77979815D01*
X156336303Y-77927011D01*
X156326359Y-77857853D01*
X156355384Y-77794297D01*
X156361416Y-77787819D01*
X160012416Y-74136819D01*
X160073739Y-74103334D01*
X160100097Y-74100500D01*
X160178844Y-74100500D01*
X160178845Y-74100499D01*
X160333497Y-74069737D01*
X160479179Y-74009394D01*
X160610289Y-73921789D01*
X160721789Y-73810289D01*
X160809394Y-73679179D01*
X160869737Y-73533497D01*
X160900500Y-73378842D01*
X160900500Y-73221158D01*
X160900500Y-73221155D01*
X160900499Y-73221153D01*
X160869738Y-73066510D01*
X160869737Y-73066503D01*
X160850812Y-73020814D01*
X160809397Y-72920827D01*
X160809390Y-72920814D01*
X160721789Y-72789711D01*
X160721786Y-72789707D01*
X160610292Y-72678213D01*
X160610288Y-72678210D01*
X160479185Y-72590609D01*
X160479172Y-72590602D01*
X160333501Y-72530264D01*
X160333489Y-72530261D01*
X160178845Y-72499500D01*
X160178842Y-72499500D01*
X160021158Y-72499500D01*
X160021155Y-72499500D01*
X159866510Y-72530261D01*
X159866498Y-72530264D01*
X159720827Y-72590602D01*
X159720814Y-72590609D01*
X159589711Y-72678210D01*
X159589707Y-72678213D01*
X159478213Y-72789707D01*
X159478210Y-72789711D01*
X159390609Y-72920814D01*
X159390602Y-72920827D01*
X159330263Y-73066500D01*
X159330261Y-73066507D01*
X159324192Y-73097019D01*
X159291806Y-73158930D01*
X159290256Y-73160507D01*
X155412181Y-77038583D01*
X155350858Y-77072068D01*
X155281166Y-77067084D01*
X155225233Y-77025212D01*
X155200816Y-76959748D01*
X155200500Y-76950902D01*
X155200500Y-73979765D01*
X155220185Y-73912726D01*
X155221398Y-73910874D01*
X155309390Y-73779185D01*
X155309390Y-73779184D01*
X155309394Y-73779179D01*
X155369737Y-73633497D01*
X155400500Y-73478842D01*
X155400500Y-73321158D01*
X155400500Y-73321155D01*
X155400499Y-73321153D01*
X155391998Y-73278415D01*
X155369737Y-73166503D01*
X155365177Y-73155495D01*
X155309397Y-73020827D01*
X155309390Y-73020814D01*
X155221789Y-72889711D01*
X155221786Y-72889707D01*
X155110292Y-72778213D01*
X155110288Y-72778210D01*
X154979185Y-72690609D01*
X154979172Y-72690602D01*
X154833501Y-72630264D01*
X154833489Y-72630261D01*
X154678845Y-72599500D01*
X154678842Y-72599500D01*
X154521158Y-72599500D01*
X154521155Y-72599500D01*
X154366510Y-72630261D01*
X154366498Y-72630264D01*
X154220827Y-72690602D01*
X154220814Y-72690609D01*
X154094391Y-72775083D01*
X154027713Y-72795961D01*
X153960333Y-72777476D01*
X153913643Y-72725497D01*
X153901500Y-72671981D01*
X153901500Y-69549097D01*
X153921185Y-69482058D01*
X153937819Y-69461416D01*
X155071351Y-68327884D01*
X156244322Y-67154912D01*
X156305643Y-67121429D01*
X156375335Y-67126413D01*
X156431268Y-67168285D01*
X156442485Y-67186299D01*
X156453449Y-67207817D01*
X156578390Y-67379786D01*
X156728709Y-67530105D01*
X156728714Y-67530109D01*
X156893293Y-67649682D01*
X156935959Y-67705011D01*
X156941938Y-67774625D01*
X156909333Y-67836420D01*
X156893293Y-67850318D01*
X156728714Y-67969890D01*
X156728709Y-67969894D01*
X156578390Y-68120213D01*
X156453451Y-68292179D01*
X156356944Y-68481585D01*
X156291253Y-68683760D01*
X156258000Y-68893713D01*
X156258000Y-69106286D01*
X156291253Y-69316239D01*
X156356944Y-69518414D01*
X156453451Y-69707820D01*
X156578390Y-69879786D01*
X156728713Y-70030109D01*
X156900679Y-70155048D01*
X156900681Y-70155049D01*
X156900684Y-70155051D01*
X157090088Y-70251557D01*
X157292257Y-70317246D01*
X157502213Y-70350500D01*
X157502214Y-70350500D01*
X157714786Y-70350500D01*
X157714787Y-70350500D01*
X157924743Y-70317246D01*
X158126912Y-70251557D01*
X158316316Y-70155051D01*
X158366509Y-70118584D01*
X158488286Y-70030109D01*
X158488288Y-70030106D01*
X158488292Y-70030104D01*
X158638604Y-69879792D01*
X158758491Y-69714779D01*
X158813820Y-69672114D01*
X158883433Y-69666135D01*
X158945228Y-69698740D01*
X158959128Y-69714780D01*
X158993228Y-69761716D01*
X159543887Y-69211058D01*
X159549389Y-69231591D01*
X159628381Y-69368408D01*
X159740092Y-69480119D01*
X159876909Y-69559111D01*
X159897440Y-69564612D01*
X159346782Y-70115269D01*
X159346782Y-70115270D01*
X159400949Y-70154624D01*
X159590282Y-70251095D01*
X159792370Y-70316757D01*
X160002254Y-70350000D01*
X160214746Y-70350000D01*
X160424627Y-70316757D01*
X160424630Y-70316757D01*
X160626717Y-70251095D01*
X160816054Y-70154622D01*
X160870216Y-70115270D01*
X160870217Y-70115270D01*
X160319558Y-69564612D01*
X160340091Y-69559111D01*
X160476908Y-69480119D01*
X160588619Y-69368408D01*
X160667611Y-69231591D01*
X160673112Y-69211058D01*
X161223770Y-69761717D01*
X161223770Y-69761716D01*
X161263122Y-69707554D01*
X161359595Y-69518217D01*
X161425257Y-69316130D01*
X161425257Y-69316127D01*
X161458500Y-69106246D01*
X161458500Y-68893753D01*
X161425257Y-68683872D01*
X161425257Y-68683869D01*
X161359595Y-68481782D01*
X161263124Y-68292449D01*
X161223770Y-68238282D01*
X161223769Y-68238282D01*
X160673112Y-68788940D01*
X160667611Y-68768409D01*
X160588619Y-68631592D01*
X160476908Y-68519881D01*
X160340091Y-68440889D01*
X160319558Y-68435387D01*
X160870216Y-67884728D01*
X160823280Y-67850628D01*
X160780614Y-67795298D01*
X160774635Y-67725685D01*
X160807240Y-67663889D01*
X160823276Y-67649994D01*
X160988292Y-67530104D01*
X161138604Y-67379792D01*
X161138606Y-67379788D01*
X161138609Y-67379786D01*
X161263548Y-67207820D01*
X161263550Y-67207817D01*
X161263551Y-67207816D01*
X161360057Y-67018412D01*
X161425746Y-66816243D01*
X161459000Y-66606287D01*
X161459000Y-66393713D01*
X161425746Y-66183757D01*
X161360057Y-65981588D01*
X161263551Y-65792184D01*
X161263549Y-65792181D01*
X161263548Y-65792179D01*
X161138609Y-65620213D01*
X160988292Y-65469896D01*
X160919139Y-65419654D01*
X160823704Y-65350316D01*
X160781040Y-65294989D01*
X160775061Y-65225376D01*
X160807666Y-65163580D01*
X160823699Y-65149686D01*
X160988292Y-65030104D01*
X161138604Y-64879792D01*
X161138606Y-64879788D01*
X161138609Y-64879786D01*
X161263548Y-64707820D01*
X161263547Y-64707820D01*
X161263551Y-64707816D01*
X161360057Y-64518412D01*
X161425746Y-64316243D01*
X161459000Y-64106287D01*
X161459000Y-63893713D01*
X161425746Y-63683757D01*
X161360057Y-63481588D01*
X161263551Y-63292184D01*
X161263549Y-63292181D01*
X161263548Y-63292179D01*
X161138609Y-63120213D01*
X160988286Y-62969890D01*
X160816320Y-62844951D01*
X160626914Y-62748444D01*
X160626913Y-62748443D01*
X160626912Y-62748443D01*
X160424743Y-62682754D01*
X160424741Y-62682753D01*
X160424740Y-62682753D01*
X160263457Y-62657208D01*
X160214787Y-62649500D01*
X160002213Y-62649500D01*
X159953542Y-62657208D01*
X159792260Y-62682753D01*
X159590085Y-62748444D01*
X159400679Y-62844951D01*
X159228715Y-62969889D01*
X159089477Y-63109127D01*
X159028154Y-63142611D01*
X158958462Y-63137627D01*
X158902529Y-63095755D01*
X158889940Y-63074963D01*
X158864397Y-63021576D01*
X158864395Y-63021573D01*
X158809124Y-62938854D01*
X158809114Y-62938840D01*
X158776691Y-62895527D01*
X158669652Y-62799380D01*
X158593421Y-62748444D01*
X158586923Y-62744102D01*
X158540387Y-62716491D01*
X158540386Y-62716490D01*
X158404710Y-62668625D01*
X158404704Y-62668624D01*
X158356565Y-62659048D01*
X158307116Y-62649212D01*
X158232688Y-62641882D01*
X158208500Y-62639500D01*
X157008500Y-62639500D01*
X156986953Y-62641622D01*
X156909883Y-62649212D01*
X156812293Y-62668624D01*
X156812271Y-62668629D01*
X156759871Y-62682004D01*
X156759867Y-62682005D01*
X156630072Y-62744105D01*
X156547354Y-62799375D01*
X156547340Y-62799385D01*
X156504027Y-62831809D01*
X156407877Y-62938851D01*
X156407877Y-62938852D01*
X156352602Y-63021576D01*
X156324991Y-63068112D01*
X156324990Y-63068113D01*
X156277125Y-63203789D01*
X156277124Y-63203796D01*
X156258049Y-63299691D01*
X156225664Y-63361602D01*
X156164948Y-63396176D01*
X156136432Y-63399499D01*
X156023815Y-63399499D01*
X155926990Y-63425443D01*
X155871089Y-63440422D01*
X155871080Y-63440426D01*
X155865752Y-63443501D01*
X155865753Y-63443502D01*
X155734159Y-63519477D01*
X155734154Y-63519481D01*
X152419481Y-66834154D01*
X152419479Y-66834157D01*
X152369361Y-66920966D01*
X152369359Y-66920968D01*
X152340425Y-66971081D01*
X152340424Y-66971082D01*
X152324544Y-67030344D01*
X152299499Y-67123815D01*
X152299499Y-67123817D01*
X152299499Y-67291918D01*
X152299500Y-67291931D01*
X152299500Y-74107499D01*
X152279815Y-74174538D01*
X152227011Y-74220293D01*
X152157853Y-74230237D01*
X152106611Y-74210602D01*
X152078188Y-74191611D01*
X152078172Y-74191602D01*
X151932501Y-74131264D01*
X151932489Y-74131261D01*
X151777845Y-74100500D01*
X151777842Y-74100500D01*
X151620158Y-74100500D01*
X151620155Y-74100500D01*
X151465510Y-74131261D01*
X151465498Y-74131264D01*
X151319827Y-74191602D01*
X151319814Y-74191609D01*
X151188711Y-74279210D01*
X151188707Y-74279213D01*
X151077213Y-74390707D01*
X151077210Y-74390711D01*
X150989609Y-74521814D01*
X150989602Y-74521827D01*
X150929264Y-74667498D01*
X150929261Y-74667510D01*
X150898500Y-74822153D01*
X150898500Y-74979846D01*
X150929261Y-75134489D01*
X150929264Y-75134501D01*
X150989602Y-75280172D01*
X150989609Y-75280185D01*
X151077602Y-75411874D01*
X151098480Y-75478551D01*
X151098500Y-75480765D01*
X151098500Y-88800902D01*
X151078815Y-88867941D01*
X151062181Y-88888583D01*
X149229102Y-90721661D01*
X149167779Y-90755146D01*
X149098087Y-90750162D01*
X149053740Y-90721661D01*
X149010292Y-90678213D01*
X149010288Y-90678210D01*
X148879185Y-90590609D01*
X148879176Y-90590604D01*
X148834811Y-90572228D01*
X148794583Y-90545348D01*
X146735351Y-88486116D01*
X146701866Y-88424793D01*
X146701515Y-88385065D01*
X146699903Y-88384907D01*
X146700500Y-88378844D01*
X146700500Y-88221155D01*
X146700499Y-88221153D01*
X146690826Y-88172523D01*
X146669737Y-88066503D01*
X146669735Y-88066498D01*
X146609397Y-87920827D01*
X146609390Y-87920814D01*
X146521398Y-87789125D01*
X146500520Y-87722447D01*
X146500500Y-87720234D01*
X146500500Y-82179765D01*
X146520185Y-82112726D01*
X146521398Y-82110874D01*
X146609390Y-81979185D01*
X146609390Y-81979184D01*
X146609394Y-81979179D01*
X146669737Y-81833497D01*
X146700500Y-81678842D01*
X146700500Y-81521158D01*
X146700500Y-81521155D01*
X146700499Y-81521153D01*
X146689031Y-81463500D01*
X146669737Y-81366503D01*
X146645919Y-81309001D01*
X146609397Y-81220827D01*
X146609390Y-81220814D01*
X146521789Y-81089711D01*
X146521786Y-81089707D01*
X146410292Y-80978213D01*
X146410288Y-80978210D01*
X146279185Y-80890609D01*
X146279172Y-80890602D01*
X146133501Y-80830264D01*
X146133489Y-80830261D01*
X145978845Y-80799500D01*
X145978842Y-80799500D01*
X145821158Y-80799500D01*
X145821155Y-80799500D01*
X145666510Y-80830261D01*
X145666498Y-80830264D01*
X145520827Y-80890602D01*
X145520814Y-80890609D01*
X145389711Y-80978210D01*
X145389707Y-80978213D01*
X145278213Y-81089707D01*
X145278210Y-81089711D01*
X145190609Y-81220814D01*
X145190602Y-81220827D01*
X145130264Y-81366498D01*
X145130261Y-81366510D01*
X145099500Y-81521153D01*
X145099500Y-81678846D01*
X145130261Y-81833489D01*
X145130264Y-81833501D01*
X145190602Y-81979172D01*
X145190609Y-81979185D01*
X145278602Y-82110874D01*
X145299480Y-82177551D01*
X145299500Y-82179765D01*
X145299500Y-86550902D01*
X145279815Y-86617941D01*
X145227011Y-86663696D01*
X145157853Y-86673640D01*
X145094297Y-86644615D01*
X145087819Y-86638583D01*
X144736590Y-86287355D01*
X144736588Y-86287352D01*
X144617717Y-86168481D01*
X144617716Y-86168480D01*
X144530904Y-86118360D01*
X144530904Y-86118359D01*
X144530900Y-86118358D01*
X144480785Y-86089423D01*
X144328057Y-86048499D01*
X144169943Y-86048499D01*
X144162347Y-86048499D01*
X144162331Y-86048500D01*
X140471940Y-86048500D01*
X140436696Y-86057943D01*
X140436697Y-86057944D01*
X140319214Y-86089423D01*
X140319209Y-86089426D01*
X140182290Y-86168475D01*
X140182282Y-86168481D01*
X139780339Y-86570425D01*
X139719016Y-86603910D01*
X139716850Y-86604361D01*
X139561508Y-86635261D01*
X139561498Y-86635264D01*
X139415827Y-86695602D01*
X139415814Y-86695609D01*
X139284711Y-86783210D01*
X139284707Y-86783213D01*
X139173213Y-86894707D01*
X139173210Y-86894711D01*
X139085609Y-87025814D01*
X139085602Y-87025827D01*
X139025264Y-87171498D01*
X139025261Y-87171510D01*
X138994500Y-87326153D01*
X138994500Y-87483846D01*
X139025261Y-87638489D01*
X139025264Y-87638501D01*
X139085602Y-87784172D01*
X139085609Y-87784185D01*
X139173210Y-87915288D01*
X139173213Y-87915292D01*
X139284707Y-88026786D01*
X139284711Y-88026789D01*
X139415814Y-88114390D01*
X139415827Y-88114397D01*
X139556158Y-88172523D01*
X139561503Y-88174737D01*
X139716153Y-88205499D01*
X139716156Y-88205500D01*
X139716158Y-88205500D01*
X139873844Y-88205500D01*
X139873845Y-88205499D01*
X140028497Y-88174737D01*
X140174179Y-88114394D01*
X140305289Y-88026789D01*
X140403521Y-87928556D01*
X140464842Y-87895073D01*
X140534534Y-87900057D01*
X140560092Y-87913137D01*
X140629314Y-87959390D01*
X140629327Y-87959397D01*
X140774998Y-88019735D01*
X140775003Y-88019737D01*
X140918045Y-88048190D01*
X140929653Y-88050499D01*
X140929656Y-88050500D01*
X141049903Y-88050500D01*
X141116942Y-88070185D01*
X141137584Y-88086819D01*
X143715139Y-90664374D01*
X143715149Y-90664385D01*
X143719479Y-90668715D01*
X143719480Y-90668716D01*
X143831284Y-90780520D01*
X143831286Y-90780521D01*
X143831290Y-90780524D01*
X143887971Y-90813248D01*
X143968216Y-90859577D01*
X144073486Y-90887784D01*
X144073485Y-90887784D01*
X144083513Y-90890471D01*
X144120942Y-90900500D01*
X144120943Y-90900500D01*
X145920939Y-90900500D01*
X145920943Y-90900501D01*
X146079057Y-90900501D01*
X146084987Y-90898911D01*
X146099137Y-90898781D01*
X146105314Y-90900533D01*
X146115004Y-90900850D01*
X146115098Y-90899903D01*
X146121156Y-90900500D01*
X146121158Y-90900500D01*
X146278844Y-90900500D01*
X146278845Y-90900499D01*
X146433497Y-90869737D01*
X146579179Y-90809394D01*
X146710289Y-90721789D01*
X146821789Y-90610289D01*
X146873737Y-90532543D01*
X146927347Y-90487740D01*
X146996672Y-90479032D01*
X147059700Y-90509186D01*
X147064519Y-90513754D01*
X147664649Y-91113884D01*
X147698134Y-91175207D01*
X147698490Y-91214937D01*
X147700097Y-91215096D01*
X147699500Y-91221158D01*
X147699500Y-91378846D01*
X147730261Y-91533489D01*
X147730264Y-91533501D01*
X147790602Y-91679172D01*
X147790609Y-91679185D01*
X147878210Y-91810288D01*
X147878213Y-91810292D01*
X147921661Y-91853740D01*
X147955146Y-91915063D01*
X147950162Y-91984755D01*
X147921661Y-92029102D01*
X139644363Y-100306400D01*
X139583040Y-100339885D01*
X139524589Y-100338494D01*
X139404811Y-100306400D01*
X139379057Y-100299499D01*
X139220943Y-100299499D01*
X139213347Y-100299499D01*
X139213331Y-100299500D01*
X139141638Y-100299500D01*
X139074599Y-100279815D01*
X139028844Y-100227011D01*
X139025456Y-100218833D01*
X139004397Y-100162371D01*
X139004393Y-100162364D01*
X138918147Y-100047155D01*
X138918144Y-100047152D01*
X138802935Y-99960906D01*
X138802928Y-99960902D01*
X138719563Y-99929809D01*
X138663629Y-99887938D01*
X138639212Y-99822473D01*
X138654064Y-99754200D01*
X138694003Y-99710526D01*
X138777024Y-99655054D01*
X138888524Y-99543554D01*
X138976129Y-99412444D01*
X139036472Y-99266762D01*
X139055848Y-99169350D01*
X139067373Y-99111415D01*
X139076138Y-99094657D01*
X139080160Y-99076174D01*
X139098900Y-99051143D01*
X139099758Y-99049504D01*
X139101257Y-99047977D01*
X139112420Y-99036815D01*
X139173744Y-99003333D01*
X139200097Y-99000500D01*
X139220234Y-99000500D01*
X139287273Y-99020185D01*
X139289125Y-99021398D01*
X139420814Y-99109390D01*
X139420827Y-99109397D01*
X139566498Y-99169735D01*
X139566503Y-99169737D01*
X139721153Y-99200499D01*
X139721156Y-99200500D01*
X139721158Y-99200500D01*
X139878844Y-99200500D01*
X139878845Y-99200499D01*
X140033497Y-99169737D01*
X140179179Y-99109394D01*
X140310289Y-99021789D01*
X140421789Y-98910289D01*
X140509394Y-98779179D01*
X140569737Y-98633497D01*
X140600500Y-98478842D01*
X140600500Y-98321158D01*
X140600500Y-98321155D01*
X140600499Y-98321153D01*
X140589037Y-98263529D01*
X140569737Y-98166503D01*
X140569735Y-98166498D01*
X140509397Y-98020827D01*
X140509390Y-98020814D01*
X140421789Y-97889711D01*
X140421786Y-97889707D01*
X140310292Y-97778213D01*
X140310288Y-97778210D01*
X140179185Y-97690609D01*
X140179172Y-97690602D01*
X140033501Y-97630264D01*
X140033489Y-97630261D01*
X139878845Y-97599500D01*
X139878842Y-97599500D01*
X139721158Y-97599500D01*
X139721155Y-97599500D01*
X139566510Y-97630261D01*
X139566498Y-97630264D01*
X139420827Y-97690602D01*
X139420814Y-97690609D01*
X139289125Y-97778602D01*
X139271078Y-97784252D01*
X139255169Y-97794477D01*
X139224207Y-97798928D01*
X139222447Y-97799480D01*
X139220234Y-97799500D01*
X138986669Y-97799500D01*
X138986653Y-97799499D01*
X138979057Y-97799499D01*
X138820943Y-97799499D01*
X138713587Y-97828265D01*
X138668210Y-97840424D01*
X138668209Y-97840425D01*
X138618096Y-97869359D01*
X138618095Y-97869360D01*
X138582853Y-97889707D01*
X138531285Y-97919479D01*
X138531282Y-97919481D01*
X138419480Y-98031283D01*
X138419480Y-98031284D01*
X138419478Y-98031286D01*
X138328044Y-98122720D01*
X138252073Y-98198691D01*
X138190750Y-98232175D01*
X138188584Y-98232626D01*
X138033243Y-98263526D01*
X138033233Y-98263529D01*
X137887562Y-98323867D01*
X137887549Y-98323874D01*
X137756446Y-98411475D01*
X137756442Y-98411478D01*
X137644948Y-98522972D01*
X137644945Y-98522976D01*
X137557344Y-98654079D01*
X137557337Y-98654092D01*
X137496999Y-98799763D01*
X137496996Y-98799775D01*
X137466235Y-98954418D01*
X137466235Y-99112111D01*
X137496996Y-99266754D01*
X137496999Y-99266766D01*
X137557337Y-99412437D01*
X137557344Y-99412450D01*
X137644945Y-99543553D01*
X137644948Y-99543557D01*
X137756442Y-99655051D01*
X137756450Y-99655057D01*
X137789436Y-99677098D01*
X137834242Y-99730710D01*
X137842949Y-99800035D01*
X137812795Y-99863062D01*
X137753352Y-99899782D01*
X137720546Y-99904200D01*
X137369730Y-99904200D01*
X137369723Y-99904201D01*
X137310116Y-99910608D01*
X137175271Y-99960902D01*
X137175264Y-99960906D01*
X137060055Y-100047152D01*
X137060052Y-100047155D01*
X136973806Y-100162364D01*
X136973802Y-100162371D01*
X136923508Y-100297217D01*
X136917101Y-100356816D01*
X136917100Y-100356835D01*
X136917100Y-101443170D01*
X136917101Y-101443176D01*
X136923508Y-101502783D01*
X136976903Y-101645941D01*
X136973397Y-101647248D01*
X136984534Y-101698244D01*
X136960170Y-101763728D01*
X136904270Y-101805644D01*
X136860843Y-101813497D01*
X135738582Y-101813497D01*
X135671543Y-101793812D01*
X135625788Y-101741008D01*
X135615844Y-101671850D01*
X135624340Y-101646328D01*
X135622654Y-101645699D01*
X135675996Y-101502679D01*
X135675998Y-101502672D01*
X135682399Y-101443144D01*
X135682400Y-101443127D01*
X135682400Y-101150000D01*
X133539400Y-101150000D01*
X133539400Y-101443144D01*
X133545801Y-101502672D01*
X133545803Y-101502679D01*
X133599146Y-101645699D01*
X133595736Y-101646970D01*
X133606896Y-101698417D01*
X133582439Y-101763866D01*
X133526480Y-101805704D01*
X133483217Y-101813496D01*
X133480916Y-101813496D01*
X133404552Y-101833958D01*
X133328187Y-101854420D01*
X133328182Y-101854423D01*
X133191263Y-101933472D01*
X133191255Y-101933478D01*
X132369574Y-102755160D01*
X132308251Y-102788645D01*
X132306085Y-102789096D01*
X132150743Y-102819996D01*
X132150733Y-102819999D01*
X132005062Y-102880337D01*
X132005049Y-102880344D01*
X131873946Y-102967945D01*
X131873942Y-102967948D01*
X131762448Y-103079442D01*
X131762445Y-103079446D01*
X131674844Y-103210549D01*
X131674837Y-103210562D01*
X131614499Y-103356233D01*
X131614496Y-103356245D01*
X131583735Y-103510888D01*
X131583735Y-103668581D01*
X131614496Y-103823224D01*
X131614499Y-103823236D01*
X131674837Y-103968907D01*
X131674847Y-103968925D01*
X131741438Y-104068586D01*
X131762316Y-104135263D01*
X131743831Y-104202643D01*
X131741438Y-104206366D01*
X131671670Y-104310781D01*
X131671660Y-104310799D01*
X131611322Y-104456470D01*
X131611319Y-104456482D01*
X131580558Y-104611125D01*
X131580558Y-104768818D01*
X131611319Y-104923461D01*
X131611322Y-104923473D01*
X131661101Y-105043652D01*
X131668570Y-105113122D01*
X131637294Y-105175601D01*
X131615431Y-105194206D01*
X131489711Y-105278210D01*
X131489707Y-105278213D01*
X131378213Y-105389707D01*
X131378210Y-105389711D01*
X131290609Y-105520814D01*
X131290604Y-105520823D01*
X131247561Y-105624741D01*
X131203720Y-105679144D01*
X131137426Y-105701209D01*
X131069727Y-105683930D01*
X131022116Y-105632793D01*
X131009000Y-105577288D01*
X131009000Y-105493765D01*
X131028685Y-105426726D01*
X131029898Y-105424874D01*
X131060413Y-105379206D01*
X131117894Y-105293179D01*
X131178237Y-105147497D01*
X131209000Y-104992842D01*
X131209000Y-104835158D01*
X131209000Y-104835155D01*
X131208999Y-104835153D01*
X131178237Y-104680503D01*
X131151725Y-104616497D01*
X131117897Y-104534827D01*
X131117890Y-104534814D01*
X131030289Y-104403711D01*
X131030286Y-104403707D01*
X130918792Y-104292213D01*
X130918788Y-104292210D01*
X130787685Y-104204609D01*
X130787672Y-104204602D01*
X130642001Y-104144264D01*
X130641989Y-104144261D01*
X130487345Y-104113500D01*
X130487342Y-104113500D01*
X130329658Y-104113500D01*
X130329655Y-104113500D01*
X130175010Y-104144261D01*
X130174998Y-104144264D01*
X130029327Y-104204602D01*
X130029314Y-104204609D01*
X129898211Y-104292210D01*
X129898207Y-104292213D01*
X129819681Y-104370740D01*
X129758358Y-104404225D01*
X129688666Y-104399241D01*
X129632733Y-104357369D01*
X129608316Y-104291905D01*
X129608000Y-104283059D01*
X129608000Y-100356855D01*
X133539400Y-100356855D01*
X133539400Y-100650000D01*
X134360900Y-100650000D01*
X134860900Y-100650000D01*
X135682400Y-100650000D01*
X135682400Y-100356872D01*
X135682399Y-100356855D01*
X135675998Y-100297327D01*
X135675996Y-100297320D01*
X135625754Y-100162613D01*
X135625750Y-100162606D01*
X135539590Y-100047512D01*
X135539587Y-100047509D01*
X135424493Y-99961349D01*
X135424486Y-99961345D01*
X135289779Y-99911103D01*
X135289772Y-99911101D01*
X135230244Y-99904700D01*
X134860900Y-99904700D01*
X134860900Y-100650000D01*
X134360900Y-100650000D01*
X134360900Y-99904700D01*
X133991555Y-99904700D01*
X133932027Y-99911101D01*
X133932020Y-99911103D01*
X133797313Y-99961345D01*
X133797306Y-99961349D01*
X133682212Y-100047509D01*
X133682209Y-100047512D01*
X133596049Y-100162606D01*
X133596045Y-100162613D01*
X133545803Y-100297320D01*
X133545801Y-100297327D01*
X133539400Y-100356855D01*
X129608000Y-100356855D01*
X129608000Y-99879765D01*
X129627685Y-99812726D01*
X129628898Y-99810874D01*
X129636141Y-99800035D01*
X129716894Y-99679179D01*
X129777237Y-99533497D01*
X129808000Y-99378842D01*
X129808000Y-99221158D01*
X129808000Y-99221155D01*
X129807999Y-99221153D01*
X129799282Y-99177331D01*
X129777237Y-99066503D01*
X129758052Y-99020185D01*
X129716897Y-98920827D01*
X129716890Y-98920814D01*
X129628898Y-98789125D01*
X129608020Y-98722447D01*
X129608000Y-98720234D01*
X129608000Y-87515097D01*
X129627685Y-87448058D01*
X129644319Y-87427416D01*
X130882682Y-86189053D01*
X132121925Y-84949809D01*
X132183246Y-84916326D01*
X132252938Y-84921310D01*
X132308871Y-84963182D01*
X132333288Y-85028646D01*
X132331221Y-85061683D01*
X132299500Y-85221153D01*
X132299500Y-85378846D01*
X132330261Y-85533489D01*
X132330263Y-85533497D01*
X132340061Y-85557151D01*
X132349500Y-85604604D01*
X132349500Y-93695396D01*
X132340062Y-93742844D01*
X132330263Y-93766503D01*
X132330262Y-93766506D01*
X132330260Y-93766511D01*
X132299500Y-93921153D01*
X132299500Y-94078846D01*
X132330261Y-94233489D01*
X132330264Y-94233501D01*
X132390602Y-94379172D01*
X132390609Y-94379185D01*
X132478210Y-94510288D01*
X132478213Y-94510292D01*
X132589707Y-94621786D01*
X132589711Y-94621789D01*
X132720814Y-94709390D01*
X132720827Y-94709397D01*
X132866498Y-94769735D01*
X132866503Y-94769737D01*
X133021153Y-94800499D01*
X133021156Y-94800500D01*
X133021158Y-94800500D01*
X133178844Y-94800500D01*
X133178845Y-94800499D01*
X133333497Y-94769737D01*
X133479179Y-94709394D01*
X133610289Y-94621789D01*
X133721789Y-94510289D01*
X133809394Y-94379179D01*
X133869737Y-94233497D01*
X133900500Y-94078842D01*
X133900500Y-93921158D01*
X133900500Y-93921155D01*
X133900499Y-93921153D01*
X133869739Y-93766511D01*
X133869738Y-93766508D01*
X133869737Y-93766503D01*
X133859937Y-93742844D01*
X133850500Y-93695396D01*
X133850500Y-91589820D01*
X133870185Y-91522781D01*
X133922989Y-91477026D01*
X133950309Y-91468203D01*
X133995685Y-91459176D01*
X134108497Y-91436737D01*
X134227471Y-91387456D01*
X134296937Y-91379988D01*
X134359417Y-91411263D01*
X134362599Y-91414334D01*
X135084784Y-92136520D01*
X135084786Y-92136521D01*
X135084790Y-92136524D01*
X135221709Y-92215573D01*
X135221716Y-92215577D01*
X135374443Y-92256501D01*
X135374445Y-92256501D01*
X135540154Y-92256501D01*
X135540170Y-92256500D01*
X138354831Y-92256500D01*
X138354847Y-92256501D01*
X138362443Y-92256501D01*
X138520554Y-92256501D01*
X138520557Y-92256501D01*
X138673285Y-92215577D01*
X138723404Y-92186639D01*
X138810216Y-92136520D01*
X138922020Y-92024716D01*
X138922020Y-92024714D01*
X138932228Y-92014507D01*
X138932230Y-92014504D01*
X139796487Y-91150246D01*
X139836711Y-91123369D01*
X139895550Y-91098998D01*
X139976673Y-91065397D01*
X139976676Y-91065395D01*
X139976679Y-91065394D01*
X140107789Y-90977789D01*
X140219289Y-90866289D01*
X140306894Y-90735179D01*
X140367237Y-90589497D01*
X140398000Y-90434842D01*
X140398000Y-90277158D01*
X140398000Y-90277155D01*
X140397999Y-90277153D01*
X140377775Y-90175480D01*
X140367237Y-90122503D01*
X140367235Y-90122498D01*
X140306897Y-89976827D01*
X140306890Y-89976814D01*
X140219289Y-89845711D01*
X140219286Y-89845707D01*
X140107792Y-89734213D01*
X140107788Y-89734210D01*
X139976685Y-89646609D01*
X139976672Y-89646602D01*
X139831001Y-89586264D01*
X139830989Y-89586261D01*
X139676345Y-89555500D01*
X139676342Y-89555500D01*
X139518658Y-89555500D01*
X139518655Y-89555500D01*
X139364010Y-89586261D01*
X139363998Y-89586264D01*
X139218327Y-89646602D01*
X139218314Y-89646609D01*
X139087211Y-89734210D01*
X139087207Y-89734213D01*
X138975713Y-89845707D01*
X138975710Y-89845711D01*
X138888109Y-89976814D01*
X138888102Y-89976827D01*
X138827764Y-90122498D01*
X138827761Y-90122510D01*
X138797000Y-90277153D01*
X138797000Y-90399902D01*
X138777315Y-90466941D01*
X138760681Y-90487583D01*
X138229084Y-91019181D01*
X138167761Y-91052666D01*
X138141403Y-91055500D01*
X135753598Y-91055500D01*
X135686559Y-91035815D01*
X135665917Y-91019181D01*
X134941090Y-90294355D01*
X134941088Y-90294352D01*
X134822217Y-90175481D01*
X134822216Y-90175480D01*
X134730456Y-90122503D01*
X134730455Y-90122502D01*
X134685283Y-90096422D01*
X134629381Y-90081443D01*
X134532557Y-90055499D01*
X134532554Y-90055499D01*
X134438302Y-90055499D01*
X134371263Y-90035814D01*
X134369411Y-90034601D01*
X134254185Y-89957609D01*
X134254172Y-89957602D01*
X134108501Y-89897264D01*
X134108491Y-89897261D01*
X133950308Y-89865796D01*
X133888397Y-89833411D01*
X133853823Y-89772695D01*
X133850500Y-89744179D01*
X133850500Y-85604604D01*
X133851432Y-85599918D01*
X134620735Y-85599918D01*
X134620735Y-85757611D01*
X134651496Y-85912254D01*
X134651499Y-85912266D01*
X134711837Y-86057937D01*
X134711844Y-86057950D01*
X134799445Y-86189053D01*
X134799448Y-86189057D01*
X134910942Y-86300551D01*
X134910946Y-86300554D01*
X135042049Y-86388155D01*
X135042062Y-86388162D01*
X135187733Y-86448500D01*
X135187738Y-86448502D01*
X135315512Y-86473918D01*
X135342388Y-86479264D01*
X135342391Y-86479265D01*
X135342393Y-86479265D01*
X135500079Y-86479265D01*
X135500080Y-86479264D01*
X135654732Y-86448502D01*
X135800414Y-86388159D01*
X135931524Y-86300554D01*
X136043024Y-86189054D01*
X136130629Y-86057944D01*
X136136199Y-86044498D01*
X136144302Y-86024931D01*
X136190972Y-85912262D01*
X136209911Y-85817048D01*
X136216061Y-85786133D01*
X136248446Y-85724222D01*
X136309161Y-85689648D01*
X136361870Y-85688707D01*
X136421155Y-85700500D01*
X136421158Y-85700500D01*
X136578844Y-85700500D01*
X136578845Y-85700499D01*
X136733497Y-85669737D01*
X136879179Y-85609394D01*
X137010289Y-85521789D01*
X137121789Y-85410289D01*
X137209394Y-85279179D01*
X137269737Y-85133497D01*
X137300500Y-84978842D01*
X137300500Y-84821158D01*
X137300500Y-84821155D01*
X137300499Y-84821153D01*
X137272066Y-84678211D01*
X137269737Y-84666503D01*
X137244750Y-84606179D01*
X137209397Y-84520827D01*
X137209390Y-84520814D01*
X137121789Y-84389711D01*
X137121786Y-84389707D01*
X137010292Y-84278213D01*
X137010288Y-84278210D01*
X136879185Y-84190609D01*
X136879172Y-84190602D01*
X136733501Y-84130264D01*
X136733489Y-84130261D01*
X136578845Y-84099500D01*
X136578842Y-84099500D01*
X136421158Y-84099500D01*
X136421155Y-84099500D01*
X136266510Y-84130261D01*
X136266498Y-84130264D01*
X136120827Y-84190602D01*
X136120814Y-84190609D01*
X135989711Y-84278210D01*
X135989707Y-84278213D01*
X135883425Y-84384496D01*
X135857747Y-84404200D01*
X135831290Y-84419475D01*
X135831281Y-84419482D01*
X135406574Y-84844190D01*
X135345251Y-84877675D01*
X135343085Y-84878126D01*
X135187743Y-84909026D01*
X135187733Y-84909029D01*
X135042062Y-84969367D01*
X135042049Y-84969374D01*
X134910946Y-85056975D01*
X134910942Y-85056978D01*
X134799448Y-85168472D01*
X134799445Y-85168476D01*
X134711844Y-85299579D01*
X134711837Y-85299592D01*
X134651499Y-85445263D01*
X134651496Y-85445275D01*
X134620735Y-85599918D01*
X133851432Y-85599918D01*
X133852126Y-85596428D01*
X133851210Y-85591352D01*
X133859938Y-85557154D01*
X133864400Y-85546381D01*
X133864402Y-85546377D01*
X133869735Y-85533501D01*
X133869737Y-85533497D01*
X133900500Y-85378842D01*
X133900500Y-85221158D01*
X133900500Y-85221155D01*
X133900499Y-85221153D01*
X133869738Y-85066510D01*
X133869737Y-85066503D01*
X133865791Y-85056976D01*
X133809397Y-84920827D01*
X133809390Y-84920814D01*
X133721789Y-84789711D01*
X133721786Y-84789707D01*
X133610292Y-84678213D01*
X133610288Y-84678210D01*
X133479185Y-84590609D01*
X133479172Y-84590602D01*
X133333501Y-84530264D01*
X133333489Y-84530261D01*
X133178845Y-84499500D01*
X133178842Y-84499500D01*
X133021158Y-84499500D01*
X133021155Y-84499500D01*
X132861683Y-84531221D01*
X132792092Y-84524994D01*
X132736914Y-84482131D01*
X132713670Y-84416241D01*
X132729738Y-84348244D01*
X132749807Y-84321927D01*
X135241769Y-81829966D01*
X135359416Y-81712319D01*
X135420739Y-81678834D01*
X135447097Y-81676000D01*
X138295734Y-81676000D01*
X138362773Y-81695685D01*
X138364625Y-81696898D01*
X138496314Y-81784890D01*
X138496327Y-81784897D01*
X138641998Y-81845235D01*
X138642003Y-81845237D01*
X138796653Y-81875999D01*
X138796656Y-81876000D01*
X138796658Y-81876000D01*
X138954344Y-81876000D01*
X138954345Y-81875999D01*
X139108997Y-81845237D01*
X139254679Y-81784894D01*
X139385789Y-81697289D01*
X139497289Y-81585789D01*
X139584894Y-81454679D01*
X139645237Y-81308997D01*
X139676000Y-81154342D01*
X139676000Y-80996658D01*
X139676000Y-80996655D01*
X139657707Y-80904692D01*
X139663934Y-80835100D01*
X139706797Y-80779923D01*
X139772687Y-80756678D01*
X139779324Y-80756500D01*
X140620234Y-80756500D01*
X140687273Y-80776185D01*
X140689125Y-80777398D01*
X140820814Y-80865390D01*
X140820827Y-80865397D01*
X140915695Y-80904692D01*
X140966503Y-80925737D01*
X141121153Y-80956499D01*
X141121156Y-80956500D01*
X141121158Y-80956500D01*
X141278844Y-80956500D01*
X141278845Y-80956499D01*
X141433497Y-80925737D01*
X141579179Y-80865394D01*
X141710289Y-80777789D01*
X141821789Y-80666289D01*
X141909394Y-80535179D01*
X141969737Y-80389497D01*
X142000500Y-80234842D01*
X142000500Y-80077158D01*
X142000500Y-80077155D01*
X142000499Y-80077153D01*
X141969738Y-79922510D01*
X141969737Y-79922503D01*
X141924138Y-79812416D01*
X141909397Y-79776827D01*
X141909390Y-79776814D01*
X141821789Y-79645711D01*
X141821786Y-79645707D01*
X141710292Y-79534213D01*
X141710288Y-79534210D01*
X141579185Y-79446609D01*
X141579172Y-79446602D01*
X141433501Y-79386264D01*
X141433489Y-79386261D01*
X141278845Y-79355500D01*
X141278842Y-79355500D01*
X141121158Y-79355500D01*
X141121155Y-79355500D01*
X140966510Y-79386261D01*
X140966498Y-79386264D01*
X140820827Y-79446602D01*
X140820814Y-79446609D01*
X140689125Y-79534602D01*
X140622447Y-79555480D01*
X140620234Y-79555500D01*
X135303228Y-79555500D01*
X135303212Y-79555499D01*
X135295616Y-79555499D01*
X135137501Y-79555499D01*
X135084362Y-79569738D01*
X134984772Y-79596423D01*
X134984767Y-79596426D01*
X134847848Y-79675475D01*
X134847840Y-79675481D01*
X127831286Y-86692035D01*
X127719482Y-86803838D01*
X127719480Y-86803840D01*
X127719480Y-86803841D01*
X127675057Y-86880784D01*
X127675056Y-86880784D01*
X127640424Y-86940769D01*
X127640423Y-86940770D01*
X127619961Y-87017136D01*
X127599499Y-87093500D01*
X127599499Y-87093502D01*
X127599499Y-87261603D01*
X127599500Y-87261616D01*
X127599500Y-106250903D01*
X127593261Y-106272148D01*
X127591682Y-106294237D01*
X127583609Y-106305020D01*
X127579815Y-106317942D01*
X127563081Y-106332441D01*
X127549810Y-106350170D01*
X127537189Y-106354877D01*
X127527011Y-106363697D01*
X127505093Y-106366848D01*
X127484346Y-106374587D01*
X127471185Y-106371724D01*
X127457853Y-106373641D01*
X127437709Y-106364441D01*
X127416073Y-106359735D01*
X127398347Y-106346466D01*
X127394297Y-106344616D01*
X127387819Y-106338584D01*
X127334574Y-106285339D01*
X127301089Y-106224016D01*
X127300638Y-106221849D01*
X127278373Y-106109917D01*
X127269737Y-106066503D01*
X127269735Y-106066498D01*
X127209397Y-105920827D01*
X127209390Y-105920814D01*
X127121789Y-105789711D01*
X127121786Y-105789707D01*
X127010292Y-105678213D01*
X127010288Y-105678210D01*
X126879185Y-105590609D01*
X126879172Y-105590602D01*
X126733501Y-105530264D01*
X126733489Y-105530261D01*
X126578845Y-105499500D01*
X126578842Y-105499500D01*
X126421158Y-105499500D01*
X126421155Y-105499500D01*
X126266510Y-105530261D01*
X126266498Y-105530264D01*
X126120827Y-105590602D01*
X126120814Y-105590609D01*
X125989711Y-105678210D01*
X125989707Y-105678213D01*
X125878213Y-105789707D01*
X125878210Y-105789711D01*
X125790609Y-105920814D01*
X125790602Y-105920827D01*
X125730264Y-106066498D01*
X125730261Y-106066510D01*
X125699500Y-106221153D01*
X125699500Y-106378846D01*
X125730261Y-106533489D01*
X125730264Y-106533501D01*
X125790602Y-106679172D01*
X125790609Y-106679185D01*
X125878210Y-106810288D01*
X125878213Y-106810292D01*
X125989707Y-106921786D01*
X125989711Y-106921789D01*
X126120814Y-107009390D01*
X126120827Y-107009397D01*
X126240072Y-107058789D01*
X126266503Y-107069737D01*
X126320602Y-107080498D01*
X126421849Y-107100638D01*
X126483760Y-107133023D01*
X126485339Y-107134574D01*
X127563181Y-108212416D01*
X127596666Y-108273739D01*
X127599500Y-108300097D01*
X127599500Y-111713330D01*
X127599499Y-111713348D01*
X127599499Y-111879054D01*
X127599498Y-111879054D01*
X127599499Y-111879057D01*
X127640423Y-112031785D01*
X127662335Y-112069737D01*
X127706482Y-112146202D01*
X127719479Y-112168714D01*
X127719481Y-112168717D01*
X127838349Y-112287585D01*
X127838355Y-112287590D01*
X128615139Y-113064374D01*
X128615149Y-113064385D01*
X128619479Y-113068715D01*
X128619480Y-113068716D01*
X128731284Y-113180520D01*
X128805789Y-113223535D01*
X128868215Y-113259577D01*
X129020942Y-113300500D01*
X129020943Y-113300500D01*
X131520234Y-113300500D01*
X131587273Y-113320185D01*
X131589125Y-113321398D01*
X131720814Y-113409390D01*
X131720827Y-113409397D01*
X131866498Y-113469735D01*
X131866503Y-113469737D01*
X132021153Y-113500499D01*
X132021156Y-113500500D01*
X132021158Y-113500500D01*
X132178844Y-113500500D01*
X132178845Y-113500499D01*
X132333497Y-113469737D01*
X132479179Y-113409394D01*
X132610289Y-113321789D01*
X132622947Y-113309131D01*
X132636319Y-113295760D01*
X132697642Y-113262275D01*
X132767334Y-113267259D01*
X132823267Y-113309131D01*
X132847684Y-113374595D01*
X132848000Y-113383441D01*
X132848000Y-115520234D01*
X132828315Y-115587273D01*
X132827102Y-115589125D01*
X132739109Y-115720814D01*
X132739102Y-115720827D01*
X132678764Y-115866498D01*
X132678761Y-115866510D01*
X132648000Y-116021153D01*
X132648000Y-116178846D01*
X132678761Y-116333489D01*
X132678764Y-116333501D01*
X132739102Y-116479172D01*
X132739109Y-116479185D01*
X132826710Y-116610288D01*
X132826713Y-116610292D01*
X132938207Y-116721786D01*
X132938211Y-116721789D01*
X133069316Y-116809391D01*
X133069317Y-116809391D01*
X133069321Y-116809394D01*
X133122953Y-116831609D01*
X133177355Y-116875448D01*
X133199421Y-116941742D01*
X133199500Y-116946169D01*
X133199500Y-117078846D01*
X133230261Y-117233489D01*
X133230264Y-117233501D01*
X133290602Y-117379172D01*
X133290609Y-117379184D01*
X133342343Y-117456609D01*
X133363221Y-117523286D01*
X133344737Y-117590666D01*
X133292758Y-117637357D01*
X133239241Y-117649500D01*
X125999170Y-117649500D01*
X125999154Y-117649499D01*
X125991558Y-117649499D01*
X125833443Y-117649499D01*
X125757079Y-117669961D01*
X125680714Y-117690423D01*
X125680709Y-117690426D01*
X125543790Y-117769475D01*
X125543782Y-117769481D01*
X124863026Y-118450237D01*
X124801703Y-118483722D01*
X124748978Y-118483158D01*
X124748948Y-118483349D01*
X124747656Y-118483144D01*
X124746403Y-118483131D01*
X124744136Y-118482586D01*
X124574696Y-118455750D01*
X124547861Y-118451500D01*
X124349139Y-118451500D01*
X124283714Y-118461862D01*
X124152862Y-118482587D01*
X123963870Y-118543993D01*
X123963867Y-118543994D01*
X123786805Y-118634213D01*
X123626033Y-118751021D01*
X123485521Y-118891533D01*
X123368713Y-119052305D01*
X123288985Y-119208780D01*
X123241010Y-119259576D01*
X123173189Y-119276371D01*
X123107054Y-119253833D01*
X123068015Y-119208780D01*
X123040974Y-119155709D01*
X122988287Y-119052306D01*
X122871481Y-118891536D01*
X122730964Y-118751019D01*
X122570194Y-118634213D01*
X122540174Y-118618917D01*
X122393132Y-118543994D01*
X122393129Y-118543993D01*
X122204137Y-118482587D01*
X122105998Y-118467043D01*
X122007861Y-118451500D01*
X121809139Y-118451500D01*
X121743714Y-118461862D01*
X121612862Y-118482587D01*
X121423870Y-118543993D01*
X121423867Y-118543994D01*
X121246805Y-118634213D01*
X121086033Y-118751021D01*
X120945521Y-118891533D01*
X120828713Y-119052305D01*
X120748704Y-119209331D01*
X120700729Y-119260127D01*
X120632908Y-119276922D01*
X120566773Y-119254384D01*
X120527734Y-119209331D01*
X120447858Y-119052567D01*
X120420768Y-119015283D01*
X119857995Y-119578057D01*
X119841881Y-119517919D01*
X119775002Y-119402080D01*
X119680420Y-119307498D01*
X119564581Y-119240619D01*
X119504442Y-119224504D01*
X120067216Y-118661731D01*
X120067215Y-118661730D01*
X120029932Y-118634641D01*
X119852937Y-118544457D01*
X119664022Y-118483075D01*
X119467821Y-118452000D01*
X119269179Y-118452000D01*
X119072979Y-118483075D01*
X119072976Y-118483075D01*
X118884062Y-118544457D01*
X118707064Y-118634643D01*
X118669783Y-118661729D01*
X118669782Y-118661730D01*
X119232558Y-119224504D01*
X119172419Y-119240619D01*
X119056580Y-119307498D01*
X118961998Y-119402080D01*
X118895119Y-119517919D01*
X118879004Y-119578057D01*
X118316230Y-119015282D01*
X118316229Y-119015283D01*
X118289143Y-119052564D01*
X118198957Y-119229562D01*
X118137575Y-119418476D01*
X118137575Y-119418479D01*
X118106501Y-119614671D01*
X118106500Y-119614677D01*
X113609000Y-119614677D01*
X113609000Y-116343144D01*
X124139400Y-116343144D01*
X124145801Y-116402672D01*
X124145803Y-116402679D01*
X124196045Y-116537386D01*
X124196049Y-116537393D01*
X124282209Y-116652487D01*
X124282212Y-116652490D01*
X124397306Y-116738650D01*
X124397313Y-116738654D01*
X124532020Y-116788896D01*
X124532027Y-116788898D01*
X124591555Y-116795299D01*
X124591572Y-116795300D01*
X124960900Y-116795300D01*
X125460900Y-116795300D01*
X125830228Y-116795300D01*
X125830244Y-116795299D01*
X125889772Y-116788898D01*
X125889779Y-116788896D01*
X126024486Y-116738654D01*
X126024493Y-116738650D01*
X126139587Y-116652490D01*
X126139590Y-116652487D01*
X126225750Y-116537393D01*
X126225754Y-116537386D01*
X126275996Y-116402679D01*
X126275998Y-116402672D01*
X126282399Y-116343144D01*
X126282400Y-116343127D01*
X126282400Y-116050000D01*
X125460900Y-116050000D01*
X125460900Y-116795300D01*
X124960900Y-116795300D01*
X124960900Y-116050000D01*
X124139400Y-116050000D01*
X124139400Y-116343144D01*
X113609000Y-116343144D01*
X113609000Y-114465678D01*
X113628685Y-114398639D01*
X113681489Y-114352884D01*
X113750647Y-114342940D01*
X113814203Y-114371965D01*
X113828853Y-114387013D01*
X113923307Y-114502106D01*
X114180393Y-114759192D01*
X114180398Y-114759196D01*
X114180399Y-114759197D01*
X114461456Y-114989854D01*
X114763768Y-115191853D01*
X114763777Y-115191858D01*
X114763779Y-115191859D01*
X115084416Y-115363243D01*
X115084418Y-115363243D01*
X115084424Y-115363247D01*
X115420336Y-115502386D01*
X115768267Y-115607930D01*
X115768273Y-115607931D01*
X115768276Y-115607932D01*
X115768287Y-115607935D01*
X116124869Y-115678862D01*
X116486706Y-115714500D01*
X116486709Y-115714500D01*
X116850291Y-115714500D01*
X116850294Y-115714500D01*
X117212131Y-115678862D01*
X117281545Y-115665054D01*
X117568712Y-115607935D01*
X117568723Y-115607932D01*
X117568723Y-115607931D01*
X117568733Y-115607930D01*
X117916664Y-115502386D01*
X118252576Y-115363247D01*
X118451622Y-115256855D01*
X124139400Y-115256855D01*
X124139400Y-115550000D01*
X124960900Y-115550000D01*
X125460900Y-115550000D01*
X126282400Y-115550000D01*
X126282400Y-115256864D01*
X126282397Y-115256835D01*
X127517100Y-115256835D01*
X127517100Y-116343170D01*
X127517101Y-116343176D01*
X127523508Y-116402783D01*
X127573802Y-116537628D01*
X127573806Y-116537635D01*
X127660052Y-116652844D01*
X127660055Y-116652847D01*
X127775264Y-116739093D01*
X127775271Y-116739097D01*
X127910117Y-116789391D01*
X127910116Y-116789391D01*
X127917044Y-116790135D01*
X127969727Y-116795800D01*
X129208472Y-116795799D01*
X129268083Y-116789391D01*
X129402931Y-116739096D01*
X129518146Y-116652846D01*
X129604396Y-116537631D01*
X129628953Y-116471791D01*
X129653155Y-116406902D01*
X129666424Y-116389175D01*
X129675624Y-116369032D01*
X129686954Y-116361750D01*
X129695026Y-116350968D01*
X129715774Y-116343229D01*
X129734402Y-116331258D01*
X129756318Y-116328106D01*
X129760490Y-116326551D01*
X129769337Y-116326235D01*
X129894499Y-116326235D01*
X129961538Y-116345920D01*
X129963390Y-116347133D01*
X130095079Y-116435125D01*
X130095092Y-116435132D01*
X130201447Y-116479185D01*
X130240768Y-116495472D01*
X130395418Y-116526234D01*
X130395421Y-116526235D01*
X130395423Y-116526235D01*
X130553109Y-116526235D01*
X130553110Y-116526234D01*
X130707762Y-116495472D01*
X130853444Y-116435129D01*
X130984554Y-116347524D01*
X131096054Y-116236024D01*
X131183659Y-116104914D01*
X131244002Y-115959232D01*
X131274765Y-115804577D01*
X131274765Y-115646893D01*
X131274765Y-115646890D01*
X131274764Y-115646888D01*
X131259156Y-115568422D01*
X131244002Y-115492238D01*
X131190539Y-115363166D01*
X131183662Y-115346562D01*
X131183655Y-115346549D01*
X131096054Y-115215446D01*
X131096051Y-115215442D01*
X130984557Y-115103948D01*
X130984553Y-115103945D01*
X130853450Y-115016344D01*
X130853437Y-115016337D01*
X130707766Y-114955999D01*
X130707754Y-114955996D01*
X130553110Y-114925235D01*
X130553107Y-114925235D01*
X130395423Y-114925235D01*
X130395420Y-114925235D01*
X130240775Y-114955996D01*
X130240763Y-114955999D01*
X130095092Y-115016337D01*
X130095079Y-115016344D01*
X129963390Y-115104337D01*
X129945343Y-115109987D01*
X129929434Y-115120212D01*
X129898472Y-115124663D01*
X129896712Y-115125215D01*
X129894499Y-115125235D01*
X129712296Y-115125235D01*
X129645257Y-115105550D01*
X129610862Y-115068607D01*
X129609712Y-115069469D01*
X129518147Y-114947155D01*
X129518144Y-114947152D01*
X129402935Y-114860906D01*
X129402928Y-114860902D01*
X129268082Y-114810608D01*
X129268083Y-114810608D01*
X129208483Y-114804201D01*
X129208481Y-114804200D01*
X129208473Y-114804200D01*
X129208464Y-114804200D01*
X127969729Y-114804200D01*
X127969723Y-114804201D01*
X127910116Y-114810608D01*
X127775271Y-114860902D01*
X127775264Y-114860906D01*
X127660055Y-114947152D01*
X127660052Y-114947155D01*
X127573806Y-115062364D01*
X127573802Y-115062371D01*
X127523508Y-115197217D01*
X127517101Y-115256816D01*
X127517100Y-115256835D01*
X126282397Y-115256835D01*
X126275998Y-115197327D01*
X126275996Y-115197320D01*
X126225754Y-115062613D01*
X126225750Y-115062606D01*
X126139590Y-114947512D01*
X126139587Y-114947509D01*
X126024493Y-114861349D01*
X126024486Y-114861345D01*
X125889779Y-114811103D01*
X125889772Y-114811101D01*
X125830244Y-114804700D01*
X125460900Y-114804700D01*
X125460900Y-115550000D01*
X124960900Y-115550000D01*
X124960900Y-114804700D01*
X124591555Y-114804700D01*
X124532027Y-114811101D01*
X124532020Y-114811103D01*
X124397313Y-114861345D01*
X124397306Y-114861349D01*
X124282212Y-114947509D01*
X124282209Y-114947512D01*
X124196049Y-115062606D01*
X124196045Y-115062613D01*
X124145803Y-115197320D01*
X124145801Y-115197327D01*
X124139400Y-115256855D01*
X118451622Y-115256855D01*
X118573232Y-115191853D01*
X118875544Y-114989854D01*
X119156601Y-114759197D01*
X119413697Y-114502101D01*
X119644354Y-114221044D01*
X119846353Y-113918732D01*
X120017747Y-113598076D01*
X120156886Y-113262164D01*
X120262430Y-112914233D01*
X120262432Y-112914223D01*
X120262435Y-112914212D01*
X120332372Y-112562606D01*
X120333362Y-112557631D01*
X120369000Y-112195794D01*
X120369000Y-111832206D01*
X120360562Y-111746532D01*
X120348811Y-111627220D01*
X120348811Y-111627218D01*
X120348214Y-111621153D01*
X123099500Y-111621153D01*
X123099500Y-111778846D01*
X123130261Y-111933489D01*
X123130264Y-111933501D01*
X123190602Y-112079172D01*
X123190609Y-112079185D01*
X123278209Y-112210287D01*
X123278210Y-112210288D01*
X123278211Y-112210289D01*
X123363182Y-112295260D01*
X123377888Y-112322191D01*
X123394477Y-112348005D01*
X123395368Y-112354204D01*
X123396666Y-112356581D01*
X123399500Y-112382940D01*
X123399500Y-112620234D01*
X123379815Y-112687273D01*
X123378602Y-112689125D01*
X123290609Y-112820814D01*
X123290602Y-112820827D01*
X123230264Y-112966498D01*
X123230261Y-112966510D01*
X123199500Y-113121153D01*
X123199500Y-113278846D01*
X123230261Y-113433489D01*
X123230264Y-113433501D01*
X123290602Y-113579172D01*
X123290609Y-113579185D01*
X123378210Y-113710288D01*
X123378213Y-113710292D01*
X123489707Y-113821786D01*
X123489711Y-113821789D01*
X123620814Y-113909390D01*
X123620827Y-113909397D01*
X123741974Y-113959577D01*
X123766503Y-113969737D01*
X123921153Y-114000499D01*
X123921156Y-114000500D01*
X123921158Y-114000500D01*
X124078844Y-114000500D01*
X124078845Y-114000499D01*
X124233497Y-113969737D01*
X124379179Y-113909394D01*
X124381110Y-113908103D01*
X124382276Y-113907737D01*
X124384546Y-113906525D01*
X124384776Y-113906955D01*
X124447786Y-113887226D01*
X124515166Y-113905710D01*
X124518850Y-113908077D01*
X124520821Y-113909394D01*
X124520824Y-113909395D01*
X124520827Y-113909397D01*
X124641974Y-113959577D01*
X124666503Y-113969737D01*
X124821153Y-114000499D01*
X124821156Y-114000500D01*
X124821158Y-114000500D01*
X124978844Y-114000500D01*
X124978845Y-114000499D01*
X125133497Y-113969737D01*
X125279179Y-113909394D01*
X125410289Y-113821789D01*
X125521789Y-113710289D01*
X125609394Y-113579179D01*
X125669737Y-113433497D01*
X125700500Y-113278842D01*
X125700500Y-113121158D01*
X125700500Y-113121155D01*
X125700499Y-113121153D01*
X125692150Y-113079179D01*
X125669737Y-112966503D01*
X125648078Y-112914212D01*
X125609397Y-112820827D01*
X125609390Y-112820814D01*
X125521398Y-112689125D01*
X125500520Y-112622447D01*
X125500500Y-112620234D01*
X125500500Y-111644765D01*
X125520185Y-111577726D01*
X125521398Y-111575874D01*
X125609390Y-111444185D01*
X125609390Y-111444184D01*
X125609394Y-111444179D01*
X125669737Y-111298497D01*
X125700500Y-111143842D01*
X125700500Y-110986158D01*
X125700500Y-110986155D01*
X125700499Y-110986153D01*
X125683819Y-110902297D01*
X125669737Y-110831503D01*
X125626331Y-110726710D01*
X125609397Y-110685827D01*
X125609390Y-110685814D01*
X125521789Y-110554711D01*
X125521786Y-110554707D01*
X125410292Y-110443213D01*
X125410288Y-110443210D01*
X125279185Y-110355609D01*
X125279172Y-110355602D01*
X125133501Y-110295264D01*
X125133489Y-110295261D01*
X124978845Y-110264500D01*
X124978842Y-110264500D01*
X124821158Y-110264500D01*
X124821155Y-110264500D01*
X124666510Y-110295261D01*
X124666498Y-110295264D01*
X124520827Y-110355602D01*
X124520814Y-110355609D01*
X124389711Y-110443210D01*
X124389707Y-110443213D01*
X124278213Y-110554707D01*
X124278210Y-110554711D01*
X124190609Y-110685814D01*
X124190604Y-110685824D01*
X124131658Y-110828133D01*
X124087817Y-110882536D01*
X124021523Y-110904601D01*
X123992906Y-110902297D01*
X123978845Y-110899500D01*
X123978842Y-110899500D01*
X123821158Y-110899500D01*
X123821155Y-110899500D01*
X123666510Y-110930261D01*
X123666498Y-110930264D01*
X123520827Y-110990602D01*
X123520814Y-110990609D01*
X123389711Y-111078210D01*
X123389707Y-111078213D01*
X123278213Y-111189707D01*
X123278210Y-111189711D01*
X123190609Y-111320814D01*
X123190602Y-111320827D01*
X123130264Y-111466498D01*
X123130261Y-111466510D01*
X123099500Y-111621153D01*
X120348214Y-111621153D01*
X120333362Y-111470369D01*
X120262435Y-111113787D01*
X120262432Y-111113776D01*
X120262431Y-111113773D01*
X120262430Y-111113767D01*
X120156886Y-110765836D01*
X120017747Y-110429924D01*
X120015498Y-110425717D01*
X119846359Y-110109279D01*
X119846358Y-110109277D01*
X119846353Y-110109268D01*
X119644354Y-109806956D01*
X119413697Y-109525899D01*
X119413696Y-109525898D01*
X119413692Y-109525893D01*
X119156606Y-109268807D01*
X118875549Y-109038150D01*
X118875548Y-109038149D01*
X118875544Y-109038146D01*
X118573232Y-108836147D01*
X118573227Y-108836144D01*
X118573220Y-108836140D01*
X118252583Y-108664756D01*
X118252578Y-108664754D01*
X117916665Y-108525614D01*
X117577495Y-108422728D01*
X117568733Y-108420070D01*
X117568732Y-108420069D01*
X117568723Y-108420067D01*
X117568712Y-108420064D01*
X117212130Y-108349137D01*
X116939611Y-108322296D01*
X116850294Y-108313500D01*
X116486706Y-108313500D01*
X116404179Y-108321628D01*
X116124869Y-108349137D01*
X115768287Y-108420064D01*
X115768276Y-108420067D01*
X115420334Y-108525614D01*
X115084421Y-108664754D01*
X115084416Y-108664756D01*
X114763779Y-108836140D01*
X114763761Y-108836151D01*
X114461464Y-109038140D01*
X114461450Y-109038150D01*
X114180393Y-109268807D01*
X113923307Y-109525893D01*
X113828853Y-109640986D01*
X113771107Y-109680320D01*
X113701263Y-109682191D01*
X113641494Y-109646003D01*
X113610779Y-109583247D01*
X113609000Y-109562321D01*
X113609000Y-86473920D01*
X123577999Y-86473920D01*
X123606840Y-86618907D01*
X123606843Y-86618917D01*
X123663412Y-86755488D01*
X123663419Y-86755501D01*
X123707102Y-86820876D01*
X123727980Y-86887553D01*
X123728000Y-86889767D01*
X123728000Y-87710232D01*
X123708315Y-87777271D01*
X123707103Y-87779122D01*
X123663414Y-87844508D01*
X123606843Y-87981082D01*
X123606840Y-87981092D01*
X123578000Y-88126079D01*
X123578000Y-88126082D01*
X123578000Y-88273918D01*
X123578000Y-88273920D01*
X123577999Y-88273920D01*
X123606840Y-88418907D01*
X123606843Y-88418917D01*
X123663412Y-88555488D01*
X123663419Y-88555501D01*
X123745548Y-88678415D01*
X123745551Y-88678419D01*
X123850080Y-88782948D01*
X123850084Y-88782951D01*
X123972998Y-88865080D01*
X123973011Y-88865087D01*
X124109582Y-88921656D01*
X124109587Y-88921658D01*
X124109591Y-88921658D01*
X124109592Y-88921659D01*
X124254579Y-88950500D01*
X124254582Y-88950500D01*
X124402420Y-88950500D01*
X124499962Y-88931096D01*
X124547413Y-88921658D01*
X124683995Y-88865084D01*
X124806916Y-88782951D01*
X124911451Y-88678416D01*
X124993584Y-88555495D01*
X125050158Y-88418913D01*
X125079000Y-88273918D01*
X125079000Y-88126082D01*
X125079000Y-88126079D01*
X125050159Y-87981092D01*
X125050158Y-87981091D01*
X125050158Y-87981087D01*
X125041172Y-87959394D01*
X125028400Y-87928558D01*
X124993584Y-87844505D01*
X124949896Y-87779121D01*
X124929020Y-87712444D01*
X124929000Y-87710232D01*
X124929000Y-86889767D01*
X124948685Y-86822728D01*
X124949898Y-86820876D01*
X124993580Y-86755501D01*
X124993580Y-86755500D01*
X124993584Y-86755495D01*
X125050158Y-86618913D01*
X125063687Y-86550902D01*
X125079000Y-86473920D01*
X125079000Y-86326079D01*
X125050159Y-86181092D01*
X125050158Y-86181091D01*
X125050158Y-86181087D01*
X125050156Y-86181082D01*
X124993587Y-86044511D01*
X124993580Y-86044498D01*
X124911451Y-85921584D01*
X124911448Y-85921580D01*
X124806919Y-85817051D01*
X124806915Y-85817048D01*
X124684001Y-85734919D01*
X124683988Y-85734912D01*
X124547417Y-85678343D01*
X124547407Y-85678340D01*
X124402420Y-85649500D01*
X124402418Y-85649500D01*
X124254582Y-85649500D01*
X124254580Y-85649500D01*
X124109592Y-85678340D01*
X124109582Y-85678343D01*
X123973011Y-85734912D01*
X123972998Y-85734919D01*
X123850084Y-85817048D01*
X123850080Y-85817051D01*
X123745551Y-85921580D01*
X123745548Y-85921584D01*
X123663419Y-86044498D01*
X123663412Y-86044511D01*
X123606843Y-86181082D01*
X123606840Y-86181092D01*
X123578000Y-86326079D01*
X123578000Y-86326082D01*
X123578000Y-86473918D01*
X123578000Y-86473920D01*
X123577999Y-86473920D01*
X113609000Y-86473920D01*
X113609000Y-72873920D01*
X122949499Y-72873920D01*
X122978340Y-73018907D01*
X122978343Y-73018917D01*
X123034912Y-73155488D01*
X123034919Y-73155501D01*
X123117048Y-73278415D01*
X123117051Y-73278419D01*
X123221580Y-73382948D01*
X123221588Y-73382954D01*
X123344494Y-73465077D01*
X123344497Y-73465078D01*
X123344505Y-73465084D01*
X123344511Y-73465086D01*
X123344512Y-73465087D01*
X123372797Y-73476803D01*
X123413026Y-73503683D01*
X127772316Y-77862973D01*
X127799196Y-77903201D01*
X127810914Y-77931491D01*
X127810919Y-77931501D01*
X127893048Y-78054415D01*
X127893051Y-78054419D01*
X127997580Y-78158948D01*
X127997584Y-78158951D01*
X128120498Y-78241080D01*
X128120511Y-78241087D01*
X128217438Y-78281235D01*
X128257087Y-78297658D01*
X128257091Y-78297658D01*
X128257092Y-78297659D01*
X128402079Y-78326500D01*
X128402082Y-78326500D01*
X130787125Y-78326500D01*
X130854164Y-78346185D01*
X130899919Y-78398989D01*
X130909863Y-78468147D01*
X130908742Y-78474691D01*
X130899500Y-78521153D01*
X130899500Y-78678846D01*
X130930261Y-78833489D01*
X130930264Y-78833501D01*
X130990602Y-78979172D01*
X130990609Y-78979185D01*
X131078210Y-79110288D01*
X131078213Y-79110292D01*
X131189707Y-79221786D01*
X131189711Y-79221789D01*
X131320814Y-79309390D01*
X131320827Y-79309397D01*
X131466498Y-79369735D01*
X131466503Y-79369737D01*
X131621153Y-79400499D01*
X131621156Y-79400500D01*
X131621158Y-79400500D01*
X131778844Y-79400500D01*
X131778845Y-79400499D01*
X131933497Y-79369737D01*
X132079179Y-79309394D01*
X132092491Y-79300499D01*
X132210875Y-79221398D01*
X132277553Y-79200520D01*
X132279766Y-79200500D01*
X134474684Y-79200500D01*
X134522136Y-79209939D01*
X134549801Y-79221398D01*
X134666503Y-79269737D01*
X134821153Y-79300499D01*
X134821156Y-79300500D01*
X134821158Y-79300500D01*
X134978844Y-79300500D01*
X134978845Y-79300499D01*
X135133497Y-79269737D01*
X135279179Y-79209394D01*
X135410289Y-79121789D01*
X135521789Y-79010289D01*
X135609394Y-78879179D01*
X135669737Y-78733497D01*
X135700500Y-78578842D01*
X135700500Y-78421158D01*
X135700500Y-78421155D01*
X135700499Y-78421153D01*
X135680275Y-78319480D01*
X135669737Y-78266503D01*
X135667673Y-78261520D01*
X135609397Y-78120827D01*
X135609390Y-78120814D01*
X135521789Y-77989711D01*
X135521786Y-77989707D01*
X135410292Y-77878213D01*
X135410288Y-77878210D01*
X135279185Y-77790609D01*
X135279172Y-77790602D01*
X135133501Y-77730264D01*
X135133489Y-77730261D01*
X134978845Y-77699500D01*
X134978842Y-77699500D01*
X134821158Y-77699500D01*
X134821155Y-77699500D01*
X134666510Y-77730261D01*
X134666498Y-77730264D01*
X134522136Y-77790061D01*
X134474684Y-77799500D01*
X133913223Y-77799500D01*
X133846184Y-77779815D01*
X133800429Y-77727011D01*
X133790485Y-77657853D01*
X133791606Y-77651308D01*
X133807000Y-77573920D01*
X133807000Y-77426080D01*
X133778158Y-77281089D01*
X133778157Y-77281086D01*
X133753065Y-77220507D01*
X133753065Y-77220506D01*
X133721587Y-77144511D01*
X133721580Y-77144498D01*
X133639451Y-77021584D01*
X133639448Y-77021580D01*
X133534919Y-76917051D01*
X133534915Y-76917048D01*
X133412001Y-76834919D01*
X133411988Y-76834912D01*
X133275417Y-76778343D01*
X133275407Y-76778340D01*
X133130420Y-76749500D01*
X133130418Y-76749500D01*
X133130417Y-76749500D01*
X132982582Y-76749500D01*
X132982580Y-76749500D01*
X132837592Y-76778340D01*
X132837582Y-76778343D01*
X132746524Y-76816061D01*
X132699072Y-76825500D01*
X128767519Y-76825500D01*
X128700480Y-76805815D01*
X128679838Y-76789181D01*
X124403683Y-72513026D01*
X124376803Y-72472797D01*
X124365087Y-72444512D01*
X124365086Y-72444511D01*
X124365084Y-72444505D01*
X124282951Y-72321584D01*
X124282948Y-72321580D01*
X124178419Y-72217051D01*
X124178415Y-72217048D01*
X124055501Y-72134919D01*
X124055488Y-72134912D01*
X123918917Y-72078343D01*
X123918907Y-72078340D01*
X123773920Y-72049500D01*
X123773918Y-72049500D01*
X123626082Y-72049500D01*
X123626080Y-72049500D01*
X123481092Y-72078340D01*
X123481082Y-72078343D01*
X123344511Y-72134912D01*
X123344498Y-72134919D01*
X123221584Y-72217048D01*
X123221580Y-72217051D01*
X123117051Y-72321580D01*
X123117048Y-72321584D01*
X123034919Y-72444498D01*
X123034912Y-72444511D01*
X122978343Y-72581082D01*
X122978340Y-72581092D01*
X122949500Y-72726079D01*
X122949500Y-72726082D01*
X122949500Y-72873918D01*
X122949500Y-72873920D01*
X122949499Y-72873920D01*
X113609000Y-72873920D01*
X113609000Y-70300054D01*
X134099498Y-70300054D01*
X134140423Y-70452785D01*
X134169358Y-70502900D01*
X134169359Y-70502904D01*
X134169360Y-70502904D01*
X134219479Y-70589714D01*
X134219481Y-70589717D01*
X134338349Y-70708585D01*
X134338355Y-70708590D01*
X134931284Y-71301519D01*
X135068215Y-71380577D01*
X135220943Y-71421500D01*
X135220945Y-71421500D01*
X135379055Y-71421500D01*
X135379057Y-71421500D01*
X135531785Y-71380577D01*
X135668716Y-71301519D01*
X135780519Y-71189716D01*
X135788569Y-71175772D01*
X135808269Y-71150096D01*
X135882951Y-71075416D01*
X135965084Y-70952495D01*
X136021658Y-70815913D01*
X136031096Y-70768462D01*
X136050500Y-70670920D01*
X136050500Y-70523079D01*
X136021659Y-70378092D01*
X136021658Y-70378091D01*
X136021658Y-70378087D01*
X135996457Y-70317246D01*
X135965087Y-70241511D01*
X135965080Y-70241498D01*
X135882951Y-70118584D01*
X135882948Y-70118580D01*
X135778419Y-70014051D01*
X135778415Y-70014048D01*
X135655501Y-69931919D01*
X135655488Y-69931912D01*
X135518917Y-69875343D01*
X135518908Y-69875340D01*
X135400307Y-69851748D01*
X135338397Y-69819362D01*
X135303823Y-69758646D01*
X135300500Y-69730131D01*
X135300500Y-69024500D01*
X135320185Y-68957461D01*
X135372989Y-68911706D01*
X135424500Y-68900500D01*
X136631233Y-68900500D01*
X136698272Y-68920185D01*
X136700124Y-68921398D01*
X136765498Y-68965080D01*
X136765511Y-68965087D01*
X136902082Y-69021656D01*
X136902087Y-69021658D01*
X136902091Y-69021658D01*
X136902092Y-69021659D01*
X137047079Y-69050500D01*
X137047082Y-69050500D01*
X137194920Y-69050500D01*
X137292462Y-69031096D01*
X137339913Y-69021658D01*
X137445547Y-68977902D01*
X137476488Y-68965087D01*
X137476488Y-68965086D01*
X137476495Y-68965084D01*
X137599416Y-68882951D01*
X137703951Y-68778416D01*
X137786084Y-68655495D01*
X137842658Y-68518913D01*
X137871500Y-68373918D01*
X137871500Y-68226082D01*
X137871500Y-68226079D01*
X137842659Y-68081092D01*
X137842658Y-68081091D01*
X137842658Y-68081087D01*
X137832758Y-68057187D01*
X137786087Y-67944511D01*
X137786080Y-67944498D01*
X137703951Y-67821584D01*
X137703948Y-67821580D01*
X137599419Y-67717051D01*
X137599415Y-67717048D01*
X137476501Y-67634919D01*
X137476488Y-67634912D01*
X137339917Y-67578343D01*
X137339907Y-67578340D01*
X137194920Y-67549500D01*
X137194918Y-67549500D01*
X137047082Y-67549500D01*
X137047080Y-67549500D01*
X136902092Y-67578340D01*
X136902082Y-67578343D01*
X136765511Y-67634912D01*
X136765498Y-67634919D01*
X136700124Y-67678602D01*
X136633447Y-67699480D01*
X136631233Y-67699500D01*
X135207669Y-67699500D01*
X135207653Y-67699499D01*
X135200057Y-67699499D01*
X135041943Y-67699499D01*
X134927397Y-67730192D01*
X134889214Y-67740423D01*
X134869933Y-67751556D01*
X134869930Y-67751557D01*
X134752290Y-67819475D01*
X134752282Y-67819481D01*
X134219482Y-68352281D01*
X134219476Y-68352289D01*
X134206990Y-68373917D01*
X134206990Y-68373918D01*
X134140423Y-68489215D01*
X134099499Y-68641943D01*
X134099499Y-68800057D01*
X134099499Y-68800059D01*
X134099500Y-68810053D01*
X134099500Y-70134330D01*
X134099499Y-70134348D01*
X134099499Y-70300054D01*
X134099498Y-70300054D01*
X113609000Y-70300054D01*
X113609000Y-67995678D01*
X113628685Y-67928639D01*
X113681489Y-67882884D01*
X113750647Y-67872940D01*
X113814203Y-67901965D01*
X113828852Y-67917012D01*
X113849430Y-67942086D01*
X113923307Y-68032106D01*
X114180393Y-68289192D01*
X114180398Y-68289196D01*
X114180399Y-68289197D01*
X114461456Y-68519854D01*
X114763768Y-68721853D01*
X114763777Y-68721858D01*
X114763779Y-68721859D01*
X115084416Y-68893243D01*
X115084418Y-68893243D01*
X115084424Y-68893247D01*
X115420336Y-69032386D01*
X115768267Y-69137930D01*
X115768273Y-69137931D01*
X115768276Y-69137932D01*
X115768287Y-69137935D01*
X116124869Y-69208862D01*
X116486706Y-69244500D01*
X116486709Y-69244500D01*
X116850291Y-69244500D01*
X116850294Y-69244500D01*
X117212131Y-69208862D01*
X117281545Y-69195054D01*
X117568712Y-69137935D01*
X117568723Y-69137932D01*
X117568723Y-69137931D01*
X117568733Y-69137930D01*
X117916664Y-69032386D01*
X118252576Y-68893247D01*
X118573232Y-68721853D01*
X118875544Y-68519854D01*
X119156601Y-68289197D01*
X119413697Y-68032101D01*
X119644354Y-67751044D01*
X119646492Y-67747844D01*
X124681750Y-67747844D01*
X124688151Y-67807372D01*
X124688153Y-67807379D01*
X124738395Y-67942086D01*
X124738399Y-67942093D01*
X124824559Y-68057187D01*
X124824562Y-68057190D01*
X124939656Y-68143350D01*
X124939663Y-68143354D01*
X125074370Y-68193596D01*
X125074377Y-68193598D01*
X125133905Y-68199999D01*
X125133922Y-68200000D01*
X126406750Y-68200000D01*
X126406750Y-67953553D01*
X126406749Y-67953552D01*
X126906750Y-67953552D01*
X126906750Y-68200000D01*
X128179578Y-68200000D01*
X128179594Y-68199999D01*
X128239122Y-68193598D01*
X128239129Y-68193596D01*
X128373836Y-68143354D01*
X128373843Y-68143350D01*
X128488937Y-68057190D01*
X128488940Y-68057187D01*
X128575100Y-67942093D01*
X128575104Y-67942086D01*
X128625346Y-67807379D01*
X128625348Y-67807372D01*
X128631749Y-67747844D01*
X128631750Y-67747827D01*
X128631750Y-65500000D01*
X128060302Y-65500000D01*
X127660303Y-65900000D01*
X128053454Y-66293151D01*
X128086939Y-66354474D01*
X128081955Y-66424166D01*
X128053454Y-66468513D01*
X127971968Y-66549999D01*
X128053454Y-66631485D01*
X128086939Y-66692808D01*
X128081955Y-66762500D01*
X128053454Y-66806848D01*
X127483527Y-67376777D01*
X126906750Y-67953552D01*
X126406749Y-67953552D01*
X125829973Y-67376777D01*
X125623359Y-67170163D01*
X125856750Y-67170163D01*
X125856750Y-67229837D01*
X125879586Y-67284968D01*
X125921782Y-67327164D01*
X125976913Y-67350000D01*
X126036587Y-67350000D01*
X126091718Y-67327164D01*
X126133914Y-67284968D01*
X126156750Y-67229837D01*
X126156750Y-67200000D01*
X126360303Y-67200000D01*
X126406749Y-67246446D01*
X126406750Y-67246446D01*
X126906750Y-67246446D01*
X126953196Y-67200001D01*
X126953196Y-67199999D01*
X126923360Y-67170163D01*
X127156750Y-67170163D01*
X127156750Y-67229837D01*
X127179586Y-67284968D01*
X127221782Y-67327164D01*
X127276913Y-67350000D01*
X127336587Y-67350000D01*
X127391718Y-67327164D01*
X127433914Y-67284968D01*
X127456750Y-67229837D01*
X127456750Y-67170163D01*
X127433914Y-67115032D01*
X127391718Y-67072836D01*
X127336587Y-67050000D01*
X127276913Y-67050000D01*
X127221782Y-67072836D01*
X127179586Y-67115032D01*
X127156750Y-67170163D01*
X126923360Y-67170163D01*
X126906750Y-67153553D01*
X126906750Y-67246446D01*
X126406750Y-67246446D01*
X126406750Y-67153553D01*
X126360303Y-67200000D01*
X126156750Y-67200000D01*
X126156750Y-67170163D01*
X126133914Y-67115032D01*
X126091718Y-67072836D01*
X126036587Y-67050000D01*
X125976913Y-67050000D01*
X125921782Y-67072836D01*
X125879586Y-67115032D01*
X125856750Y-67170163D01*
X125623359Y-67170163D01*
X125260044Y-66806848D01*
X125226559Y-66745525D01*
X125231543Y-66675833D01*
X125260044Y-66631485D01*
X125341529Y-66550000D01*
X125710303Y-66550000D01*
X126006750Y-66846446D01*
X126006751Y-66846446D01*
X126303196Y-66550001D01*
X126303196Y-66550000D01*
X127010303Y-66550000D01*
X127306750Y-66846446D01*
X127306751Y-66846446D01*
X127603196Y-66550001D01*
X127603196Y-66549999D01*
X127306751Y-66253553D01*
X127306750Y-66253553D01*
X127010303Y-66550000D01*
X126303196Y-66550000D01*
X126303196Y-66549999D01*
X126006751Y-66253553D01*
X126006750Y-66253553D01*
X125710303Y-66550000D01*
X125341529Y-66550000D01*
X125341530Y-66549999D01*
X125260044Y-66468513D01*
X125226559Y-66407190D01*
X125231543Y-66337498D01*
X125260044Y-66293151D01*
X125653196Y-65899999D01*
X125623360Y-65870163D01*
X125856750Y-65870163D01*
X125856750Y-65929837D01*
X125879586Y-65984968D01*
X125921782Y-66027164D01*
X125976913Y-66050000D01*
X126036587Y-66050000D01*
X126091718Y-66027164D01*
X126133914Y-65984968D01*
X126156750Y-65929837D01*
X126156750Y-65900000D01*
X126360303Y-65900000D01*
X126406749Y-65946446D01*
X126406750Y-65946446D01*
X126906750Y-65946446D01*
X126953196Y-65900001D01*
X126953196Y-65899999D01*
X126923360Y-65870163D01*
X127156750Y-65870163D01*
X127156750Y-65929837D01*
X127179586Y-65984968D01*
X127221782Y-66027164D01*
X127276913Y-66050000D01*
X127336587Y-66050000D01*
X127391718Y-66027164D01*
X127433914Y-65984968D01*
X127456750Y-65929837D01*
X127456750Y-65870163D01*
X127433914Y-65815032D01*
X127391718Y-65772836D01*
X127336587Y-65750000D01*
X127276913Y-65750000D01*
X127221782Y-65772836D01*
X127179586Y-65815032D01*
X127156750Y-65870163D01*
X126923360Y-65870163D01*
X126906750Y-65853553D01*
X126906750Y-65946446D01*
X126406750Y-65946446D01*
X126406750Y-65853553D01*
X126360303Y-65900000D01*
X126156750Y-65900000D01*
X126156750Y-65870163D01*
X126133914Y-65815032D01*
X126091718Y-65772836D01*
X126036587Y-65750000D01*
X125976913Y-65750000D01*
X125921782Y-65772836D01*
X125879586Y-65815032D01*
X125856750Y-65870163D01*
X125623360Y-65870163D01*
X125253197Y-65500000D01*
X125960304Y-65500000D01*
X126006750Y-65546445D01*
X126053196Y-65500000D01*
X127260304Y-65500000D01*
X127306750Y-65546445D01*
X127353196Y-65500000D01*
X127260304Y-65500000D01*
X126053196Y-65500000D01*
X125960304Y-65500000D01*
X125253197Y-65500000D01*
X124681750Y-65500000D01*
X124681750Y-67747844D01*
X119646492Y-67747844D01*
X119846353Y-67448732D01*
X120017747Y-67128076D01*
X120156886Y-66792164D01*
X120262430Y-66444233D01*
X120262432Y-66444223D01*
X120262435Y-66444212D01*
X120319554Y-66157045D01*
X120333362Y-66087631D01*
X120369000Y-65725794D01*
X120369000Y-65362206D01*
X143708000Y-65362206D01*
X143708000Y-65725794D01*
X143714539Y-65792184D01*
X143743637Y-66087630D01*
X143814564Y-66444212D01*
X143814567Y-66444223D01*
X143920114Y-66792165D01*
X144059254Y-67128078D01*
X144059256Y-67128083D01*
X144230640Y-67448720D01*
X144230651Y-67448738D01*
X144432640Y-67751035D01*
X144432650Y-67751049D01*
X144663307Y-68032106D01*
X144920393Y-68289192D01*
X144920398Y-68289196D01*
X144920399Y-68289197D01*
X145201456Y-68519854D01*
X145503768Y-68721853D01*
X145503777Y-68721858D01*
X145503779Y-68721859D01*
X145824416Y-68893243D01*
X145824418Y-68893243D01*
X145824424Y-68893247D01*
X146160336Y-69032386D01*
X146508267Y-69137930D01*
X146508273Y-69137931D01*
X146508276Y-69137932D01*
X146508287Y-69137935D01*
X146864869Y-69208862D01*
X147226706Y-69244500D01*
X147226709Y-69244500D01*
X147590291Y-69244500D01*
X147590294Y-69244500D01*
X147952131Y-69208862D01*
X148021545Y-69195054D01*
X148308712Y-69137935D01*
X148308723Y-69137932D01*
X148308723Y-69137931D01*
X148308733Y-69137930D01*
X148656664Y-69032386D01*
X148992576Y-68893247D01*
X149313232Y-68721853D01*
X149615544Y-68519854D01*
X149896601Y-68289197D01*
X150153697Y-68032101D01*
X150384354Y-67751044D01*
X150586353Y-67448732D01*
X150757747Y-67128076D01*
X150896886Y-66792164D01*
X151002430Y-66444233D01*
X151002432Y-66444223D01*
X151002435Y-66444212D01*
X151059554Y-66157045D01*
X151073362Y-66087631D01*
X151109000Y-65725794D01*
X151109000Y-65362206D01*
X151073362Y-65000369D01*
X151064050Y-64953553D01*
X151002435Y-64643787D01*
X151002432Y-64643776D01*
X151002431Y-64643773D01*
X151002430Y-64643767D01*
X150896886Y-64295836D01*
X150757747Y-63959924D01*
X150610134Y-63683760D01*
X150586359Y-63639279D01*
X150586358Y-63639277D01*
X150586353Y-63639268D01*
X150384354Y-63336956D01*
X150153697Y-63055899D01*
X150153696Y-63055898D01*
X150153692Y-63055893D01*
X149896606Y-62798807D01*
X149615549Y-62568150D01*
X149615548Y-62568149D01*
X149615544Y-62568146D01*
X149313232Y-62366147D01*
X149313227Y-62366144D01*
X149313220Y-62366140D01*
X148992583Y-62194756D01*
X148992578Y-62194754D01*
X148656665Y-62055614D01*
X148308723Y-61950067D01*
X148308712Y-61950064D01*
X147952130Y-61879137D01*
X147679611Y-61852296D01*
X147590294Y-61843500D01*
X147226706Y-61843500D01*
X147144179Y-61851628D01*
X146864869Y-61879137D01*
X146508287Y-61950064D01*
X146508276Y-61950067D01*
X146160334Y-62055614D01*
X145824421Y-62194754D01*
X145824416Y-62194756D01*
X145503779Y-62366140D01*
X145503761Y-62366151D01*
X145201464Y-62568140D01*
X145201450Y-62568150D01*
X144920393Y-62798807D01*
X144663307Y-63055893D01*
X144432650Y-63336950D01*
X144432640Y-63336964D01*
X144230651Y-63639261D01*
X144230640Y-63639279D01*
X144059256Y-63959916D01*
X144059254Y-63959921D01*
X143920114Y-64295834D01*
X143814567Y-64643776D01*
X143814564Y-64643787D01*
X143743637Y-65000369D01*
X143716626Y-65274625D01*
X143708000Y-65362206D01*
X120369000Y-65362206D01*
X120333362Y-65000369D01*
X120324050Y-64953553D01*
X120262435Y-64643787D01*
X120262432Y-64643776D01*
X120262431Y-64643773D01*
X120262430Y-64643767D01*
X120156886Y-64295836D01*
X120017747Y-63959924D01*
X119870134Y-63683760D01*
X119846359Y-63639279D01*
X119846358Y-63639277D01*
X119846353Y-63639268D01*
X119644354Y-63336956D01*
X119413697Y-63055899D01*
X119413696Y-63055898D01*
X119413692Y-63055893D01*
X119156606Y-62798807D01*
X119099760Y-62752155D01*
X124681750Y-62752155D01*
X124681750Y-65000000D01*
X125253197Y-65000000D01*
X125253197Y-64999999D01*
X125960303Y-64999999D01*
X125960304Y-65000000D01*
X126053196Y-65000000D01*
X126053196Y-64999999D01*
X127260303Y-64999999D01*
X127260304Y-65000000D01*
X127353196Y-65000000D01*
X127353196Y-64999999D01*
X127306750Y-64953553D01*
X127260303Y-64999999D01*
X126053196Y-64999999D01*
X126006750Y-64953553D01*
X125960303Y-64999999D01*
X125253197Y-64999999D01*
X125369971Y-64883226D01*
X125653196Y-64600000D01*
X125623359Y-64570163D01*
X125856750Y-64570163D01*
X125856750Y-64629837D01*
X125879586Y-64684968D01*
X125921782Y-64727164D01*
X125976913Y-64750000D01*
X126036587Y-64750000D01*
X126091718Y-64727164D01*
X126133914Y-64684968D01*
X126156750Y-64629837D01*
X126156750Y-64600000D01*
X126360303Y-64600000D01*
X126406749Y-64646446D01*
X126406750Y-64646446D01*
X126906750Y-64646446D01*
X126953196Y-64600001D01*
X126953196Y-64599999D01*
X126923360Y-64570163D01*
X127156750Y-64570163D01*
X127156750Y-64629837D01*
X127179586Y-64684968D01*
X127221782Y-64727164D01*
X127276913Y-64750000D01*
X127336587Y-64750000D01*
X127391718Y-64727164D01*
X127433914Y-64684968D01*
X127456750Y-64629837D01*
X127456750Y-64570163D01*
X127433914Y-64515032D01*
X127391718Y-64472836D01*
X127336587Y-64450000D01*
X127276913Y-64450000D01*
X127221782Y-64472836D01*
X127179586Y-64515032D01*
X127156750Y-64570163D01*
X126923360Y-64570163D01*
X126906750Y-64553553D01*
X126906750Y-64646446D01*
X126406750Y-64646446D01*
X126406750Y-64553553D01*
X126360303Y-64600000D01*
X126156750Y-64600000D01*
X126156750Y-64570163D01*
X126133914Y-64515032D01*
X126091718Y-64472836D01*
X126036587Y-64450000D01*
X125976913Y-64450000D01*
X125921782Y-64472836D01*
X125879586Y-64515032D01*
X125856750Y-64570163D01*
X125623359Y-64570163D01*
X125260044Y-64206848D01*
X125226559Y-64145525D01*
X125231543Y-64075833D01*
X125260044Y-64031485D01*
X125341529Y-63950000D01*
X125710302Y-63950000D01*
X126006750Y-64246446D01*
X126006751Y-64246446D01*
X126303196Y-63950001D01*
X126303196Y-63950000D01*
X127010303Y-63950000D01*
X127306750Y-64246446D01*
X127306751Y-64246446D01*
X127603196Y-63950001D01*
X127603196Y-63949999D01*
X127306751Y-63653553D01*
X127306750Y-63653553D01*
X127010303Y-63950000D01*
X126303196Y-63950000D01*
X126303196Y-63949999D01*
X126006751Y-63653553D01*
X126006750Y-63653553D01*
X125710302Y-63950000D01*
X125341529Y-63950000D01*
X125341530Y-63949999D01*
X125260044Y-63868513D01*
X125226559Y-63807190D01*
X125231543Y-63737498D01*
X125260044Y-63693151D01*
X125683033Y-63270163D01*
X125856750Y-63270163D01*
X125856750Y-63329837D01*
X125879586Y-63384968D01*
X125921782Y-63427164D01*
X125976913Y-63450000D01*
X126036587Y-63450000D01*
X126091718Y-63427164D01*
X126133914Y-63384968D01*
X126156750Y-63329837D01*
X126156750Y-63300000D01*
X126360303Y-63300000D01*
X126406749Y-63346446D01*
X126406750Y-63346446D01*
X126906750Y-63346446D01*
X126953196Y-63300001D01*
X126953196Y-63299999D01*
X126923360Y-63270163D01*
X127156750Y-63270163D01*
X127156750Y-63329837D01*
X127179586Y-63384968D01*
X127221782Y-63427164D01*
X127276913Y-63450000D01*
X127336587Y-63450000D01*
X127391718Y-63427164D01*
X127433914Y-63384968D01*
X127456750Y-63329837D01*
X127456750Y-63270163D01*
X127433914Y-63215032D01*
X127391718Y-63172836D01*
X127336587Y-63150000D01*
X127276913Y-63150000D01*
X127221782Y-63172836D01*
X127179586Y-63215032D01*
X127156750Y-63270163D01*
X126923360Y-63270163D01*
X126906750Y-63253553D01*
X126906750Y-63346446D01*
X126406750Y-63346446D01*
X126406750Y-63253553D01*
X126360303Y-63300000D01*
X126156750Y-63300000D01*
X126156750Y-63270163D01*
X126133914Y-63215032D01*
X126091718Y-63172836D01*
X126036587Y-63150000D01*
X125976913Y-63150000D01*
X125921782Y-63172836D01*
X125879586Y-63215032D01*
X125856750Y-63270163D01*
X125683033Y-63270163D01*
X125792239Y-63160957D01*
X125829973Y-63123223D01*
X126406749Y-62546446D01*
X126906750Y-62546446D01*
X127483527Y-63123223D01*
X128053454Y-63693151D01*
X128086939Y-63754474D01*
X128081955Y-63824166D01*
X128053454Y-63868513D01*
X127971967Y-63949999D01*
X128053454Y-64031485D01*
X128086939Y-64092808D01*
X128081955Y-64162500D01*
X128053454Y-64206848D01*
X127660303Y-64599999D01*
X127660303Y-64600000D01*
X128060303Y-65000000D01*
X128631750Y-65000000D01*
X128631750Y-62752172D01*
X128631749Y-62752155D01*
X128625348Y-62692627D01*
X128625346Y-62692620D01*
X128575104Y-62557913D01*
X128575100Y-62557906D01*
X128488940Y-62442812D01*
X128488937Y-62442809D01*
X128373843Y-62356649D01*
X128373836Y-62356645D01*
X128239129Y-62306403D01*
X128239122Y-62306401D01*
X128179594Y-62300000D01*
X126906750Y-62300000D01*
X126906750Y-62546446D01*
X126406749Y-62546446D01*
X126406750Y-62546445D01*
X126406750Y-62300000D01*
X125133905Y-62300000D01*
X125074377Y-62306401D01*
X125074370Y-62306403D01*
X124939663Y-62356645D01*
X124939656Y-62356649D01*
X124824562Y-62442809D01*
X124824559Y-62442812D01*
X124738399Y-62557906D01*
X124738395Y-62557913D01*
X124688153Y-62692620D01*
X124688151Y-62692627D01*
X124681750Y-62752155D01*
X119099760Y-62752155D01*
X118875549Y-62568150D01*
X118875548Y-62568149D01*
X118875544Y-62568146D01*
X118573232Y-62366147D01*
X118573227Y-62366144D01*
X118573220Y-62366140D01*
X118252583Y-62194756D01*
X118252578Y-62194754D01*
X117916665Y-62055614D01*
X117568723Y-61950067D01*
X117568712Y-61950064D01*
X117212130Y-61879137D01*
X116939611Y-61852296D01*
X116850294Y-61843500D01*
X116486706Y-61843500D01*
X116404179Y-61851628D01*
X116124869Y-61879137D01*
X115768287Y-61950064D01*
X115768276Y-61950067D01*
X115420334Y-62055614D01*
X115084421Y-62194754D01*
X115084416Y-62194756D01*
X114763779Y-62366140D01*
X114763761Y-62366151D01*
X114461464Y-62568140D01*
X114461450Y-62568150D01*
X114180393Y-62798807D01*
X113923307Y-63055893D01*
X113828853Y-63170986D01*
X113771107Y-63210320D01*
X113701263Y-63212191D01*
X113641494Y-63176003D01*
X113610779Y-63113247D01*
X113609000Y-63092321D01*
X113609000Y-59035145D01*
X113628685Y-58968106D01*
X113681489Y-58922351D01*
X113750647Y-58912407D01*
X113814203Y-58941432D01*
X113828848Y-58956475D01*
X113838394Y-58968106D01*
X113854808Y-58988107D01*
X114111893Y-59245192D01*
X114111898Y-59245196D01*
X114111899Y-59245197D01*
X114392956Y-59475854D01*
X114695268Y-59677853D01*
X114695277Y-59677858D01*
X114695279Y-59677859D01*
X115015916Y-59849243D01*
X115015918Y-59849243D01*
X115015924Y-59849247D01*
X115351836Y-59988386D01*
X115699767Y-60093930D01*
X115699773Y-60093931D01*
X115699776Y-60093932D01*
X115699787Y-60093935D01*
X116056369Y-60164862D01*
X116418206Y-60200500D01*
X116418209Y-60200500D01*
X116781791Y-60200500D01*
X116781794Y-60200500D01*
X117143631Y-60164862D01*
X117213045Y-60151054D01*
X117500212Y-60093935D01*
X117500223Y-60093932D01*
X117500223Y-60093931D01*
X117500233Y-60093930D01*
X117848164Y-59988386D01*
X118184076Y-59849247D01*
X118504732Y-59677853D01*
X118807044Y-59475854D01*
X119088101Y-59245197D01*
X119345197Y-58988101D01*
X119575854Y-58707044D01*
X119777853Y-58404732D01*
X119949247Y-58084076D01*
X120088386Y-57748164D01*
X120193930Y-57400233D01*
X120193932Y-57400223D01*
X120193935Y-57400212D01*
X120264862Y-57043630D01*
X120300500Y-56681790D01*
X120300500Y-56318209D01*
X120264862Y-55956369D01*
X120193935Y-55599787D01*
X120193932Y-55599776D01*
X120193931Y-55599773D01*
X120193930Y-55599767D01*
X120088386Y-55251836D01*
X119949247Y-54915924D01*
X119777853Y-54595268D01*
X119575854Y-54292956D01*
X119345197Y-54011899D01*
X119345196Y-54011898D01*
X119345192Y-54011893D01*
X119088106Y-53754807D01*
X119063183Y-53734353D01*
X119023849Y-53676607D01*
X119021978Y-53606762D01*
X119058166Y-53546994D01*
X119120922Y-53516278D01*
X119141848Y-53514500D01*
X160208152Y-53514500D01*
X160275191Y-53534185D01*
G37*
%TD.AperFunction*%
%TD*%
M02*
