%TF.GenerationSoftware,KiCad,Pcbnew,9.0.0*%
%TF.CreationDate,2026-01-13T21:54:56-06:00*%
%TF.ProjectId,PTN-PumpControlBoard,50544e2d-5075-46d7-9043-6f6e74726f6c,rev?*%
%TF.SameCoordinates,Original*%
%TF.FileFunction,Soldermask,Top*%
%TF.FilePolarity,Negative*%
%FSLAX46Y46*%
G04 Gerber Fmt 4.6, Leading zero omitted, Abs format (unit mm)*
G04 Created by KiCad (PCBNEW 9.0.0) date 2026-01-13 21:54:56*
%MOMM*%
%LPD*%
G01*
G04 APERTURE LIST*
G04 Aperture macros list*
%AMRoundRect*
0 Rectangle with rounded corners*
0 $1 Rounding radius*
0 $2 $3 $4 $5 $6 $7 $8 $9 X,Y pos of 4 corners*
0 Add a 4 corners polygon primitive as box body*
4,1,4,$2,$3,$4,$5,$6,$7,$8,$9,$2,$3,0*
0 Add four circle primitives for the rounded corners*
1,1,$1+$1,$2,$3*
1,1,$1+$1,$4,$5*
1,1,$1+$1,$6,$7*
1,1,$1+$1,$8,$9*
0 Add four rect primitives between the rounded corners*
20,1,$1+$1,$2,$3,$4,$5,0*
20,1,$1+$1,$4,$5,$6,$7,0*
20,1,$1+$1,$6,$7,$8,$9,0*
20,1,$1+$1,$8,$9,$2,$3,0*%
%AMFreePoly0*
4,1,22,0.695671,0.830970,0.776777,0.776777,0.830970,0.695671,0.850000,0.600000,0.850000,-0.600000,0.830970,-0.695671,0.776777,-0.776777,0.695671,-0.830970,0.600000,-0.850000,-0.200000,-0.850000,-0.295671,-0.830970,-0.376777,-0.776777,-0.776777,-0.376777,-0.830970,-0.295671,-0.850000,-0.200000,-0.850000,0.600000,-0.830970,0.695671,-0.776777,0.776777,-0.695671,0.830970,-0.600000,0.850000,
0.600000,0.850000,0.695671,0.830970,0.695671,0.830970,$1*%
G04 Aperture macros list end*
%ADD10C,0.000000*%
%ADD11RoundRect,0.237500X-0.237500X0.250000X-0.237500X-0.250000X0.237500X-0.250000X0.237500X0.250000X0*%
%ADD12RoundRect,0.237500X0.237500X-0.300000X0.237500X0.300000X-0.237500X0.300000X-0.237500X-0.300000X0*%
%ADD13RoundRect,0.237500X0.250000X0.237500X-0.250000X0.237500X-0.250000X-0.237500X0.250000X-0.237500X0*%
%ADD14C,3.600000*%
%ADD15C,6.400000*%
%ADD16RoundRect,0.237500X-0.250000X-0.237500X0.250000X-0.237500X0.250000X0.237500X-0.250000X0.237500X0*%
%ADD17R,0.990600X1.143000*%
%ADD18RoundRect,0.237500X0.300000X0.237500X-0.300000X0.237500X-0.300000X-0.237500X0.300000X-0.237500X0*%
%ADD19RoundRect,0.237500X-0.287500X-0.237500X0.287500X-0.237500X0.287500X0.237500X-0.287500X0.237500X0*%
%ADD20C,1.524000*%
%ADD21RoundRect,0.102000X0.275000X0.900000X-0.275000X0.900000X-0.275000X-0.900000X0.275000X-0.900000X0*%
%ADD22R,2.000000X2.000000*%
%ADD23R,1.000000X0.750000*%
%ADD24R,0.480000X0.750000*%
%ADD25R,2.720000X4.560000*%
%ADD26R,0.910000X5.560000*%
%ADD27R,0.420000X4.560000*%
%ADD28RoundRect,0.150000X0.150000X-0.512500X0.150000X0.512500X-0.150000X0.512500X-0.150000X-0.512500X0*%
%ADD29RoundRect,0.250000X-0.600000X-0.600000X0.600000X-0.600000X0.600000X0.600000X-0.600000X0.600000X0*%
%ADD30C,1.700000*%
%ADD31R,1.528000X0.650000*%
%ADD32RoundRect,0.237500X-0.300000X-0.237500X0.300000X-0.237500X0.300000X0.237500X-0.300000X0.237500X0*%
%ADD33RoundRect,0.237500X-0.237500X0.300000X-0.237500X-0.300000X0.237500X-0.300000X0.237500X0.300000X0*%
%ADD34R,1.200000X0.450000*%
%ADD35R,1.143000X0.990600*%
%ADD36R,1.000000X1.000000*%
%ADD37RoundRect,0.237500X0.237500X-0.250000X0.237500X0.250000X-0.237500X0.250000X-0.237500X-0.250000X0*%
%ADD38FreePoly0,0.000000*%
%ADD39R,2.600000X3.100000*%
%ADD40R,1.550000X0.600000*%
%ADD41RoundRect,0.150000X0.512500X0.150000X-0.512500X0.150000X-0.512500X-0.150000X0.512500X-0.150000X0*%
%ADD42R,0.711200X0.304800*%
%ADD43R,0.304800X0.711200*%
%ADD44R,2.692400X2.692400*%
%ADD45R,4.220000X2.120000*%
G04 APERTURE END LIST*
D10*
%TO.C,LOGO2*%
G36*
X138050794Y-60096905D02*
G01*
X138075993Y-61230833D01*
X139096528Y-61244476D01*
X140117064Y-61258119D01*
X140117064Y-61509059D01*
X140117064Y-61760000D01*
X138780751Y-61760000D01*
X137444438Y-61760000D01*
X137457834Y-60361488D01*
X137471231Y-58962976D01*
X137748413Y-58962976D01*
X138025596Y-58962976D01*
X138050794Y-60096905D01*
G37*
G36*
X150915873Y-59610198D02*
G01*
X150915873Y-59836984D01*
X150134722Y-59836984D01*
X149353571Y-59836984D01*
X149353571Y-60088968D01*
X149353571Y-60340952D01*
X150134722Y-60340952D01*
X150915873Y-60340952D01*
X150915873Y-61046508D01*
X150915873Y-61752063D01*
X149907936Y-61752063D01*
X148900000Y-61752063D01*
X148900000Y-61525278D01*
X148900000Y-61298492D01*
X149681151Y-61298492D01*
X150462301Y-61298492D01*
X150462301Y-61046508D01*
X150462301Y-60794524D01*
X149681151Y-60794524D01*
X148900000Y-60794524D01*
X148900000Y-60088968D01*
X148900000Y-59383413D01*
X149907936Y-59383413D01*
X150915873Y-59383413D01*
X150915873Y-59610198D01*
G37*
G36*
X143926828Y-58946870D02*
G01*
X144123612Y-58962976D01*
X144137008Y-60361488D01*
X144150404Y-61760000D01*
X143823678Y-61760000D01*
X143496952Y-61760000D01*
X143482703Y-61193036D01*
X143468453Y-60626071D01*
X142373982Y-60612494D01*
X141279510Y-60598916D01*
X141265251Y-61166859D01*
X141250993Y-61734801D01*
X140935211Y-61749826D01*
X140619429Y-61764851D01*
X140632830Y-60363914D01*
X140646231Y-58962976D01*
X140902691Y-58948025D01*
X141101790Y-58952861D01*
X141210363Y-58995420D01*
X141215728Y-59001244D01*
X141241275Y-59078573D01*
X141264051Y-59231243D01*
X141280876Y-59433801D01*
X141286847Y-59570561D01*
X141301389Y-60071706D01*
X142384921Y-60071706D01*
X143468453Y-60071706D01*
X143482752Y-59530474D01*
X143492061Y-59272555D01*
X143511771Y-59099779D01*
X143553781Y-58996509D01*
X143629990Y-58947105D01*
X143752298Y-58935930D01*
X143926828Y-58946870D01*
G37*
G36*
X146156389Y-58942880D02*
G01*
X146479517Y-58946724D01*
X146947725Y-58955193D01*
X147325655Y-58967869D01*
X147623823Y-58988856D01*
X147852744Y-59022257D01*
X148022934Y-59072178D01*
X148144908Y-59142721D01*
X148229182Y-59237992D01*
X148286272Y-59362094D01*
X148326693Y-59519132D01*
X148355352Y-59678856D01*
X148365781Y-59881314D01*
X148342188Y-60103805D01*
X148291695Y-60312348D01*
X148221422Y-60472966D01*
X148177371Y-60528160D01*
X148113130Y-60594076D01*
X148113297Y-60646382D01*
X148180288Y-60726572D01*
X148189499Y-60736385D01*
X148245563Y-60811351D01*
X148282230Y-60908775D01*
X148305316Y-61053634D01*
X148320634Y-61270905D01*
X148322438Y-61307429D01*
X148344076Y-61760000D01*
X148010332Y-61760000D01*
X147676588Y-61760000D01*
X147676588Y-61464415D01*
X147664342Y-61257713D01*
X147621898Y-61114351D01*
X147572136Y-61036042D01*
X147467685Y-60903254D01*
X146513803Y-60903254D01*
X145559921Y-60903254D01*
X145559921Y-61331627D01*
X145559921Y-61760000D01*
X145232342Y-61760000D01*
X144904762Y-61760000D01*
X144904762Y-60375047D01*
X144904762Y-59912116D01*
X144904762Y-59492143D01*
X145559921Y-59492143D01*
X145559921Y-59912116D01*
X145564188Y-60109653D01*
X145575542Y-60267374D01*
X145591816Y-60359012D01*
X145597719Y-60370099D01*
X145657819Y-60381199D01*
X145802244Y-60389204D01*
X146014564Y-60393761D01*
X146278345Y-60394519D01*
X146577158Y-60391126D01*
X146578719Y-60391098D01*
X146915482Y-60384007D01*
X147165965Y-60375610D01*
X147344681Y-60364404D01*
X147466141Y-60348885D01*
X147544859Y-60327551D01*
X147595349Y-60298897D01*
X147611853Y-60284093D01*
X147677195Y-60165962D01*
X147701407Y-59974497D01*
X147701786Y-59939462D01*
X147691791Y-59770129D01*
X147653410Y-59663196D01*
X147582810Y-59588484D01*
X147532720Y-59554546D01*
X147468423Y-59529601D01*
X147374814Y-59512287D01*
X147236788Y-59501247D01*
X147039240Y-59495123D01*
X146767064Y-59492554D01*
X146511878Y-59492143D01*
X145559921Y-59492143D01*
X144904762Y-59492143D01*
X144904762Y-58990095D01*
X145030608Y-58958509D01*
X145113764Y-58950726D01*
X145282805Y-58945150D01*
X145522847Y-58941903D01*
X145819004Y-58941106D01*
X146156389Y-58942880D01*
G37*
%TD*%
D11*
%TO.C,R8*%
X141883499Y-107552299D03*
X141883499Y-109377299D03*
%TD*%
D12*
%TO.C,C20*%
X129068500Y-88563500D03*
X129068500Y-86838500D03*
%TD*%
D13*
%TO.C,R30*%
X141621000Y-93914000D03*
X139796000Y-93914000D03*
%TD*%
%TO.C,R19*%
X144362500Y-81805000D03*
X142537500Y-81805000D03*
%TD*%
D14*
%TO.C,H2*%
X116608500Y-131450000D03*
D15*
X116608500Y-131450000D03*
%TD*%
D16*
%TO.C,R40*%
X129601000Y-128464000D03*
X131426000Y-128464000D03*
%TD*%
%TO.C,R50*%
X160700000Y-76200000D03*
X162525000Y-76200000D03*
%TD*%
D17*
%TO.C,D3*%
X139300000Y-121889100D03*
X139300000Y-118510900D03*
%TD*%
D13*
%TO.C,R27*%
X150164750Y-98682750D03*
X148339750Y-98682750D03*
%TD*%
%TO.C,R15*%
X147733500Y-83905000D03*
X145908500Y-83905000D03*
%TD*%
D14*
%TO.C,H4*%
X116600000Y-56500000D03*
D15*
X116600000Y-56500000D03*
%TD*%
D18*
%TO.C,C14*%
X125825000Y-56600000D03*
X124100000Y-56600000D03*
%TD*%
D19*
%TO.C,D18*%
X135578500Y-131364000D03*
X137328500Y-131364000D03*
%TD*%
D13*
%TO.C,R41*%
X156425000Y-74400000D03*
X154600000Y-74400000D03*
%TD*%
D20*
%TO.C,J5*%
X119368500Y-119714000D03*
X119368500Y-122254000D03*
X121908500Y-119714000D03*
X121908500Y-122254000D03*
X124448500Y-119714000D03*
X124448500Y-122254000D03*
X126988500Y-119714000D03*
X126988500Y-122254000D03*
X129528500Y-119714000D03*
X129528500Y-122254000D03*
%TD*%
D16*
%TO.C,R21*%
X145908500Y-85605000D03*
X147733500Y-85605000D03*
%TD*%
%TO.C,R18*%
X137896000Y-81805000D03*
X139721000Y-81805000D03*
%TD*%
D19*
%TO.C,D22*%
X147812500Y-121537500D03*
X149562500Y-121537500D03*
%TD*%
D11*
%TO.C,R26*%
X143308500Y-95601500D03*
X143308500Y-97426500D03*
%TD*%
D21*
%TO.C,J4*%
X127248500Y-114164000D03*
X127248500Y-109864000D03*
X128048500Y-114164000D03*
X128048500Y-109864000D03*
X128848500Y-114164000D03*
X128848500Y-109864000D03*
X129648500Y-114164000D03*
X129648500Y-109864000D03*
X130448500Y-114164000D03*
X130448500Y-109864000D03*
X131248497Y-114164000D03*
X131248497Y-109864000D03*
X132048500Y-114164000D03*
X132048500Y-109864000D03*
X132848500Y-114164000D03*
X132848500Y-109864000D03*
X133648500Y-114164000D03*
X133648500Y-109864000D03*
X134448500Y-114164000D03*
X134448500Y-109864000D03*
X135248500Y-114164000D03*
X135248500Y-109864000D03*
X136048500Y-114164000D03*
X136048500Y-109864000D03*
D14*
X147418500Y-112014000D03*
D15*
X147418500Y-112014000D03*
D14*
X116668500Y-112014000D03*
D15*
X116668500Y-112014000D03*
D14*
X116668500Y-65544000D03*
D15*
X116668500Y-65544000D03*
D14*
X147408500Y-65544000D03*
D15*
X147408500Y-65544000D03*
%TD*%
D16*
%TO.C,R47*%
X158500000Y-119718750D03*
X160325000Y-119718750D03*
%TD*%
D11*
%TO.C,R29*%
X146502250Y-97107750D03*
X146502250Y-98932750D03*
%TD*%
D22*
%TO.C,TP2*%
X145300000Y-120837500D03*
%TD*%
D12*
%TO.C,C10*%
X131845250Y-65086000D03*
X131845250Y-63361000D03*
%TD*%
D16*
%TO.C,R34*%
X126186500Y-71108500D03*
X128011500Y-71108500D03*
%TD*%
D11*
%TO.C,R9*%
X143583499Y-107552299D03*
X143583499Y-109377299D03*
%TD*%
D16*
%TO.C,R49*%
X160700000Y-74500000D03*
X162525000Y-74500000D03*
%TD*%
D19*
%TO.C,D21*%
X153331000Y-131364000D03*
X155081000Y-131364000D03*
%TD*%
D23*
%TO.C,Q5*%
X120788500Y-83720000D03*
X120788500Y-82450000D03*
X120788500Y-81180000D03*
X120788500Y-79910000D03*
D24*
X115028500Y-79910000D03*
X115028500Y-83720000D03*
D25*
X116628500Y-81815000D03*
D26*
X118443500Y-81815000D03*
D27*
X119108500Y-81815000D03*
%TD*%
D28*
%TO.C,Q2*%
X148302250Y-96820250D03*
X150202250Y-96820250D03*
X149252250Y-94545250D03*
%TD*%
D11*
%TO.C,R25*%
X146502250Y-93607750D03*
X146502250Y-95432750D03*
%TD*%
D29*
%TO.C,J3*%
X157608500Y-102164000D03*
D30*
X157608500Y-104664000D03*
X157608500Y-107164000D03*
X157608500Y-109664000D03*
X157608500Y-112164000D03*
X157608500Y-114664000D03*
X160108500Y-102164000D03*
X160108500Y-104664000D03*
X160108500Y-107164000D03*
X160108500Y-109664000D03*
X160108500Y-112164000D03*
X160108500Y-114664000D03*
%TD*%
D31*
%TO.C,U2*%
X138286500Y-83595000D03*
X138286500Y-84865000D03*
X138286500Y-86135000D03*
X138286500Y-87405000D03*
X143708500Y-87405000D03*
X143708500Y-86135000D03*
X143708500Y-84865000D03*
X143708500Y-83595000D03*
%TD*%
D16*
%TO.C,R14*%
X134396000Y-83805000D03*
X136221000Y-83805000D03*
%TD*%
D32*
%TO.C,C8*%
X137181000Y-65940000D03*
X138906000Y-65940000D03*
%TD*%
D22*
%TO.C,TP1*%
X153700000Y-57300000D03*
%TD*%
D18*
%TO.C,C16*%
X125825000Y-60000000D03*
X124100000Y-60000000D03*
%TD*%
D16*
%TO.C,R44*%
X153283500Y-128464000D03*
X155108500Y-128464000D03*
%TD*%
%TO.C,R39*%
X123683500Y-128464000D03*
X125508500Y-128464000D03*
%TD*%
D22*
%TO.C,TP5*%
X157200000Y-57300000D03*
%TD*%
D16*
%TO.C,R42*%
X135518500Y-128464000D03*
X137343500Y-128464000D03*
%TD*%
D33*
%TO.C,C18*%
X131845250Y-66861000D03*
X131845250Y-68586000D03*
%TD*%
D34*
%TO.C,IC1*%
X140913500Y-69600000D03*
X140913500Y-68950000D03*
X140913500Y-68300000D03*
X140913500Y-67650000D03*
X138413500Y-67650000D03*
X138413500Y-68300000D03*
X138413500Y-68950000D03*
X138413500Y-69600000D03*
%TD*%
D35*
%TO.C,D6*%
X122410900Y-104200000D03*
X125789100Y-104200000D03*
%TD*%
D11*
%TO.C,R28*%
X137246000Y-97164000D03*
X137246000Y-98989000D03*
%TD*%
D12*
%TO.C,C19*%
X119068500Y-88663500D03*
X119068500Y-86938500D03*
%TD*%
D16*
%TO.C,R45*%
X147396000Y-128464000D03*
X149221000Y-128464000D03*
%TD*%
D35*
%TO.C,D5*%
X122710900Y-99200000D03*
X126089100Y-99200000D03*
%TD*%
D16*
%TO.C,R16*%
X134396000Y-89205000D03*
X136221000Y-89205000D03*
%TD*%
D33*
%TO.C,C6*%
X142813500Y-67787500D03*
X142813500Y-69512500D03*
%TD*%
D29*
%TO.C,J2*%
X157608500Y-82814000D03*
D30*
X157608500Y-85314000D03*
X157608500Y-87814000D03*
X157608500Y-90314000D03*
X160108500Y-82814000D03*
X160108500Y-85314000D03*
X160108500Y-87814000D03*
X160108500Y-90314000D03*
%TD*%
D18*
%TO.C,C15*%
X125825000Y-58300000D03*
X124100000Y-58300000D03*
%TD*%
D16*
%TO.C,R32*%
X133800000Y-67850000D03*
X135625000Y-67850000D03*
%TD*%
D36*
%TO.C,TP6*%
X154000000Y-95300000D03*
%TD*%
D18*
%TO.C,C22*%
X121131000Y-90937000D03*
X119406000Y-90937000D03*
%TD*%
D23*
%TO.C,Q3*%
X141368500Y-72490000D03*
X141368500Y-73760000D03*
X141368500Y-75030000D03*
X141368500Y-76300000D03*
D24*
X147128500Y-76300000D03*
X147128500Y-72490000D03*
D25*
X145528500Y-74395000D03*
D26*
X143713500Y-74395000D03*
D27*
X143048500Y-74395000D03*
%TD*%
D37*
%TO.C,R6*%
X123908500Y-110126500D03*
X123908500Y-108301500D03*
%TD*%
D16*
%TO.C,R38*%
X125456000Y-86801000D03*
X127281000Y-86801000D03*
%TD*%
D32*
%TO.C,C17*%
X126236500Y-69408500D03*
X127961500Y-69408500D03*
%TD*%
D13*
%TO.C,R33*%
X135637500Y-69550000D03*
X133812500Y-69550000D03*
%TD*%
D19*
%TO.C,D15*%
X123743500Y-131364000D03*
X125493500Y-131364000D03*
%TD*%
D16*
%TO.C,R31*%
X148387500Y-101000000D03*
X150212500Y-101000000D03*
%TD*%
D13*
%TO.C,R20*%
X136210000Y-82100000D03*
X134385000Y-82100000D03*
%TD*%
%TO.C,R23*%
X147733500Y-87305000D03*
X145908500Y-87305000D03*
%TD*%
D14*
%TO.C,H3*%
X162750000Y-56500000D03*
D15*
X162750000Y-56500000D03*
%TD*%
D16*
%TO.C,R46*%
X147775000Y-119937500D03*
X149600000Y-119937500D03*
%TD*%
%TO.C,R17*%
X141608500Y-89205000D03*
X143433500Y-89205000D03*
%TD*%
D19*
%TO.C,D16*%
X129661000Y-131364000D03*
X131411000Y-131364000D03*
%TD*%
D37*
%TO.C,R13*%
X150200000Y-81912500D03*
X150200000Y-80087500D03*
%TD*%
D18*
%TO.C,C21*%
X124631000Y-90937000D03*
X122906000Y-90937000D03*
%TD*%
D12*
%TO.C,C7*%
X130300000Y-76938500D03*
X130300000Y-75213500D03*
%TD*%
D34*
%TO.C,IC2*%
X120818500Y-86826000D03*
X120818500Y-87476000D03*
X120818500Y-88126000D03*
X120818500Y-88776000D03*
X123318500Y-88776000D03*
X123318500Y-88126000D03*
X123318500Y-87476000D03*
X123318500Y-86826000D03*
%TD*%
D19*
%TO.C,D23*%
X158537500Y-121318750D03*
X160287500Y-121318750D03*
%TD*%
D30*
%TO.C,J1*%
X157608500Y-69000000D03*
X157608500Y-66500000D03*
D38*
X157608500Y-64000000D03*
D30*
X160108500Y-69000000D03*
X160108500Y-66500000D03*
X160108500Y-64000000D03*
%TD*%
D11*
%TO.C,R22*%
X134408500Y-85592500D03*
X134408500Y-87417500D03*
%TD*%
D22*
%TO.C,TP4*%
X155912500Y-120318750D03*
%TD*%
D37*
%TO.C,R35*%
X129699000Y-71233500D03*
X129699000Y-69408500D03*
%TD*%
D36*
%TO.C,TP8*%
X158400000Y-93800000D03*
%TD*%
D11*
%TO.C,R12*%
X139783499Y-107552299D03*
X139783499Y-109377299D03*
%TD*%
%TO.C,R7*%
X146583499Y-102852299D03*
X146583499Y-104677299D03*
%TD*%
D23*
%TO.C,Q4*%
X138208500Y-76300000D03*
X138208500Y-75030000D03*
X138208500Y-73760000D03*
X138208500Y-72490000D03*
D24*
X132448500Y-72490000D03*
X132448500Y-76300000D03*
D25*
X134048500Y-74395000D03*
D26*
X135863500Y-74395000D03*
D27*
X136528500Y-74395000D03*
%TD*%
D11*
%TO.C,R24*%
X137246000Y-93664000D03*
X137246000Y-95489000D03*
%TD*%
D14*
%TO.C,H1*%
X162750000Y-131414000D03*
D15*
X162750000Y-131414000D03*
%TD*%
D22*
%TO.C,TP3*%
X135600000Y-57600000D03*
%TD*%
D39*
%TO.C,U3*%
X126656750Y-65250000D03*
D40*
X123956750Y-63345000D03*
X123956750Y-64615000D03*
X123956750Y-65885000D03*
X123956750Y-67155000D03*
X129356750Y-67155000D03*
X129356750Y-65885000D03*
X129356750Y-64615000D03*
X129356750Y-63345000D03*
%TD*%
D11*
%TO.C,R11*%
X148283499Y-102852299D03*
X148283499Y-104677299D03*
%TD*%
D33*
%TO.C,C2*%
X138157701Y-104626499D03*
X138157701Y-106351499D03*
%TD*%
D41*
%TO.C,Q1*%
X141446000Y-97564000D03*
X141446000Y-95664000D03*
X139171000Y-96614000D03*
%TD*%
D19*
%TO.C,D20*%
X147413500Y-131364000D03*
X149163500Y-131364000D03*
%TD*%
D16*
%TO.C,R36*%
X127025000Y-91287000D03*
X128850000Y-91287000D03*
%TD*%
D19*
%TO.C,D19*%
X141496000Y-131364000D03*
X143246000Y-131364000D03*
%TD*%
D16*
%TO.C,R43*%
X141436000Y-128464000D03*
X143261000Y-128464000D03*
%TD*%
D42*
%TO.C,U1*%
X140459299Y-102539001D03*
X140459299Y-103188999D03*
X140459299Y-103839001D03*
X140459299Y-104488999D03*
D43*
X141433501Y-105463201D03*
X142083499Y-105463201D03*
X142733501Y-105463201D03*
X143383499Y-105463201D03*
D42*
X144357701Y-104488999D03*
X144357701Y-103839001D03*
X144357701Y-103188999D03*
X144357701Y-102539001D03*
D43*
X143383499Y-101564799D03*
X142733501Y-101564799D03*
X142083499Y-101564799D03*
X141433501Y-101564799D03*
D44*
X142408500Y-103514000D03*
%TD*%
D36*
%TO.C,TP7*%
X162700000Y-95400000D03*
%TD*%
D37*
%TO.C,R10*%
X122208500Y-110126500D03*
X122208500Y-108301500D03*
%TD*%
D32*
%TO.C,C9*%
X140728500Y-65940000D03*
X142453500Y-65940000D03*
%TD*%
D18*
%TO.C,C3*%
X139771000Y-89205000D03*
X138046000Y-89205000D03*
%TD*%
%TO.C,C11*%
X123569250Y-71500000D03*
X121844250Y-71500000D03*
%TD*%
D23*
%TO.C,Q6*%
X123968500Y-79900000D03*
X123968500Y-81170000D03*
X123968500Y-82440000D03*
X123968500Y-83710000D03*
D24*
X129728500Y-83710000D03*
X129728500Y-79900000D03*
D25*
X128128500Y-81805000D03*
D26*
X126313500Y-81805000D03*
D27*
X125648500Y-81805000D03*
%TD*%
D18*
%TO.C,C13*%
X125825000Y-54900000D03*
X124100000Y-54900000D03*
%TD*%
D33*
%TO.C,C1*%
X136557701Y-104626499D03*
X136557701Y-106351499D03*
%TD*%
D13*
%TO.C,R37*%
X127281000Y-88501000D03*
X125456000Y-88501000D03*
%TD*%
D32*
%TO.C,C5*%
X142587500Y-80105000D03*
X144312500Y-80105000D03*
%TD*%
D18*
%TO.C,C4*%
X139671000Y-80105000D03*
X137946000Y-80105000D03*
%TD*%
D45*
%TO.C,L1*%
X130325000Y-60500000D03*
X130325000Y-56500000D03*
%TD*%
D13*
%TO.C,R48*%
X156425000Y-76200000D03*
X154600000Y-76200000D03*
%TD*%
D18*
%TO.C,C12*%
X123569250Y-69900000D03*
X121844250Y-69900000D03*
%TD*%
M02*
