%TF.GenerationSoftware,KiCad,Pcbnew,9.0.0*%
%TF.CreationDate,2025-08-25T22:52:43-05:00*%
%TF.ProjectId,PTN-PumpControlBoard,50544e2d-5075-46d7-9043-6f6e74726f6c,rev?*%
%TF.SameCoordinates,Original*%
%TF.FileFunction,Soldermask,Bot*%
%TF.FilePolarity,Negative*%
%FSLAX46Y46*%
G04 Gerber Fmt 4.6, Leading zero omitted, Abs format (unit mm)*
G04 Created by KiCad (PCBNEW 9.0.0) date 2025-08-25 22:52:43*
%MOMM*%
%LPD*%
G01*
G04 APERTURE LIST*
G04 Aperture macros list*
%AMRoundRect*
0 Rectangle with rounded corners*
0 $1 Rounding radius*
0 $2 $3 $4 $5 $6 $7 $8 $9 X,Y pos of 4 corners*
0 Add a 4 corners polygon primitive as box body*
4,1,4,$2,$3,$4,$5,$6,$7,$8,$9,$2,$3,0*
0 Add four circle primitives for the rounded corners*
1,1,$1+$1,$2,$3*
1,1,$1+$1,$4,$5*
1,1,$1+$1,$6,$7*
1,1,$1+$1,$8,$9*
0 Add four rect primitives between the rounded corners*
20,1,$1+$1,$2,$3,$4,$5,0*
20,1,$1+$1,$4,$5,$6,$7,0*
20,1,$1+$1,$6,$7,$8,$9,0*
20,1,$1+$1,$8,$9,$2,$3,0*%
%AMFreePoly0*
4,1,22,0.945671,0.830970,1.026777,0.776777,1.080970,0.695671,1.100000,0.600000,1.100000,-0.600000,1.080970,-0.695671,1.026777,-0.776777,0.945671,-0.830970,0.850000,-0.850000,-0.450000,-0.850000,-0.545671,-0.830970,-0.626777,-0.776777,-1.026777,-0.376777,-1.080970,-0.295671,-1.100000,-0.200000,-1.100000,0.600000,-1.080970,0.695671,-1.026777,0.776777,-0.945671,0.830970,-0.850000,0.850000,
0.850000,0.850000,0.945671,0.830970,0.945671,0.830970,$1*%
G04 Aperture macros list end*
%ADD10O,2.200000X1.700000*%
%ADD11RoundRect,0.250000X-0.850000X-0.600000X0.850000X-0.600000X0.850000X0.600000X-0.850000X0.600000X0*%
%ADD12C,1.300000*%
%ADD13FreePoly0,0.000000*%
%ADD14C,1.524000*%
%ADD15FreePoly0,180.000000*%
%ADD16C,3.200000*%
%ADD17C,3.600000*%
%ADD18C,6.400000*%
%ADD19FreePoly0,270.000000*%
%ADD20O,1.700000X2.200000*%
%ADD21RoundRect,0.250000X0.475000X-0.337500X0.475000X0.337500X-0.475000X0.337500X-0.475000X-0.337500X0*%
%ADD22RoundRect,0.200000X0.275000X-0.200000X0.275000X0.200000X-0.275000X0.200000X-0.275000X-0.200000X0*%
%ADD23RoundRect,0.200000X0.200000X0.275000X-0.200000X0.275000X-0.200000X-0.275000X0.200000X-0.275000X0*%
%ADD24RoundRect,0.200000X-0.275000X0.200000X-0.275000X-0.200000X0.275000X-0.200000X0.275000X0.200000X0*%
%ADD25RoundRect,0.250000X0.475000X-0.250000X0.475000X0.250000X-0.475000X0.250000X-0.475000X-0.250000X0*%
%ADD26RoundRect,0.200000X-0.200000X-0.275000X0.200000X-0.275000X0.200000X0.275000X-0.200000X0.275000X0*%
%ADD27R,0.400000X0.830000*%
%ADD28R,0.400000X0.620000*%
%ADD29R,2.250000X1.850000*%
%ADD30R,0.050000X0.130000*%
%ADD31RoundRect,0.250000X0.250000X0.475000X-0.250000X0.475000X-0.250000X-0.475000X0.250000X-0.475000X0*%
%ADD32RoundRect,0.250000X-0.250000X-0.475000X0.250000X-0.475000X0.250000X0.475000X-0.250000X0.475000X0*%
%ADD33RoundRect,0.250000X-0.475000X0.250000X-0.475000X-0.250000X0.475000X-0.250000X0.475000X0.250000X0*%
%ADD34RoundRect,0.250000X0.300000X0.300000X-0.300000X0.300000X-0.300000X-0.300000X0.300000X-0.300000X0*%
%ADD35RoundRect,0.250000X-0.475000X0.337500X-0.475000X-0.337500X0.475000X-0.337500X0.475000X0.337500X0*%
%ADD36RoundRect,0.237500X-0.237500X0.250000X-0.237500X-0.250000X0.237500X-0.250000X0.237500X0.250000X0*%
%ADD37R,0.830000X0.625000*%
%ADD38RoundRect,0.237500X0.300000X0.237500X-0.300000X0.237500X-0.300000X-0.237500X0.300000X-0.237500X0*%
%ADD39R,0.650000X1.528000*%
%ADD40RoundRect,0.237500X0.237500X-0.300000X0.237500X0.300000X-0.237500X0.300000X-0.237500X-0.300000X0*%
%ADD41RoundRect,0.237500X0.250000X0.237500X-0.250000X0.237500X-0.250000X-0.237500X0.250000X-0.237500X0*%
G04 APERTURE END LIST*
D10*
%TO.C,PUMP1*%
X167330000Y-101450000D03*
X167330000Y-98950000D03*
X167330000Y-96450000D03*
D11*
X167330000Y-93950000D03*
D12*
X165990000Y-97700000D03*
%TD*%
D10*
%TO.C,FLOW1*%
X167330000Y-114000000D03*
X167330000Y-111500000D03*
D13*
X167330000Y-109000000D03*
D12*
X165990000Y-110250000D03*
%TD*%
D10*
%TO.C,J6*%
X167400000Y-86500000D03*
D13*
X167400000Y-84000000D03*
D12*
X166060000Y-85250000D03*
%TD*%
%TO.C,J3*%
X166090000Y-77100000D03*
D13*
X167430000Y-75850000D03*
D10*
X167430000Y-78350000D03*
%TD*%
D12*
%TO.C,J2*%
X166090000Y-68500000D03*
D13*
X167430000Y-67250000D03*
D10*
X167430000Y-69750000D03*
%TD*%
D14*
%TO.C,J4*%
X126160000Y-124860000D03*
X126160000Y-127400000D03*
X128700000Y-124860000D03*
X128700000Y-127400000D03*
X131240000Y-124860000D03*
X131240000Y-127400000D03*
X133780000Y-124860000D03*
X133780000Y-127400000D03*
X136320000Y-124860000D03*
X136320000Y-127400000D03*
%TD*%
D12*
%TO.C,TEMP2*%
X105710000Y-111000000D03*
D15*
X104370000Y-112250000D03*
D10*
X104370000Y-109750000D03*
%TD*%
D16*
%TO.C,H3*%
X103400000Y-129600000D03*
%TD*%
D17*
%TO.C,J1*%
X151575000Y-113235000D03*
D18*
X151575000Y-113235000D03*
D17*
X120825000Y-113235000D03*
D18*
X120825000Y-113235000D03*
D17*
X120825000Y-66765000D03*
D18*
X120825000Y-66765000D03*
D17*
X151565000Y-66765000D03*
D18*
X151565000Y-66765000D03*
%TD*%
D12*
%TO.C,FAN2*%
X106310000Y-71050000D03*
D15*
X104970000Y-72300000D03*
D10*
X104970000Y-69800000D03*
X104970000Y-67300000D03*
%TD*%
D12*
%TO.C,3.3V_In1*%
X113800000Y-127490000D03*
D19*
X115050000Y-128830000D03*
D20*
X112550000Y-128830000D03*
%TD*%
D12*
%TO.C,FAN1*%
X106310000Y-83850000D03*
D15*
X104970000Y-85100000D03*
D10*
X104970000Y-82600000D03*
X104970000Y-80100000D03*
%TD*%
D16*
%TO.C,H4*%
X169000000Y-129600000D03*
%TD*%
%TO.C,H2*%
X169000000Y-60000000D03*
%TD*%
D12*
%TO.C,TEMP3*%
X105910000Y-120400000D03*
D15*
X104570000Y-121650000D03*
D10*
X104570000Y-119150000D03*
%TD*%
D12*
%TO.C,TEMP1*%
X105540000Y-101400000D03*
D15*
X104200000Y-102650000D03*
D10*
X104200000Y-100150000D03*
%TD*%
D12*
%TO.C,5V_IN1*%
X165990000Y-122000000D03*
D13*
X167330000Y-120750000D03*
D10*
X167330000Y-123250000D03*
%TD*%
D16*
%TO.C,H1*%
X103400000Y-60000000D03*
%TD*%
D21*
%TO.C,C13*%
X151400000Y-131437500D03*
X151400000Y-129362500D03*
%TD*%
D22*
%TO.C,R27*%
X161500000Y-116425000D03*
X161500000Y-114775000D03*
%TD*%
D23*
%TO.C,R24*%
X115295000Y-113600000D03*
X113645000Y-113600000D03*
%TD*%
D24*
%TO.C,R25*%
X115800000Y-115175000D03*
X115800000Y-116825000D03*
%TD*%
D25*
%TO.C,C12*%
X109270000Y-111928000D03*
X109270000Y-110028000D03*
%TD*%
D26*
%TO.C,R14*%
X118425000Y-87000000D03*
X120075000Y-87000000D03*
%TD*%
D27*
%TO.C,Q8*%
X156800000Y-111300000D03*
X157450000Y-111300000D03*
X158100000Y-111300000D03*
X158750000Y-111300000D03*
D28*
X158750000Y-114474000D03*
X158100000Y-114474000D03*
X157450000Y-114474000D03*
X156800000Y-114474000D03*
D29*
X157775000Y-113239000D03*
D30*
X156625000Y-114099000D03*
X158925000Y-114099000D03*
%TD*%
D31*
%TO.C,C10*%
X116150000Y-120000000D03*
X114250000Y-120000000D03*
%TD*%
D32*
%TO.C,C6*%
X115925000Y-99600000D03*
X117825000Y-99600000D03*
%TD*%
D23*
%TO.C,R20*%
X117825000Y-97800000D03*
X116175000Y-97800000D03*
%TD*%
%TO.C,R12*%
X123650000Y-85400000D03*
X122000000Y-85400000D03*
%TD*%
D33*
%TO.C,C9*%
X112270000Y-115250000D03*
X112270000Y-117150000D03*
%TD*%
D34*
%TO.C,D11*%
X157000000Y-119400000D03*
X154200000Y-119400000D03*
%TD*%
D35*
%TO.C,C20*%
X145005000Y-123080000D03*
X145005000Y-125155000D03*
%TD*%
D36*
%TO.C,R31*%
X150000000Y-121287500D03*
X150000000Y-123112500D03*
%TD*%
D32*
%TO.C,C4*%
X115700000Y-92000000D03*
X117600000Y-92000000D03*
%TD*%
D23*
%TO.C,R17*%
X124800000Y-100400000D03*
X123150000Y-100400000D03*
%TD*%
D22*
%TO.C,R22*%
X110470000Y-116825000D03*
X110470000Y-115175000D03*
%TD*%
D33*
%TO.C,C8*%
X125050000Y-90200000D03*
X125050000Y-92100000D03*
%TD*%
D37*
%TO.C,D8*%
X101800000Y-71250000D03*
X101800000Y-69000000D03*
%TD*%
D33*
%TO.C,C11*%
X109270000Y-106428000D03*
X109270000Y-108328000D03*
%TD*%
D38*
%TO.C,C15*%
X149662500Y-127000000D03*
X147937500Y-127000000D03*
%TD*%
D37*
%TO.C,D10*%
X170500000Y-99425000D03*
X170500000Y-97175000D03*
%TD*%
D38*
%TO.C,C14*%
X155062500Y-129200000D03*
X153337500Y-129200000D03*
%TD*%
D21*
%TO.C,C18*%
X142605000Y-121080000D03*
X142605000Y-119005000D03*
%TD*%
D39*
%TO.C,U6*%
X155545000Y-127153500D03*
X154275000Y-127153500D03*
X153005000Y-127153500D03*
X151735000Y-127153500D03*
X151735000Y-121731500D03*
X153005000Y-121731500D03*
X154275000Y-121731500D03*
X155545000Y-121731500D03*
%TD*%
D33*
%TO.C,C5*%
X127700000Y-98450000D03*
X127700000Y-100350000D03*
%TD*%
D26*
%TO.C,R13*%
X122000000Y-87000000D03*
X123650000Y-87000000D03*
%TD*%
%TO.C,R18*%
X123150000Y-98800000D03*
X124800000Y-98800000D03*
%TD*%
D24*
%TO.C,R26*%
X114200000Y-115175000D03*
X114200000Y-116825000D03*
%TD*%
D23*
%TO.C,R16*%
X120075000Y-85400000D03*
X118425000Y-85400000D03*
%TD*%
D38*
%TO.C,C16*%
X152525000Y-119600000D03*
X150800000Y-119600000D03*
%TD*%
D21*
%TO.C,C19*%
X145005000Y-121080000D03*
X145005000Y-119005000D03*
%TD*%
D23*
%TO.C,R21*%
X121400000Y-100400000D03*
X119750000Y-100400000D03*
%TD*%
%TO.C,R15*%
X117450000Y-90000000D03*
X115800000Y-90000000D03*
%TD*%
D40*
%TO.C,C17*%
X157200000Y-124262500D03*
X157200000Y-122537500D03*
%TD*%
D39*
%TO.C,IC1*%
X119310000Y-90089000D03*
X120580000Y-90089000D03*
X121850000Y-90089000D03*
X123120000Y-90089000D03*
X123120000Y-95511000D03*
X121850000Y-95511000D03*
X120580000Y-95511000D03*
X119310000Y-95511000D03*
%TD*%
D26*
%TO.C,R19*%
X119725000Y-98800000D03*
X121375000Y-98800000D03*
%TD*%
%TO.C,R23*%
X110445000Y-113600000D03*
X112095000Y-113600000D03*
%TD*%
D32*
%TO.C,C3*%
X125250000Y-87400000D03*
X127150000Y-87400000D03*
%TD*%
D39*
%TO.C,IC2*%
X115070000Y-111600000D03*
X113800000Y-111600000D03*
X112530000Y-111600000D03*
X111260000Y-111600000D03*
X111260000Y-106178000D03*
X112530000Y-106178000D03*
X113800000Y-106178000D03*
X115070000Y-106178000D03*
%TD*%
D22*
%TO.C,R28*%
X159100000Y-109025000D03*
X159100000Y-107375000D03*
%TD*%
D26*
%TO.C,R30*%
X154405000Y-131480000D03*
X156055000Y-131480000D03*
%TD*%
D37*
%TO.C,D7*%
X101800000Y-84250000D03*
X101800000Y-82000000D03*
%TD*%
D41*
%TO.C,R32*%
X149712500Y-125200000D03*
X147887500Y-125200000D03*
%TD*%
D25*
%TO.C,C7*%
X125050000Y-95700000D03*
X125050000Y-93800000D03*
%TD*%
M02*
