M48
; DRILL file {KiCad 9.0.0} date 2026-01-13T23:36:18-0600
; FORMAT={-:-/ absolute / inch / decimal}
; #@! TF.CreationDate,2026-01-13T23:36:18-06:00
; #@! TF.GenerationSoftware,Kicad,Pcbnew,9.0.0
; #@! TF.FileFunction,Plated,1,2,PTH
FMAT,2
INCH
; #@! TA.AperFunction,Plated,PTH,ViaDrill
T1C0.0118
; #@! TA.AperFunction,Plated,PTH,ComponentDrill
T2C0.0118
; #@! TA.AperFunction,Plated,PTH,ComponentDrill
T3C0.0400
; #@! TA.AperFunction,Plated,PTH,ComponentDrill
T4C0.0472
; #@! TA.AperFunction,Plated,PTH,ComponentDrill
T5C0.1260
%
G90
G05
T1
X4.5197Y-2.8189
X4.5197Y-3.5984
X4.5236Y-3.0827
X4.5315Y-3.7835
X4.5354Y-3.9606
X4.5354Y-4.1417
X4.5472Y-2.9764
X4.5472Y-3.4685
X4.5827Y-3.8701
X4.5906Y-3.6575
X4.5984Y-2.8858
X4.6024Y-2.7717
X4.6063Y-4.0394
X4.622Y-3.3858
X4.6271Y-3.5079
X4.6535Y-3.0354
X4.6575Y-3.7874
X4.685Y-3.9567
X4.689Y-2.4094
X4.689Y-2.9409
X4.7047Y-4.1417
X4.7323Y-2.7559
X4.7323Y-2.811
X4.7402Y-2.874
X4.7441Y-3.6614
X4.7441Y-3.8701
X4.752Y-2.7047
X4.7559Y-4.0315
X4.7638Y-3.0039
X4.7835Y-2.5197
X4.7953Y-2.6969
X4.7992Y-3.7835
X4.8031Y-2.878
X4.8189Y-2.4213
X4.8661Y-2.9724
X4.8701Y-2.8661
X4.878Y-4.3976
X4.8802Y-2.4409
X4.8819Y-3.6654
X4.8819Y-4.4567
X4.8948Y-3.4016
X4.8948Y-3.4724
X4.9173Y-4.3726
X4.9173Y-4.4567
X4.9331Y-3.7835
X4.9567Y-3.5487
X4.9606Y-3.0472
X4.9803Y-4.185
X4.9882Y-3.6654
X5.0064Y-3.3484
X5.0236Y-3.7677
X5.0236Y-3.8228
X5.0236Y-3.8858
X5.0236Y-3.9567
X5.0236Y-4.0236
X5.0236Y-4.0945
X5.0236Y-4.1614
X5.079Y-3.9094
X5.0827Y-3.0906
X5.1027Y-4.3819
X5.1027Y-4.1541
X5.1047Y-4.2524
X5.122Y-3.0945
X5.1342Y-4.1305
X5.1342Y-4.225
X5.1358Y-4.3937
X5.1368Y-4.5561
X5.1614Y-2.7559
X5.1634Y-5.1083
X5.1654Y-3.748
X5.1654Y-3.815
X5.1654Y-3.8819
X5.1654Y-3.9488
X5.1654Y-4.0157
X5.1654Y-4.0748
X5.1673Y-4.4134
X5.185Y-3.0945
X5.185Y-4.7165
X5.185Y-4.748
X5.185Y-4.7835
X5.185Y-4.8228
X5.1969Y-2.752
X5.1969Y-4.1693
X5.1988Y-4.3838
X5.2008Y-4.437
X5.2119Y-4.1217
X5.212Y-4.0783
X5.2283Y-2.7717
X5.2303Y-4.1948
X5.2384Y-3.0512
X5.2402Y-2.5945
X5.2402Y-3.3583
X5.2402Y-3.7008
X5.248Y-2.5079
X5.252Y-2.5591
X5.2539Y-4.5709
X5.2559Y-2.7953
X5.2638Y-2.6142
X5.2638Y-4.4055
X5.2707Y-3.5696
X5.2756Y-4.6063
X5.2874Y-2.8031
X5.2917Y-4.2643
X5.2953Y-2.5906
X5.311Y-3.0906
X5.3189Y-4.1437
X5.3247Y-4.2722
X5.3268Y-2.3976
X5.3268Y-2.7794
X5.3307Y-4.4173
X5.3315Y-3.3732
X5.3465Y-2.5906
X5.3465Y-4.0715
X5.3534Y-4.6014
X5.3622Y-4.6969
X5.3622Y-4.7362
X5.3622Y-4.7756
X5.3622Y-4.8189
X5.374Y-3.3425
X5.3898Y-4.252
X5.3898Y-4.3346
X5.3904Y-4.0603
X5.3985Y-2.689
X5.4016Y-2.4843
X5.416Y-4.0347
X5.4393Y-4.2598
X5.4436Y-3.8989
X5.4675Y-3.1919
X5.4882Y-2.1496
X5.496Y-3.5573
X5.5037Y-3.4411
X5.5039Y-3.874
X5.5118Y-3.7638
X5.5157Y-4.5866
X5.5236Y-4.9016
X5.5359Y-4.1894
X5.5394Y-2.4803
X5.5515Y-3.435
X5.5591Y-3.1557
X5.5787Y-4.7992
X5.5906Y-4.7008
X5.5938Y-4.1929
X5.5945Y-2.2874
X5.5984Y-4.6063
X5.6024Y-2.1496
X5.6066Y-4.0754
X5.6417Y-4.1929
X5.6693Y-2.4803
X5.6775Y-4.5469
X5.6805Y-4.1929
X5.689Y-4.9016
X5.6929Y-2.7095
X5.7126Y-4.0866
X5.7283Y-3.7932
X5.7283Y-4.1141
X5.7441Y-3.2126
X5.7441Y-3.4764
X5.7559Y-3.5472
X5.7717Y-4.2244
X5.7883Y-3.9946
X5.7913Y-2.2283
X5.7992Y-3.6299
X5.8031Y-3.9669
X5.81Y-3.7037
X5.8189Y-4.2244
X5.8465Y-3.5945
X5.8583Y-4.6378
X5.8622Y-4.2283
X5.8819Y-2.8504
X5.8858Y-2.9803
X5.8898Y-4.9016
X5.8937Y-4.2559
X5.9134Y-4.0472
X5.9252Y-4.2913
X5.9291Y-4.1181
X5.9449Y-3.8386
X5.9567Y-4.0472
X5.9567Y-4.3268
X5.9646Y-2.5039
X5.9685Y-2.6693
X5.9724Y-2.9489
X5.9764Y-2.7795
X5.9803Y-3.7402
X5.9882Y-2.3583
X5.9921Y-4.3622
X5.9961Y-3.1929
X5.9961Y-4.0472
X5.9961Y-4.122
X6.0157Y-3.7008
X6.0157Y-4.189
X6.0354Y-4.4055
X6.0433Y-4.0472
X6.0472Y-4.8031
X6.0512Y-3.6693
X6.063Y-4.122
X6.0638Y-3.0805
X6.0669Y-4.1929
X6.0709Y-4.4409
X6.0866Y-2.8898
X6.0906Y-3.6339
X6.0906Y-4.0512
X6.0906Y-4.2402
X6.1063Y-4.4803
X6.1063Y-4.9567
X6.1122Y-4.561
X6.1181Y-3.6969
X6.122Y-4.122
X6.122Y-4.189
X6.1299Y-4.0472
X6.1496Y-4.6614
X6.1614Y-3.1024
X6.2047Y-5.1299
X6.2205Y-3.7559
X6.2323Y-5.0315
X6.2362Y-2.3425
X6.2992Y-4.937
X6.3031Y-2.8858
X6.4449Y-4.9606
X6.4488Y-4.7441
X6.4724Y-2.4173
X6.4921Y-3.2795
X6.5Y-2.5787
X6.5Y-2.7756
X6.5Y-3.1181
X6.5Y-3.5866
X6.5Y-3.8819
X6.5Y-4.0394
X6.5Y-4.5079
X6.5039Y-4.2953
T2
X4.9609Y-2.4921
X4.9609Y-2.5433
X4.9609Y-2.5945
X4.9609Y-2.6457
X5.0121Y-2.4921
X5.0121Y-2.5433
X5.0121Y-2.5945
X5.0121Y-2.6457
T3
X4.6995Y-4.7131
X4.6995Y-4.8131
X4.7995Y-4.7131
X4.7995Y-4.8131
X4.8995Y-4.7131
X4.8995Y-4.8131
X4.9995Y-4.7131
X4.9995Y-4.8131
X5.0995Y-4.7131
X5.0995Y-4.8131
T4
X6.2051Y-2.5197
X6.2051Y-2.6181
X6.2051Y-2.7165
X6.2051Y-3.2604
X6.2051Y-3.3588
X6.2051Y-3.4572
X6.2051Y-3.5557
X6.2051Y-4.0222
X6.2051Y-4.1206
X6.2051Y-4.2191
X6.2051Y-4.3175
X6.2051Y-4.4159
X6.2051Y-4.5143
X6.3035Y-2.5197
X6.3035Y-2.6181
X6.3035Y-2.7165
X6.3035Y-3.2604
X6.3035Y-3.3588
X6.3035Y-3.4572
X6.3035Y-3.5557
X6.3035Y-4.0222
X6.3035Y-4.1206
X6.3035Y-4.2191
X6.3035Y-4.3175
X6.3035Y-4.4159
X6.3035Y-4.5143
T5
X4.5906Y-2.2244
X4.5909Y-5.1752
X4.5932Y-2.5805
X4.5932Y-4.41
X5.8035Y-2.5805
X5.8039Y-4.41
X6.4075Y-2.2244
X6.4075Y-5.1738
M30
